Urbanist-ExtraLightItalic.ufo
<glyph name="exclam" format="2">
  <advance width="316.0"/>
  <unicode hex="0021"/>
  <outline>
    <contour>
      <point x="86.0" y="420.0" type="line"/>
      <point x="169.66666666666669" y="420.0" type="line"/>
      <point x="306.6666666666667" y="1400.0" type="line"/>
      <point x="223.0" y="1400.0" type="line"/>
    </contour>
    <contour>
      <point x="69.66666666666667" y="-26.0" type="curve" smooth="yes"/>
      <point x="99.00000000000001" y="-26.0"/>
      <point x="125.66666666666667" y="-2.999999999999999"/>
      <point x="129.66666666666666" y="28.666666666666668" type="curve" smooth="yes"/>
      <point x="134.66666666666666" y="61.66666666666667"/>
      <point x="110.00000000000001" y="90.33333333333334"/>
      <point x="76.0" y="90.33333333333334" type="curve" smooth="yes"/>
      <point x="45.66666666666667" y="90.33333333333334"/>
      <point x="19.0" y="67.33333333333334"/>
      <point x="15.0" y="38.0" type="curve" smooth="yes"/>
      <point x="10.0" y="2.666666666666668"/>
      <point x="34.66666666666667" y="-26.0"/>
    </contour>
  </outline>
</glyph>
<glyph name="numbersign" format="2">
  <advance width="1481.75"/>
  <unicode hex="0023"/>
  <outline>
    <contour>
      <point x="1442.0" y="953.3333333333334" type="line"/>
      <point x="1478.0" y="1040.3333333333333" type="line"/>
      <point x="1260.0" y="1040.3333333333333" type="line"/>
      <point x="1407.0" y="1400.0" type="line"/>
      <point x="1315.6666666666667" y="1400.0" type="line"/>
      <point x="1169.6666666666667" y="1040.3333333333333" type="line"/>
      <point x="647.6666666666666" y="1040.3333333333333" type="line"/>
      <point x="795.0" y="1400.0" type="line"/>
      <point x="703.6666666666666" y="1400.0" type="line"/>
      <point x="557.3333333333334" y="1040.3333333333333" type="line"/>
      <point x="337.6666666666667" y="1040.3333333333333" type="line"/>
      <point x="300.6666666666667" y="953.3333333333334" type="line"/>
      <point x="520.6666666666666" y="953.3333333333334" type="line"/>
      <point x="313.6666666666667" y="448.6666666666667" type="line"/>
      <point x="95.66666666666667" y="448.6666666666667" type="line"/>
      <point x="59.666666666666664" y="361.6666666666667" type="line"/>
      <point x="279.6666666666667" y="361.6666666666667" type="line"/>
      <point x="131.0" y="0.0" type="line"/>
      <point x="222.33333333333334" y="0.0" type="line"/>
      <point x="371.0" y="361.6666666666667" type="line"/>
      <point x="891.6666666666666" y="361.6666666666667" type="line"/>
      <point x="743.0" y="0.0" type="line"/>
      <point x="834.3333333333334" y="0.0" type="line"/>
      <point x="983.0" y="361.6666666666667" type="line"/>
      <point x="1201.0" y="361.6666666666667" type="line"/>
      <point x="1237.0" y="448.6666666666667" type="line"/>
      <point x="1017.0" y="448.6666666666667" type="line"/>
      <point x="1224.0" y="953.3333333333334" type="line"/>
    </contour>
    <contour>
      <point x="925.6666666666666" y="448.6666666666667" type="line"/>
      <point x="405.0" y="448.6666666666667" type="line"/>
      <point x="612.0" y="953.3333333333334" type="line"/>
      <point x="1132.6666666666667" y="953.3333333333334" type="line"/>
    </contour>
  </outline>
</glyph>
<glyph name="dollar" format="2">
  <advance width="1166.25"/>
  <unicode hex="0024"/>
  <outline>
    <contour>
      <point x="703.6666666666667" y="1328.6666666666667" type="curve"/>
      <point x="876.6666666666666" y="1328.6666666666667"/>
      <point x="1055.3333333333333" y="1252.6666666666667"/>
      <point x="1086.6666666666667" y="1107.0" type="curve"/>
      <point x="1174.6666666666665" y="1131.6666666666667" type="line"/>
      <point x="1133.0" y="1303.6666666666665"/>
      <point x="945.3333333333333" y="1406.0"/>
      <point x="749.0" y="1416.3333333333335" type="curve"/>
      <point x="780.6666666666666" y="1624.0" type="line"/>
      <point x="703.3333333333334" y="1624.0" type="line"/>
      <point x="671.6666666666667" y="1416.6666666666667" type="line"/>
      <point x="424.6666666666667" y="1403.3333333333333"/>
      <point x="195.00000000000003" y="1259.6666666666667"/>
      <point x="165.00000000000003" y="1040.0" type="curve"/>
      <point x="128.66666666666669" y="783.3333333333333"/>
      <point x="331.6666666666667" y="702.6666666666666"/>
      <point x="609.0" y="652.6666666666666" type="curve"/>
      <point x="803.6666666666667" y="614.6666666666666"/>
      <point x="993.6666666666666" y="542.6666666666666"/>
      <point x="968.0" y="362.6666666666667" type="curve"/>
      <point x="942.6666666666666" y="182.33333333333334"/>
      <point x="731.3333333333334" y="64.0"/>
      <point x="515.6666666666667" y="64.0" type="curve"/>
      <point x="343.0" y="64.0"/>
      <point x="164.33333333333334" y="140.66666666666669"/>
      <point x="133.0" y="286.0" type="curve"/>
      <point x="47.0" y="259.33333333333337" type="line"/>
      <point x="82.66666666666666" y="93.0"/>
      <point x="267.0" y="-14.333333333333332"/>
      <point x="474.33333333333337" y="-25.0" type="curve"/>
      <point x="443.33333333333337" y="-224.0" type="line"/>
      <point x="520.6666666666666" y="-224.0" type="line"/>
      <point x="551.6666666666666" y="-25.0" type="line"/>
      <point x="798.3333333333334" y="-10.0"/>
      <point x="1025.3333333333335" y="132.0"/>
      <point x="1056.3333333333335" y="353.0" type="curve"/>
      <point x="1089.0" y="585.0"/>
      <point x="869.3333333333334" y="697.6666666666666"/>
      <point x="611.6666666666667" y="743.6666666666666" type="curve"/>
      <point x="389.0" y="787.3333333333333"/>
      <point x="225.66666666666669" y="830.0"/>
      <point x="253.66666666666669" y="1030.6666666666665" type="curve"/>
      <point x="278.6666666666667" y="1208.6666666666665"/>
      <point x="487.0" y="1329.0"/>
    </contour>
  </outline>
</glyph>
<glyph name="percent" format="2">
  <advance width="1173.25"/>
  <unicode hex="0025"/>
  <outline>
    <contour>
      <point x="58.33333333333332" y="0.0" type="line"/>
      <point x="164.33333333333334" y="0.0" type="line"/>
      <point x="1169.3333333333333" y="1400.0" type="line"/>
      <point x="1062.9999999999998" y="1400.0" type="line"/>
    </contour>
    <contour>
      <point x="349.0" y="882.6666666666666" type="curve" smooth="yes"/>
      <point x="461.0" y="882.6666666666666"/>
      <point x="565.6666666666667" y="972.6666666666666"/>
      <point x="582.0" y="1087.3333333333333" type="curve" smooth="yes"/>
      <point x="598.6666666666667" y="1205.3333333333333"/>
      <point x="515.6666666666666" y="1303.3333333333333"/>
      <point x="397.6666666666667" y="1303.3333333333333" type="curve" smooth="yes"/>
      <point x="285.3333333333333" y="1303.3333333333333"/>
      <point x="179.66666666666666" y="1211.6666666666667"/>
      <point x="164.33333333333334" y="1096.6666666666667" type="curve" smooth="yes"/>
      <point x="147.66666666666666" y="978.6666666666666"/>
      <point x="230.66666666666669" y="882.6666666666666"/>
    </contour>
    <contour>
      <point x="349.0" y="960.0" type="curve" smooth="yes"/>
      <point x="278.0" y="960.0"/>
      <point x="230.33333333333334" y="1017.0"/>
      <point x="240.33333333333334" y="1087.3333333333333" type="curve" smooth="yes"/>
      <point x="250.33333333333334" y="1163.3333333333333"/>
      <point x="320.6666666666667" y="1225.6666666666667"/>
      <point x="396.6666666666667" y="1225.6666666666667" type="curve" smooth="yes"/>
      <point x="468.33333333333337" y="1225.6666666666667"/>
      <point x="516.0000000000001" y="1168.6666666666667"/>
      <point x="506.0" y="1096.6666666666667" type="curve" smooth="yes"/>
      <point x="495.0" y="1022.6666666666665"/>
      <point x="425.6666666666667" y="960.0"/>
    </contour>
    <contour>
      <point x="831.6666666666666" y="96.66666666666666" type="curve" smooth="yes"/>
      <point x="944.6666666666667" y="96.66666666666666"/>
      <point x="1049.6666666666665" y="189.66666666666669"/>
      <point x="1066.0" y="303.0" type="curve" smooth="yes"/>
      <point x="1082.3333333333333" y="419.6666666666667"/>
      <point x="1000.0" y="517.6666666666666"/>
      <point x="881.3333333333333" y="517.6666666666666" type="curve" smooth="yes"/>
      <point x="768.3333333333333" y="517.6666666666666"/>
      <point x="662.0" y="427.0"/>
      <point x="645.6666666666667" y="312.6666666666667" type="curve" smooth="yes"/>
      <point x="629.0" y="196.0"/>
      <point x="713.0" y="96.66666666666666"/>
    </contour>
    <contour>
      <point x="832.6666666666666" y="174.0" type="curve" smooth="yes"/>
      <point x="762.0" y="174.0"/>
      <point x="711.6666666666666" y="231.33333333333334"/>
      <point x="722.3333333333333" y="303.0" type="curve" smooth="yes"/>
      <point x="732.6666666666666" y="377.3333333333333"/>
      <point x="803.6666666666666" y="440.0"/>
      <point x="880.0" y="440.0" type="curve" smooth="yes"/>
      <point x="949.6666666666666" y="440.0"/>
      <point x="999.0" y="382.6666666666667"/>
      <point x="989.0" y="312.6666666666667" type="curve" smooth="yes"/>
      <point x="979.0" y="236.66666666666666"/>
      <point x="908.0" y="174.0"/>
    </contour>
  </outline>
</glyph>
<glyph name="ampersand" format="2">
  <advance width="1410.0"/>
  <unicode hex="0026"/>
  <outline>
    <contour>
      <point x="404.0" y="-26.0" type="curve" smooth="yes"/>
      <point x="580.0" y="-26.0"/>
      <point x="627.0" y="26.0"/>
      <point x="938.0" y="299.0" type="curve"/>
      <point x="1198.3333333333335" y="0.0" type="line"/>
      <point x="1269.0" y="63.333333333333336" type="line"/>
      <point x="1007.0" y="365.6666666666667" type="line"/>
      <point x="1172.3333333333335" y="509.3333333333333" type="line"/>
      <point x="1187.6666666666667" y="635.6666666666666" type="line"/>
      <point x="953.0" y="432.3333333333333" type="line"/>
      <point x="589.0" y="857.0" type="line"/>
      <point x="771.0" y="1015.0"/>
      <point x="813.3333333333333" y="1046.6666666666667"/>
      <point x="829.0" y="1160.6666666666665" type="curve" smooth="yes"/>
      <point x="850.0" y="1309.0"/>
      <point x="745.0" y="1428.6666666666667"/>
      <point x="598.9999999999999" y="1428.6666666666667" type="curve" smooth="yes"/>
      <point x="459.0" y="1428.6666666666667"/>
      <point x="326.0" y="1313.6666666666667"/>
      <point x="306.0" y="1170.0" type="curve" smooth="yes"/>
      <point x="290.0" y="1056.0"/>
      <point x="322.00000000000006" y="1025.6666666666667"/>
      <point x="460.6666666666667" y="861.6666666666666" type="curve"/>
      <point x="152.0" y="591.0"/>
      <point x="87.0" y="546.6666666666666"/>
      <point x="62.333333333333336" y="373.6666666666667" type="curve" smooth="yes"/>
      <point x="33.333333333333336" y="168.66666666666666"/>
      <point x="167.66666666666666" y="-26.0"/>
    </contour>
    <contour>
      <point x="406.66666666666663" y="64.0" type="curve" smooth="yes"/>
      <point x="241.33333333333334" y="64.0"/>
      <point x="129.33333333333334" y="194.66666666666669"/>
      <point x="152.66666666666669" y="360.6666666666667" type="curve" smooth="yes"/>
      <point x="173.00000000000003" y="509.99999999999994"/>
      <point x="223.0" y="534.6666666666667"/>
      <point x="516.3333333333333" y="793.6666666666667" type="curve"/>
      <point x="882.0" y="369.0" type="line"/>
      <point x="596.0" y="116.00000000000001"/>
      <point x="560.3333333333334" y="64.0"/>
    </contour>
    <contour>
      <point x="527.6666666666666" y="916.0" type="curve"/>
      <point x="407.66666666666663" y="1058.0"/>
      <point x="377.6666666666667" y="1075.6666666666667"/>
      <point x="389.6666666666667" y="1161.3333333333333" type="curve" smooth="yes"/>
      <point x="403.6666666666667" y="1256.6666666666665"/>
      <point x="492.6666666666667" y="1344.0"/>
      <point x="596.9999999999999" y="1344.0" type="curve" smooth="yes"/>
      <point x="691.0" y="1344.0"/>
      <point x="759.3333333333334" y="1268.3333333333335"/>
      <point x="745.3333333333334" y="1170.6666666666667" type="curve" smooth="yes"/>
      <point x="733.0" y="1083.0"/>
      <point x="699.0" y="1064.0"/>
    </contour>
  </outline>
</glyph>
<glyph name="quotesingle" format="2">
  <advance width="232.5"/>
  <unicode hex="0027"/>
  <outline>
    <contour>
      <point x="130.66666666666669" y="878.0" type="line"/>
      <point x="208.0" y="878.0" type="line"/>
      <point x="281.0" y="1400.0" type="line"/>
      <point x="203.66666666666669" y="1400.0" type="line"/>
    </contour>
  </outline>
</glyph>
<glyph name="parenleft" format="2">
  <advance width="587.25"/>
  <unicode hex="0028"/>
  <outline>
    <contour>
      <point x="313.0" y="-110.33333333333333" type="curve"/>
      <point x="399.6666666666667" y="-113.66666666666667" type="line"/>
      <point x="246.66666666666666" y="78.66666666666666"/>
      <point x="196.33333333333334" y="325.6666666666667"/>
      <point x="229.66666666666666" y="639.3333333333334" type="curve" smooth="yes"/>
      <point x="283.0" y="942.3333333333334"/>
      <point x="405.3333333333333" y="1205.3333333333335"/>
      <point x="615.0" y="1398.6666666666667" type="curve"/>
      <point x="521.6666666666666" y="1401.3333333333333" type="line"/>
      <point x="307.6666666666667" y="1241.6666666666665"/>
      <point x="180.0" y="927.3333333333333"/>
      <point x="141.33333333333334" y="648.6666666666666" type="curve" smooth="yes"/>
      <point x="100.66666666666667" y="362.0"/>
      <point x="139.0" y="71.66666666666667"/>
    </contour>
  </outline>
</glyph>
<glyph name="parenright" format="2">
  <advance width="587.25"/>
  <unicode hex="0029"/>
  <outline>
    <contour>
      <point x="12.666666666666666" y="-110.33333333333333" type="curve"/>
      <point x="105.66666666666667" y="-113.66666666666667" type="line"/>
      <point x="330.6666666666667" y="68.33333333333333"/>
      <point x="447.33333333333337" y="356.66666666666663"/>
      <point x="487.00000000000006" y="639.3333333333334" type="curve" smooth="yes"/>
      <point x="526.0" y="921.6666666666666"/>
      <point x="484.0" y="1239.0"/>
      <point x="314.0" y="1398.6666666666667" type="curve"/>
      <point x="228.66666666666666" y="1401.3333333333333" type="line"/>
      <point x="384.66666666666663" y="1208.0"/>
      <point x="429.6666666666667" y="947.6666666666666"/>
      <point x="398.66666666666663" y="648.6666666666666" type="curve" smooth="yes"/>
      <point x="343.0" y="331.33333333333337"/>
      <point x="218.99999999999997" y="82.0"/>
    </contour>
  </outline>
</glyph>
<glyph name="asterisk" format="2">
  <advance width="695.5"/>
  <unicode hex="002A"/>
  <outline>
    <contour>
      <point x="248.66666666666666" y="861.0" type="line"/>
      <point x="412.33333333333337" y="1049.3333333333333" type="line"/>
      <point x="520.6666666666667" y="861.0" type="line"/>
      <point x="588.6666666666666" y="907.3333333333334" type="line"/>
      <point x="478.0" y="1093.6666666666667" type="line"/>
      <point x="708.3333333333333" y="1165.6666666666667" type="line"/>
      <point x="695.0" y="1238.6666666666667" type="line"/>
      <point x="465.0" y="1168.3333333333333" type="line"/>
      <point x="497.6666666666667" y="1400.0" type="line"/>
      <point x="420.0" y="1400.0" type="line"/>
      <point x="387.6666666666667" y="1168.3333333333333" type="line"/>
      <point x="175.99999999999997" y="1238.6666666666667" type="line"/>
      <point x="142.66666666666666" y="1165.6666666666667" type="line"/>
      <point x="352.0" y="1093.6666666666667" type="line"/>
      <point x="190.0" y="907.3333333333334" type="line"/>
    </contour>
  </outline>
</glyph>
<glyph name="plus" format="2">
  <advance width="1160.0"/>
  <unicode hex="002B"/>
  <outline>
    <contour>
      <point x="479.0" y="100.0" type="line"/>
      <point x="569.0" y="100.0" type="line"/>
      <point x="633.0" y="555.0" type="line"/>
      <point x="1088.0" y="555.0" type="line"/>
      <point x="1100.0" y="645.0" type="line"/>
      <point x="645.0" y="645.0" type="line"/>
      <point x="709.0" y="1100.0" type="line"/>
      <point x="619.0" y="1100.0" type="line"/>
      <point x="555.0" y="645.0" type="line"/>
      <point x="100.0" y="645.0" type="line"/>
      <point x="88.0" y="555.0" type="line"/>
      <point x="543.0" y="555.0" type="line"/>
    </contour>
  </outline>
</glyph>
<glyph name="comma" format="2">
  <advance width="352.0"/>
  <unicode hex="002C"/>
  <outline>
    <contour>
      <point x="-6.0" y="-112.0" type="line"/>
      <point x="54.333333333333336" y="-112.0" type="line"/>
      <point x="194.33333333333334" y="226.0" type="line"/>
      <point x="103.0" y="226.0" type="line"/>
    </contour>
  </outline>
</glyph>
<glyph name="hyphen" format="2">
  <advance width="880.0"/>
  <unicode hex="002D"/>
  <outline>
    <contour>
      <point x="140.0" y="645.0" type="line"/>
      <point x="128.0" y="555.0" type="line"/>
      <point x="768.0" y="555.0" type="line"/>
      <point x="780.0" y="645.0" type="line"/>
    </contour>
  </outline>
</glyph>
<glyph name="period" format="2">
  <advance width="316.25"/>
  <unicode hex="002E"/>
  <outline>
    <contour>
      <point x="68.00000000000001" y="-26.0" type="curve" smooth="yes"/>
      <point x="99.00000000000001" y="-26.0"/>
      <point x="126.00000000000001" y="-2.999999999999999"/>
      <point x="130.0" y="28.333333333333332" type="curve" smooth="yes"/>
      <point x="135.0" y="61.66666666666668"/>
      <point x="110.00000000000001" y="90.33333333333334"/>
      <point x="74.33333333333334" y="90.33333333333334" type="curve" smooth="yes"/>
      <point x="45.66666666666667" y="90.33333333333334"/>
      <point x="19.0" y="67.00000000000001"/>
      <point x="15.0" y="37.666666666666664" type="curve" smooth="yes"/>
      <point x="10.0" y="2.666666666666668"/>
      <point x="34.66666666666667" y="-26.0"/>
    </contour>
  </outline>
</glyph>
<glyph name="slash" format="2">
  <advance width="654.25"/>
  <unicode hex="002F"/>
  <outline>
    <contour>
      <point x="701.6666666666667" y="1400.0" type="line"/>
      <point x="609.9999999999999" y="1400.0" type="line"/>
      <point x="-6.333333333333333" y="-112.0" type="line"/>
      <point x="84.33333333333333" y="-112.0" type="line"/>
    </contour>
  </outline>
</glyph>
<glyph name="zero" format="2">
  <advance width="1183.0"/>
  <unicode hex="0030"/>
  <outline>
    <contour>
      <point x="523.3333333333333" y="-26.0" type="curve" smooth="yes"/>
      <point x="858.6666666666666" y="-26.0"/>
      <point x="1095.0" y="297.3333333333333"/>
      <point x="1150.6666666666667" y="695.3333333333334" type="curve" smooth="yes"/>
      <point x="1207.0" y="1099.0"/>
      <point x="1057.3333333333333" y="1426.0"/>
      <point x="717.6666666666666" y="1426.0" type="curve" smooth="yes"/>
      <point x="380.6666666666667" y="1426.0"/>
      <point x="145.0" y="1104.6666666666667"/>
      <point x="89.0" y="704.6666666666666" type="curve" smooth="yes"/>
      <point x="32.0" y="302.6666666666667"/>
      <point x="182.0" y="-26.0"/>
    </contour>
    <contour>
      <point x="526.0" y="64.0" type="curve" smooth="yes"/>
      <point x="240.00000000000003" y="64.0"/>
      <point x="126.00000000000001" y="348.3333333333333"/>
      <point x="175.33333333333334" y="695.3333333333334" type="curve" smooth="yes"/>
      <point x="223.00000000000003" y="1037.6666666666667"/>
      <point x="414.0" y="1336.0"/>
      <point x="715.0" y="1336.0" type="curve" smooth="yes"/>
      <point x="995.0" y="1336.0"/>
      <point x="1115.0" y="1065.6666666666667"/>
      <point x="1064.6666666666667" y="704.6666666666666" type="curve" smooth="yes"/>
      <point x="1015.3333333333334" y="357.0"/>
      <point x="818.0" y="64.0"/>
    </contour>
  </outline>
</glyph>
<glyph name="one" format="2">
  <advance width="467.5"/>
  <unicode hex="0031"/>
  <outline>
    <contour>
      <point x="147.66666666666666" y="0.0" type="line"/>
      <point x="237.66666666666669" y="0.0" type="line"/>
      <point x="433.6666666666667" y="1400.0" type="line"/>
      <point x="233.33333333333334" y="1400.0" type="line"/>
      <point x="193.66666666666666" y="1310.0" type="line"/>
      <point x="331.3333333333333" y="1310.0" type="line"/>
    </contour>
  </outline>
</glyph>
<glyph name="two" format="2">
  <advance width="1063.5"/>
  <unicode hex="0032"/>
  <outline>
    <contour>
      <point x="10.0" y="0.0" type="line"/>
      <point x="873.6666666666666" y="0.0" type="line"/>
      <point x="885.6666666666666" y="90.0" type="line"/>
      <point x="178.66666666666669" y="88.33333333333333" type="line"/>
      <point x="489.6666666666667" y="343.0"/>
      <point x="953.3333333333333" y="769.6666666666667"/>
      <point x="986.6666666666666" y="1010.6666666666667" type="curve" smooth="yes"/>
      <point x="1019.6666666666666" y="1238.6666666666667"/>
      <point x="859.6666666666666" y="1426.0"/>
      <point x="633.6666666666667" y="1426.0" type="curve" smooth="yes"/>
      <point x="410.66666666666663" y="1426.0"/>
      <point x="204.00000000000003" y="1245.0"/>
      <point x="172.00000000000003" y="1018.0" type="curve"/>
      <point x="262.0" y="1012.6666666666667" type="line"/>
      <point x="286.33333333333337" y="1188.0"/>
      <point x="452.6666666666667" y="1336.0"/>
      <point x="631.0000000000001" y="1336.0" type="curve" smooth="yes"/>
      <point x="803.6666666666666" y="1336.0"/>
      <point x="922.6666666666666" y="1193.6666666666667"/>
      <point x="898.3333333333333" y="1020.0" type="curve" smooth="yes"/>
      <point x="865.3333333333333" y="783.6666666666666"/>
      <point x="363.66666666666663" y="375.0"/>
      <point x="19.0" y="80.33333333333333" type="curve"/>
    </contour>
  </outline>
</glyph>
<glyph name="three" format="2">
  <advance width="963.5"/>
  <unicode hex="0033"/>
  <outline>
    <contour>
      <point x="412.6666666666667" y="-26.0" type="curve" smooth="yes"/>
      <point x="633.0" y="-26.0"/>
      <point x="855.0" y="153.0"/>
      <point x="885.6666666666666" y="373.66666666666663" type="curve" smooth="yes"/>
      <point x="909.6666666666666" y="544.6666666666667"/>
      <point x="835.3333333333333" y="680.0"/>
      <point x="673.6666666666666" y="737.0" type="curve"/>
      <point x="814.6666666666666" y="783.0"/>
      <point x="917.0" y="902.6666666666666"/>
      <point x="937.6666666666667" y="1052.6666666666665" type="curve" smooth="yes"/>
      <point x="966.6666666666667" y="1257.6666666666667"/>
      <point x="803.3333333333334" y="1426.3333333333333"/>
      <point x="599.0000000000001" y="1426.3333333333333" type="curve" smooth="yes"/>
      <point x="396.0" y="1426.3333333333333"/>
      <point x="190.33333333333334" y="1263.0"/>
      <point x="161.66666666666669" y="1060.0" type="curve"/>
      <point x="250.66666666666669" y="1054.6666666666665" type="line"/>
      <point x="272.0" y="1207.0"/>
      <point x="439.33333333333337" y="1336.3333333333333"/>
      <point x="596.6666666666666" y="1336.3333333333333" type="curve" smooth="yes"/>
      <point x="746.3333333333333" y="1336.3333333333333"/>
      <point x="870.6666666666667" y="1212.6666666666667"/>
      <point x="849.3333333333334" y="1062.0" type="curve" smooth="yes"/>
      <point x="823.0" y="876.0"/>
      <point x="662.6666666666666" y="776.0"/>
      <point x="448.33333333333337" y="776.0" type="curve"/>
      <point x="442.0" y="695.0" type="line"/>
      <point x="672.6666666666666" y="695.0"/>
      <point x="826.0" y="592.3333333333333"/>
      <point x="797.0" y="383.0" type="curve" smooth="yes"/>
      <point x="772.6666666666666" y="207.33333333333334"/>
      <point x="590.0" y="64.0"/>
      <point x="415.33333333333337" y="64.0" type="curve" smooth="yes"/>
      <point x="209.33333333333334" y="64.0"/>
      <point x="107.66666666666667" y="201.66666666666669"/>
      <point x="132.0" y="375.66666666666663" type="curve"/>
      <point x="43.333333333333336" y="381.0" type="line"/>
      <point x="11.666666666666666" y="158.33333333333331"/>
      <point x="153.33333333333331" y="-26.0"/>
    </contour>
  </outline>
</glyph>
<glyph name="four" format="2">
  <advance width="1059.25"/>
  <unicode hex="0034"/>
  <outline>
    <contour>
      <point x="617.6666666666666" y="0.0" type="line"/>
      <point x="707.6666666666666" y="0.0" type="line"/>
      <point x="766.6666666666666" y="418.6666666666667" type="line"/>
      <point x="928.0" y="418.6666666666667" type="line"/>
      <point x="940.3333333333334" y="508.6666666666667" type="line"/>
      <point x="778.6666666666666" y="508.6666666666667" type="line"/>
      <point x="903.6666666666666" y="1400.0" type="line"/>
      <point x="787.3333333333333" y="1400.0" type="line"/>
      <point x="80.66666666666667" y="512.0" type="line"/>
      <point x="68.66666666666667" y="418.6666666666667" type="line"/>
      <point x="676.6666666666666" y="418.6666666666667" type="line"/>
    </contour>
    <contour>
      <point x="192.00000000000003" y="512.0" type="line"/>
      <point x="792.3333333333334" y="1263.6666666666667" type="line"/>
      <point x="688.6666666666666" y="508.6666666666667" type="line"/>
    </contour>
  </outline>
</glyph>
<glyph name="five" format="2">
  <advance width="1086.25"/>
  <unicode hex="0035"/>
  <outline>
    <contour>
      <point x="449.00000000000006" y="-26.0" type="curve" smooth="yes"/>
      <point x="692.6666666666666" y="-26.0"/>
      <point x="920.6666666666667" y="172.33333333333334"/>
      <point x="955.0" y="417.3333333333333" type="curve" smooth="yes"/>
      <point x="992.0" y="685.6666666666667"/>
      <point x="819.3333333333333" y="869.0"/>
      <point x="534.0" y="870.6666666666666" type="curve"/>
      <point x="343.33333333333337" y="870.6666666666666" type="line"/>
      <point x="490.6666666666667" y="1310.0" type="line"/>
      <point x="1057.3333333333333" y="1310.0" type="line"/>
      <point x="1069.6666666666665" y="1400.0" type="line"/>
      <point x="430.0" y="1400.0" type="line"/>
      <point x="219.0" y="780.6666666666666" type="line"/>
      <point x="553.3333333333334" y="780.6666666666666" type="line" smooth="yes"/>
      <point x="762.0" y="780.6666666666666"/>
      <point x="893.3333333333334" y="621.6666666666666"/>
      <point x="866.3333333333334" y="426.6666666666667" type="curve" smooth="yes"/>
      <point x="838.0" y="227.66666666666666"/>
      <point x="651.3333333333334" y="64.0"/>
      <point x="451.6666666666667" y="64.0" type="curve" smooth="yes"/>
      <point x="256.0" y="64.0"/>
      <point x="120.66666666666667" y="222.33333333333334"/>
      <point x="148.66666666666666" y="419.3333333333333" type="curve"/>
      <point x="59.0" y="424.6666666666667" type="line"/>
      <point x="24.666666666666668" y="178.33333333333331"/>
      <point x="196.99999999999997" y="-26.0"/>
    </contour>
  </outline>
</glyph>
<glyph name="six" format="2">
  <advance width="1066.25"/>
  <unicode hex="0036"/>
  <outline>
    <contour>
      <point x="457.6666666666667" y="-26.0" type="curve" smooth="yes"/>
      <point x="719.6666666666666" y="-26.0"/>
      <point x="962.3333333333334" y="186.66666666666666"/>
      <point x="999.3333333333334" y="448.3333333333333" type="curve" smooth="yes"/>
      <point x="1049.6666666666667" y="806.0"/>
      <point x="699.6666666666667" y="1032.0"/>
      <point x="372.6666666666667" y="873.0" type="curve"/>
      <point x="754.0" y="1400.0" type="line"/>
      <point x="647.3333333333333" y="1400.0" type="line"/>
      <point x="150.66666666666666" y="708.3333333333333" type="line" smooth="yes"/>
      <point x="90.66666666666666" y="616.3333333333333"/>
      <point x="59.0" y="562.6666666666666"/>
      <point x="43.666666666666664" y="457.6666666666667" type="curve" smooth="yes"/>
      <point x="6.333333333333333" y="192.0"/>
      <point x="194.33333333333334" y="-26.0"/>
    </contour>
    <contour>
      <point x="460.6666666666667" y="64.0" type="curve" smooth="yes"/>
      <point x="256.3333333333333" y="64.0"/>
      <point x="102.33333333333333" y="231.00000000000003"/>
      <point x="133.0" y="449.6666666666667" type="curve" smooth="yes"/>
      <point x="162.33333333333334" y="657.3333333333334"/>
      <point x="358.0" y="840.3333333333334"/>
      <point x="582.3333333333334" y="840.3333333333334" type="curve" smooth="yes"/>
      <point x="793.3333333333333" y="840.3333333333334"/>
      <point x="940.6666666666667" y="670.6666666666666"/>
      <point x="910.6666666666667" y="459.33333333333337" type="curve" smooth="yes"/>
      <point x="881.6666666666667" y="252.33333333333334"/>
      <point x="689.6666666666667" y="64.0"/>
    </contour>
  </outline>
</glyph>
<glyph name="seven" format="2">
  <advance width="1054.75"/>
  <unicode hex="0037"/>
  <outline>
    <contour>
      <point x="84.00000000000001" y="0.0" type="line"/>
      <point x="188.33333333333334" y="0.0" type="line"/>
      <point x="1129.6666666666665" y="1310.0" type="line"/>
      <point x="1140.6666666666665" y="1400.0" type="line"/>
      <point x="166.0" y="1400.0" type="line"/>
      <point x="153.66666666666666" y="1310.0" type="line"/>
      <point x="1022.6666666666666" y="1310.0" type="line"/>
    </contour>
  </outline>
</glyph>
<glyph name="eight" format="2">
  <advance width="1034.75"/>
  <unicode hex="0038"/>
  <outline>
    <contour>
      <point x="448.00000000000006" y="-26.0" type="curve" smooth="yes"/>
      <point x="687.3333333333333" y="-26.0"/>
      <point x="906.0" y="152.33333333333334"/>
      <point x="936.6666666666666" y="372.3333333333333" type="curve" smooth="yes"/>
      <point x="959.6666666666666" y="534.0"/>
      <point x="873.0" y="673.0"/>
      <point x="735.0" y="735.3333333333333" type="curve"/>
      <point x="871.0" y="794.3333333333334"/>
      <point x="976.3333333333333" y="915.0"/>
      <point x="995.3333333333333" y="1053.3333333333333" type="curve" smooth="yes"/>
      <point x="1024.0" y="1257.6666666666667"/>
      <point x="864.3333333333334" y="1426.0"/>
      <point x="642.6666666666667" y="1426.0" type="curve" smooth="yes"/>
      <point x="424.6666666666667" y="1426.0"/>
      <point x="224.33333333333334" y="1263.3333333333335"/>
      <point x="196.00000000000003" y="1062.6666666666667" type="curve" smooth="yes"/>
      <point x="175.66666666666669" y="920.6666666666666"/>
      <point x="251.0" y="797.6666666666666"/>
      <point x="366.3333333333333" y="740.0" type="curve"/>
      <point x="208.66666666666666" y="676.3333333333333"/>
      <point x="85.33333333333333" y="539.6666666666666"/>
      <point x="63.333333333333336" y="381.6666666666667" type="curve" smooth="yes"/>
      <point x="31.666666666666668" y="157.66666666666666"/>
      <point x="204.66666666666666" y="-26.0"/>
    </contour>
    <contour>
      <point x="450.6666666666667" y="64.0" type="curve" smooth="yes"/>
      <point x="267.66666666666663" y="64.0"/>
      <point x="134.66666666666666" y="201.00000000000003"/>
      <point x="158.66666666666666" y="372.3333333333333" type="curve" smooth="yes"/>
      <point x="184.0" y="547.6666666666667"/>
      <point x="360.66666666666663" y="690.0"/>
      <point x="548.6666666666667" y="690.0" type="curve" smooth="yes"/>
      <point x="736.3333333333333" y="690.0"/>
      <point x="865.0" y="553.0"/>
      <point x="840.6666666666666" y="381.6666666666667" type="curve" smooth="yes"/>
      <point x="816.3333333333333" y="206.66666666666669"/>
      <point x="643.0" y="64.0"/>
    </contour>
    <contour>
      <point x="551.6666666666667" y="780.0" type="curve" smooth="yes"/>
      <point x="386.0" y="780.0"/>
      <point x="270.6666666666667" y="901.6666666666667"/>
      <point x="291.6666666666667" y="1053.3333333333333" type="curve" smooth="yes"/>
      <point x="314.0" y="1209.0"/>
      <point x="468.6666666666667" y="1336.0"/>
      <point x="639.6666666666667" y="1336.0" type="curve" smooth="yes"/>
      <point x="805.0" y="1336.0"/>
      <point x="920.6666666666666" y="1214.6666666666667"/>
      <point x="899.6666666666666" y="1062.6666666666667" type="curve" smooth="yes"/>
      <point x="877.3333333333333" y="907.0"/>
      <point x="722.6666666666666" y="780.0"/>
    </contour>
  </outline>
</glyph>
<glyph name="nine" format="2">
  <advance width="1032.5"/>
  <unicode hex="0039"/>
  <outline>
    <contour>
      <point x="310.6666666666667" y="0.0" type="line"/>
      <point x="415.3333333333333" y="0.0" type="line"/>
      <point x="935.0" y="725.0" type="line" smooth="yes"/>
      <point x="992.3333333333334" y="813.6666666666667"/>
      <point x="1024.0" y="863.6666666666667"/>
      <point x="1037.6666666666665" y="963.3333333333334" type="curve" smooth="yes"/>
      <point x="1072.9999999999998" y="1216.6666666666667"/>
      <point x="893.0" y="1426.0"/>
      <point x="641.6666666666666" y="1426.0" type="curve" smooth="yes"/>
      <point x="392.0" y="1426.0"/>
      <point x="161.66666666666666" y="1222.0"/>
      <point x="126.33333333333333" y="972.6666666666666" type="curve" smooth="yes"/>
      <point x="79.0" y="632.6666666666666"/>
      <point x="410.6666666666667" y="417.0"/>
      <point x="722.6666666666666" y="567.3333333333334" type="curve"/>
    </contour>
    <contour>
      <point x="523.3333333333333" y="600.0" type="curve" smooth="yes"/>
      <point x="323.0" y="600.0"/>
      <point x="183.66666666666669" y="761.0"/>
      <point x="211.66666666666669" y="961.6666666666666" type="curve" smooth="yes"/>
      <point x="239.66666666666669" y="1160.0"/>
      <point x="421.33333333333337" y="1337.6666666666667"/>
      <point x="639.0" y="1337.6666666666667" type="curve" smooth="yes"/>
      <point x="833.6666666666666" y="1337.6666666666667"/>
      <point x="979.6666666666667" y="1179.6666666666667"/>
      <point x="950.6666666666667" y="971.3333333333333" type="curve" smooth="yes"/>
      <point x="922.6666666666667" y="774.3333333333333"/>
      <point x="737.0" y="600.0"/>
    </contour>
  </outline>
</glyph>
<glyph name="colon" format="2">
  <advance width="316.25"/>
  <unicode hex="003A"/>
  <outline>
    <contour>
      <point x="196.33333333333334" y="883.6666666666666" type="curve" smooth="yes"/>
      <point x="226.33333333333334" y="883.6666666666666"/>
      <point x="253.33333333333334" y="906.6666666666666"/>
      <point x="258.0" y="938.0" type="curve" smooth="yes"/>
      <point x="262.33333333333337" y="971.3333333333334"/>
      <point x="238.33333333333334" y="1000.0"/>
      <point x="202.66666666666669" y="1000.0" type="curve" smooth="yes"/>
      <point x="174.00000000000003" y="1000.0"/>
      <point x="147.33333333333334" y="976.6666666666666"/>
      <point x="143.33333333333334" y="947.6666666666666" type="curve" smooth="yes"/>
      <point x="138.33333333333334" y="912.3333333333333"/>
      <point x="162.00000000000003" y="883.6666666666666"/>
    </contour>
    <contour>
      <point x="68.00000000000001" y="-26.0" type="curve" smooth="yes"/>
      <point x="99.00000000000001" y="-26.0"/>
      <point x="126.00000000000001" y="-2.999999999999999"/>
      <point x="130.0" y="28.333333333333332" type="curve" smooth="yes"/>
      <point x="135.0" y="61.66666666666668"/>
      <point x="110.00000000000001" y="90.33333333333334"/>
      <point x="74.33333333333334" y="90.33333333333334" type="curve" smooth="yes"/>
      <point x="45.66666666666667" y="90.33333333333334"/>
      <point x="19.0" y="67.00000000000001"/>
      <point x="15.0" y="37.666666666666664" type="curve" smooth="yes"/>
      <point x="10.0" y="2.666666666666668"/>
      <point x="34.66666666666667" y="-26.0"/>
    </contour>
  </outline>
</glyph>
<glyph name="semicolon" format="2">
  <advance width="362.5"/>
  <unicode hex="003B"/>
  <outline>
    <contour>
      <point x="-6.0" y="-112.0" type="line"/>
      <point x="54.333333333333336" y="-112.0" type="line"/>
      <point x="194.33333333333334" y="226.0" type="line"/>
      <point x="103.0" y="226.0" type="line"/>
    </contour>
    <contour>
      <point x="244.33333333333334" y="883.6666666666666" type="curve" smooth="yes"/>
      <point x="272.6666666666667" y="883.6666666666666"/>
      <point x="299.6666666666667" y="906.6666666666666"/>
      <point x="303.6666666666667" y="936.3333333333334" type="curve" smooth="yes"/>
      <point x="308.6666666666667" y="971.3333333333334"/>
      <point x="284.6666666666667" y="1000.0"/>
      <point x="250.66666666666669" y="1000.0" type="curve" smooth="yes"/>
      <point x="220.0" y="1000.0"/>
      <point x="193.66666666666666" y="976.6666666666666"/>
      <point x="188.66666666666666" y="945.6666666666666" type="curve" smooth="yes"/>
      <point x="184.66666666666666" y="912.3333333333333"/>
      <point x="208.0" y="883.6666666666666"/>
    </contour>
  </outline>
</glyph>
<glyph name="less" format="2">
  <advance width="1160.0"/>
  <unicode hex="003C"/>
  <outline>
    <contour>
      <point x="1044.3333333333333" y="242.66666666666666" type="line"/>
      <point x="1056.6666666666667" y="335.6666666666667" type="line"/>
      <point x="168.0" y="600.0" type="line"/>
      <point x="1131.3333333333333" y="862.6666666666666" type="line"/>
      <point x="1144.6666666666667" y="957.6666666666666" type="line"/>
      <point x="103.66666666666667" y="671.6666666666666" type="line"/>
      <point x="83.66666666666667" y="526.6666666666666" type="line"/>
    </contour>
  </outline>
</glyph>
<glyph name="equal" format="2">
  <advance width="1160.0"/>
  <unicode hex="003D"/>
  <outline>
    <contour>
      <point x="60.333333333333336" y="359.3333333333333" type="line"/>
      <point x="1060.3333333333333" y="359.3333333333333" type="line"/>
      <point x="1072.6666666666667" y="449.3333333333333" type="line"/>
      <point x="72.66666666666667" y="449.3333333333333" type="line"/>
    </contour>
    <contour>
      <point x="115.33333333333333" y="750.6666666666666" type="line"/>
      <point x="1115.3333333333333" y="750.6666666666666" type="line"/>
      <point x="1127.6666666666667" y="840.6666666666666" type="line"/>
      <point x="127.66666666666667" y="840.6666666666666" type="line"/>
    </contour>
  </outline>
</glyph>
<glyph name="greater" format="2">
  <advance width="1160.0"/>
  <unicode hex="003E"/>
  <outline>
    <contour>
      <point x="44.666666666666664" y="244.0" type="line"/>
      <point x="1083.6666666666667" y="526.6666666666666" type="line"/>
      <point x="1103.6666666666667" y="671.6666666666666" type="line"/>
      <point x="144.33333333333334" y="956.0" type="line"/>
      <point x="131.0" y="861.0" type="line"/>
      <point x="1020.0" y="600.0" type="line"/>
      <point x="57.0" y="337.3333333333333" type="line"/>
    </contour>
  </outline>
</glyph>
<glyph name="question" format="2">
  <advance width="952.25"/>
  <unicode hex="003F"/>
  <outline>
    <contour>
      <point x="425.3333333333333" y="509.6666666666667" type="curve"/>
      <point x="515.0" y="504.0" type="line"/>
      <point x="527.3333333333334" y="593.6666666666667"/>
      <point x="588.3333333333334" y="674.0"/>
      <point x="674.6666666666667" y="714.6666666666666" type="curve" smooth="yes"/>
      <point x="801.3333333333334" y="780.6666666666666"/>
      <point x="889.3333333333334" y="906.6666666666667"/>
      <point x="909.0" y="1046.3333333333333" type="curve" smooth="yes"/>
      <point x="938.3333333333334" y="1256.3333333333333"/>
      <point x="791.6666666666666" y="1427.6666666666667"/>
      <point x="580.6666666666666" y="1427.6666666666667" type="curve" smooth="yes"/>
      <point x="376.99999999999994" y="1427.6666666666667"/>
      <point x="187.0" y="1261.6666666666667"/>
      <point x="158.0" y="1053.6666666666667" type="curve"/>
      <point x="247.0" y="1048.3333333333333" type="line"/>
      <point x="269.6666666666667" y="1207.6666666666667"/>
      <point x="418.0" y="1337.6666666666667"/>
      <point x="577.6666666666666" y="1337.6666666666667" type="curve" smooth="yes"/>
      <point x="733.6666666666666" y="1337.6666666666667"/>
      <point x="842.0" y="1213.3333333333335"/>
      <point x="820.3333333333334" y="1055.6666666666667" type="curve" smooth="yes"/>
      <point x="805.0" y="945.0"/>
      <point x="734.0" y="846.6666666666667"/>
      <point x="635.3333333333334" y="800.6666666666666" type="curve" smooth="yes"/>
      <point x="520.9999999999999" y="739.6666666666667"/>
      <point x="443.0" y="632.0"/>
    </contour>
    <contour>
      <point x="389.6666666666667" y="-26.0" type="curve" smooth="yes"/>
      <point x="420.6666666666667" y="-26.0"/>
      <point x="447.3333333333333" y="-1.3333333333333321"/>
      <point x="451.3333333333333" y="28.666666666666668" type="curve" smooth="yes"/>
      <point x="456.66666666666663" y="61.66666666666667"/>
      <point x="432.0" y="90.33333333333334"/>
      <point x="396.0" y="90.33333333333334" type="curve" smooth="yes"/>
      <point x="367.33333333333337" y="90.33333333333334"/>
      <point x="340.6666666666667" y="67.33333333333334"/>
      <point x="337.0" y="38.0" type="curve" smooth="yes"/>
      <point x="331.6666666666667" y="4.333333333333335"/>
      <point x="356.33333333333337" y="-26.0"/>
    </contour>
  </outline>
</glyph>
<glyph name="at" format="2">
  <advance width="1680.875"/>
  <unicode hex="0040"/>
  <outline>
    <contour>
      <point x="751.0" y="-154.66666666666669" type="curve"/>
      <point x="758.6666666666666" y="-64.66666666666666" type="line"/>
      <point x="388.6666666666667" y="-64.66666666666666"/>
      <point x="125.0" y="178.33333333333334"/>
      <point x="176.66666666666666" y="546.0" type="curve" smooth="yes"/>
      <point x="228.66666666666666" y="920.0"/>
      <point x="577.0" y="1221.0"/>
      <point x="947.3333333333334" y="1221.0" type="curve" smooth="yes"/>
      <point x="1314.0" y="1221.0"/>
      <point x="1570.6666666666667" y="923.6666666666666"/>
      <point x="1519.0" y="555.6666666666666" type="curve" smooth="yes"/>
      <point x="1494.6666666666667" y="388.33333333333337"/>
      <point x="1407.6666666666665" y="204.0"/>
      <point x="1272.0" y="204.0" type="curve" smooth="yes"/>
      <point x="1204.3333333333333" y="204.0"/>
      <point x="1141.0" y="257.3333333333333"/>
      <point x="1150.6666666666667" y="328.3333333333333" type="curve" smooth="yes"/>
      <point x="1234.0" y="921.6666666666666" type="line"/>
      <point x="1155.0" y="928.0" type="line"/>
      <point x="1133.6666666666667" y="783.3333333333333" type="line"/>
      <point x="1091.3333333333333" y="882.0"/>
      <point x="996.6666666666666" y="948.0"/>
      <point x="864.6666666666667" y="948.0" type="curve" smooth="yes"/>
      <point x="647.6666666666667" y="948.0"/>
      <point x="447.3333333333333" y="772.6666666666666"/>
      <point x="417.3333333333333" y="555.6666666666666" type="curve" smooth="yes"/>
      <point x="385.3333333333333" y="333.6666666666667"/>
      <point x="541.0" y="153.0"/>
      <point x="763.0" y="153.0" type="curve" smooth="yes"/>
      <point x="891.6666666666666" y="153.0"/>
      <point x="998.3333333333334" y="216.66666666666669"/>
      <point x="1068.6666666666667" y="318.3333333333333" type="curve"/>
      <point x="1054.6666666666665" y="203.33333333333331"/>
      <point x="1157.6666666666667" y="114.0"/>
      <point x="1271.6666666666667" y="114.0" type="curve" smooth="yes"/>
      <point x="1446.6666666666667" y="114.0"/>
      <point x="1579.3333333333333" y="347.66666666666663"/>
      <point x="1607.6666666666667" y="546.0" type="curve" smooth="yes"/>
      <point x="1666.0" y="965.3333333333334"/>
      <point x="1376.3333333333333" y="1311.0"/>
      <point x="950.3333333333334" y="1311.0" type="curve" smooth="yes"/>
      <point x="532.0000000000001" y="1311.0"/>
      <point x="146.33333333333334" y="973.0"/>
      <point x="88.0" y="555.6666666666666" type="curve" smooth="yes"/>
      <point x="29.0" y="135.0"/>
      <point x="331.66666666666663" y="-154.66666666666669"/>
    </contour>
    <contour>
      <point x="766.6666666666666" y="232.66666666666669" type="curve" smooth="yes"/>
      <point x="598.0" y="232.66666666666669"/>
      <point x="473.6666666666667" y="368.6666666666667"/>
      <point x="499.00000000000006" y="546.0" type="curve" smooth="yes"/>
      <point x="523.6666666666667" y="724.3333333333334"/>
      <point x="687.0" y="868.0"/>
      <point x="866.3333333333333" y="868.0" type="curve" smooth="yes"/>
      <point x="1053.6666666666667" y="868.0"/>
      <point x="1120.6666666666667" y="724.6666666666666"/>
      <point x="1099.0" y="571.3333333333333" type="curve" smooth="yes"/>
      <point x="1075.3333333333333" y="405.0"/>
      <point x="946.0" y="232.66666666666669"/>
    </contour>
  </outline>
</glyph>
<glyph name="A" format="2">
  <advance width="1302.25"/>
  <unicode hex="0041"/>
  <outline>
    <contour>
      <point x="715.6666666666666" y="1400.0" type="line"/>
      <point x="8.666666666666666" y="0.0" type="line"/>
      <point x="106.00000000000001" y="0.0" type="line"/>
      <point x="270.3333333333333" y="325.0" type="line"/>
      <point x="984.0" y="325.0" type="line"/>
      <point x="1056.6666666666667" y="0.0" type="line"/>
      <point x="1151.0" y="0.0" type="line"/>
      <point x="838.3333333333333" y="1400.0" type="line"/>
    </contour>
    <contour>
      <point x="315.6666666666667" y="415.0" type="line"/>
      <point x="765.0" y="1304.3333333333333" type="line"/>
      <point x="963.3333333333334" y="415.0" type="line"/>
    </contour>
  </outline>
</glyph>
<glyph name="B" format="2">
  <advance width="1087.0"/>
  <unicode hex="0042"/>
  <outline>
    <contour>
      <point x="50.0" y="0.0" type="line"/>
      <point x="571.0" y="0.0" type="line" smooth="yes"/>
      <point x="773.3333333333333" y="0.0"/>
      <point x="958.0" y="151.66666666666669"/>
      <point x="992.3333333333334" y="394.6666666666667" type="curve" smooth="yes"/>
      <point x="1015.0" y="555.6666666666666"/>
      <point x="949.0" y="729.6666666666666"/>
      <point x="795.3333333333333" y="773.0" type="curve"/>
      <point x="879.3333333333334" y="790.6666666666666"/>
      <point x="988.6666666666666" y="911.0"/>
      <point x="1007.6666666666666" y="1049.6666666666665" type="curve" smooth="yes"/>
      <point x="1039.6666666666665" y="1275.0"/>
      <point x="895.6666666666666" y="1398.3333333333333"/>
      <point x="699.0" y="1398.3333333333333" type="curve" smooth="yes"/>
      <point x="246.0" y="1398.3333333333333" type="line"/>
    </contour>
    <contour>
      <point x="151.33333333333334" y="84.33333333333334" type="line"/>
      <point x="242.0" y="725.6666666666666" type="line"/>
      <point x="669.0" y="725.6666666666666" type="line" smooth="yes"/>
      <point x="827.3333333333333" y="725.6666666666666"/>
      <point x="931.6666666666667" y="575.6666666666666"/>
      <point x="909.0" y="412.0" type="curve" smooth="yes"/>
      <point x="882.6666666666667" y="224.66666666666666"/>
      <point x="732.0" y="84.33333333333334"/>
      <point x="574.0" y="84.33333333333334" type="curve" smooth="yes"/>
    </contour>
    <contour>
      <point x="253.33333333333334" y="809.3333333333334" type="line"/>
      <point x="324.6666666666667" y="1313.6666666666667" type="line"/>
      <point x="686.6666666666667" y="1313.6666666666667" type="line" smooth="yes"/>
      <point x="835.0" y="1313.6666666666667"/>
      <point x="944.0" y="1233.6666666666667"/>
      <point x="919.0" y="1059.3333333333335" type="curve" smooth="yes"/>
      <point x="896.3333333333333" y="898.3333333333333"/>
      <point x="759.0" y="809.3333333333334"/>
      <point x="610.6666666666667" y="809.3333333333334" type="curve" smooth="yes"/>
    </contour>
  </outline>
</glyph>
<glyph name="C" format="2">
  <advance width="1398.0"/>
  <unicode hex="0043"/>
  <outline>
    <contour>
      <point x="678.6666666666666" y="-26.0" type="curve"/>
      <point x="902.6666666666666" y="-26.0"/>
      <point x="1115.3333333333333" y="84.66666666666666"/>
      <point x="1265.6666666666667" y="260.3333333333333" type="curve"/>
      <point x="1189.6666666666667" y="306.33333333333337" type="line"/>
      <point x="1065.0" y="163.00000000000003"/>
      <point x="877.0" y="64.0"/>
      <point x="681.6666666666666" y="64.0" type="curve"/>
      <point x="355.0" y="64.0"/>
      <point x="128.33333333333334" y="346.0"/>
      <point x="177.66666666666666" y="695.3333333333334" type="curve"/>
      <point x="225.66666666666666" y="1040.0"/>
      <point x="532.9999999999999" y="1336.0"/>
      <point x="870.6666666666666" y="1336.0" type="curve"/>
      <point x="1051.3333333333333" y="1336.0"/>
      <point x="1216.6666666666667" y="1243.6666666666667"/>
      <point x="1304.6666666666667" y="1095.3333333333335" type="curve"/>
      <point x="1386.6666666666667" y="1134.6666666666665" type="line"/>
      <point x="1284.3333333333333" y="1310.3333333333333"/>
      <point x="1101.3333333333333" y="1426.0"/>
      <point x="873.3333333333334" y="1426.0" type="curve"/>
      <point x="495.3333333333333" y="1426.0"/>
      <point x="145.0" y="1103.0"/>
      <point x="89.0" y="704.6666666666666" type="curve"/>
      <point x="32.0" y="301.0"/>
      <point x="296.6666666666667" y="-26.0"/>
    </contour>
  </outline>
</glyph>
<glyph name="D" format="2">
  <advance width="1342.25"/>
  <unicode hex="0044"/>
  <outline>
    <contour>
      <point x="50.0" y="0.0" type="line"/>
      <point x="514.0" y="0.0" type="line" smooth="yes"/>
      <point x="902.0" y="0.0"/>
      <point x="1256.0" y="311.3333333333333"/>
      <point x="1310.0" y="695.3333333333334" type="curve" smooth="yes"/>
      <point x="1364.0" y="1083.3333333333333"/>
      <point x="1094.0" y="1400.0"/>
      <point x="706.3333333333334" y="1400.0" type="curve" smooth="yes"/>
      <point x="246.0" y="1400.0" type="line"/>
    </contour>
    <contour>
      <point x="152.33333333333334" y="90.0" type="line"/>
      <point x="323.6666666666667" y="1310.0" type="line"/>
      <point x="699.0" y="1310.0" type="line" smooth="yes"/>
      <point x="1036.0000000000002" y="1310.0"/>
      <point x="1268.0" y="1040.0"/>
      <point x="1221.3333333333333" y="704.6666666666666" type="curve" smooth="yes"/>
      <point x="1173.6666666666665" y="365.33333333333337"/>
      <point x="860.3333333333333" y="90.0"/>
      <point x="521.6666666666667" y="90.0" type="curve" smooth="yes"/>
    </contour>
  </outline>
</glyph>
<glyph name="E" format="2">
  <advance width="1059.5"/>
  <unicode hex="0045"/>
  <outline>
    <contour>
      <point x="50.0" y="0.0" type="line"/>
      <point x="889.6666666666666" y="0.0" type="line"/>
      <point x="901.6666666666666" y="90.0" type="line"/>
      <point x="152.33333333333334" y="90.0" type="line"/>
      <point x="239.0" y="705.0" type="line"/>
      <point x="870.0" y="705.0" type="line"/>
      <point x="882.0" y="795.0" type="line"/>
      <point x="251.0" y="795.0" type="line"/>
      <point x="323.6666666666667" y="1310.0" type="line"/>
      <point x="1073.3333333333333" y="1310.0" type="line"/>
      <point x="1085.6666666666665" y="1400.0" type="line"/>
      <point x="246.0" y="1400.0" type="line"/>
    </contour>
  </outline>
</glyph>
<glyph name="F" format="2">
  <advance width="954.5"/>
  <unicode hex="0046"/>
  <outline>
    <contour>
      <point x="50.0" y="0.0" type="line"/>
      <point x="140.0" y="0.0" type="line"/>
      <point x="239.0" y="705.0" type="line"/>
      <point x="867.3333333333333" y="705.0" type="line"/>
      <point x="879.6666666666666" y="795.0" type="line"/>
      <point x="251.0" y="795.0" type="line"/>
      <point x="323.6666666666667" y="1310.0" type="line"/>
      <point x="1048.3333333333333" y="1310.0" type="line"/>
      <point x="1060.6666666666665" y="1400.0" type="line"/>
      <point x="246.0" y="1400.0" type="line"/>
    </contour>
  </outline>
</glyph>
<glyph name="G" format="2">
  <advance width="1496.125"/>
  <unicode hex="0047"/>
  <outline>
    <contour>
      <point x="680.6666666666666" y="-26.0" type="curve" smooth="yes"/>
      <point x="1043.0" y="-26.0"/>
      <point x="1386.0" y="275.66666666666663"/>
      <point x="1457.6666666666667" y="651.6666666666667" type="curve"/>
      <point x="917.6666666666666" y="654.3333333333334" type="line"/>
      <point x="906.0" y="569.3333333333334" type="line"/>
      <point x="1342.0" y="572.0" type="line"/>
      <point x="1251.3333333333335" y="291.6666666666667"/>
      <point x="976.6666666666666" y="64.0"/>
      <point x="683.6666666666667" y="64.0" type="curve" smooth="yes"/>
      <point x="355.0" y="64.0"/>
      <point x="129.0" y="348.6666666666667"/>
      <point x="177.66666666666666" y="694.6666666666666" type="curve" smooth="yes"/>
      <point x="226.0" y="1042.0"/>
      <point x="536.6666666666666" y="1336.0"/>
      <point x="872.6666666666666" y="1336.0" type="curve" smooth="yes"/>
      <point x="1047.9999999999998" y="1336.0"/>
      <point x="1211.0" y="1250.0"/>
      <point x="1304.6666666666667" y="1095.0" type="curve"/>
      <point x="1388.3333333333335" y="1136.0" type="line"/>
      <point x="1283.3333333333335" y="1313.6666666666665"/>
      <point x="1097.9999999999998" y="1425.6666666666667"/>
      <point x="875.6666666666666" y="1425.6666666666667" type="curve" smooth="yes"/>
      <point x="499.0" y="1425.6666666666667"/>
      <point x="145.66666666666666" y="1106.6666666666667"/>
      <point x="89.33333333333333" y="705.0" type="curve" smooth="yes"/>
      <point x="32.333333333333336" y="303.33333333333337"/>
      <point x="295.33333333333337" y="-26.0"/>
    </contour>
  </outline>
</glyph>
<glyph name="H" format="2">
  <advance width="1229.25"/>
  <unicode hex="0048"/>
  <outline>
    <contour>
      <point x="1145.3333333333335" y="1400.0" type="line"/>
      <point x="1060.3333333333335" y="795.0" type="line"/>
      <point x="251.0" y="795.0" type="line"/>
      <point x="336.0" y="1400.0" type="line"/>
      <point x="246.0" y="1400.0" type="line"/>
      <point x="50.0" y="0.0" type="line"/>
      <point x="140.0" y="0.0" type="line"/>
      <point x="239.0" y="705.0" type="line"/>
      <point x="1048.0000000000002" y="705.0" type="line"/>
      <point x="949.3333333333334" y="0.0" type="line"/>
      <point x="1039.3333333333333" y="0.0" type="line"/>
      <point x="1235.3333333333333" y="1400.0" type="line"/>
    </contour>
  </outline>
</glyph>
<glyph name="J" format="2">
  <advance width="762.5"/>
  <unicode hex="004A"/>
  <outline>
    <contour>
      <point x="204.66666666666669" y="-26.0" type="curve" smooth="yes"/>
      <point x="406.6666666666667" y="-26.0"/>
      <point x="594.0" y="153.66666666666669"/>
      <point x="622.0" y="355.6666666666667" type="curve" smooth="yes"/>
      <point x="768.6666666666666" y="1400.0" type="line"/>
      <point x="678.6666666666666" y="1400.0" type="line"/>
      <point x="533.3333333333333" y="361.33333333333337" type="line" smooth="yes"/>
      <point x="511.66666666666663" y="207.66666666666666"/>
      <point x="363.66666666666663" y="64.0"/>
      <point x="207.33333333333334" y="64.0" type="curve" smooth="yes"/>
      <point x="144.0" y="64.0"/>
      <point x="84.99999999999999" y="86.33333333333334"/>
      <point x="43.33333333333334" y="127.00000000000001" type="curve"/>
      <point x="-21.0" y="61.0" type="line"/>
      <point x="36.66666666666667" y="4.666666666666667"/>
      <point x="117.00000000000001" y="-26.0"/>
    </contour>
  </outline>
</glyph>
<glyph name="K" format="2">
  <advance width="1014.75"/>
  <unicode hex="004B"/>
  <outline>
    <contour>
      <point x="888.6666666666666" y="0.0" type="line"/>
      <point x="446.0" y="738.3333333333334" type="line"/>
      <point x="1095.9999999999998" y="1400.0" type="line"/>
      <point x="977.0" y="1400.0" type="line"/>
      <point x="228.33333333333334" y="635.3333333333334" type="line"/>
      <point x="336.0" y="1400.0" type="line"/>
      <point x="246.0" y="1400.0" type="line"/>
      <point x="50.0" y="0.0" type="line"/>
      <point x="140.0" y="0.0" type="line"/>
      <point x="210.66666666666666" y="494.6666666666667" type="line"/>
      <point x="378.66666666666663" y="667.0" type="line"/>
      <point x="774.6666666666667" y="0.0" type="line"/>
    </contour>
  </outline>
</glyph>
<glyph name="L" format="2">
  <advance width="982.5"/>
  <unicode hex="004C"/>
  <outline>
    <contour>
      <point x="50.0" y="0.0" type="line"/>
      <point x="812.6666666666666" y="0.0" type="line"/>
      <point x="824.6666666666666" y="90.0" type="line"/>
      <point x="152.33333333333334" y="90.0" type="line"/>
      <point x="336.0" y="1400.0" type="line"/>
      <point x="246.0" y="1400.0" type="line"/>
    </contour>
  </outline>
</glyph>
<glyph name="M" format="2">
  <advance width="1721.0"/>
  <unicode hex="004D"/>
  <outline>
    <contour>
      <point x="49.0" y="0.0" type="line"/>
      <point x="141.00000000000003" y="0.0" type="line"/>
      <point x="532.3333333333333" y="1169.0" type="line"/>
      <point x="781.3333333333333" y="120.66666666666666" type="line"/>
      <point x="833.6666666666666" y="120.66666666666666" type="line"/>
      <point x="1377.0" y="1169.0" type="line"/>
      <point x="1438.6666666666667" y="0.0" type="line"/>
      <point x="1530.0" y="0.0" type="line"/>
      <point x="1455.0" y="1400.0" type="line"/>
      <point x="1400.0" y="1400.0" type="line"/>
      <point x="831.3333333333333" y="306.33333333333337" type="line"/>
      <point x="570.6666666666666" y="1400.0" type="line"/>
      <point x="515.9999999999999" y="1400.0" type="line"/>
    </contour>
  </outline>
</glyph>
<glyph name="N" format="2">
  <advance width="1290.25"/>
  <unicode hex="004E"/>
  <outline>
    <contour>
      <point x="76.33333333333334" y="0.0" type="line"/>
      <point x="166.33333333333334" y="0.0" type="line"/>
      <point x="341.00000000000006" y="1237.6666666666667" type="line"/>
      <point x="978.0000000000001" y="0.0" type="line"/>
      <point x="1074.0" y="0.0" type="line"/>
      <point x="1270.0" y="1400.0" type="line"/>
      <point x="1180.0" y="1400.0" type="line"/>
      <point x="1005.3333333333334" y="162.33333333333334" type="line"/>
      <point x="370.0" y="1400.0" type="line"/>
      <point x="272.33333333333337" y="1400.0" type="line"/>
    </contour>
  </outline>
</glyph>
<glyph name="O" format="2">
  <advance width="1540.0"/>
  <unicode hex="004F"/>
  <outline>
    <contour>
      <point x="700.6666666666666" y="-26.0" type="curve" smooth="yes"/>
      <point x="1078.6666666666667" y="-26.0"/>
      <point x="1432.0" y="297.3333333333333"/>
      <point x="1487.6666666666667" y="695.3333333333334" type="curve" smooth="yes"/>
      <point x="1544.0" y="1097.3333333333333"/>
      <point x="1277.3333333333333" y="1426.0"/>
      <point x="895.3333333333334" y="1426.0" type="curve" smooth="yes"/>
      <point x="517.3333333333334" y="1426.0"/>
      <point x="165.0" y="1102.6666666666667"/>
      <point x="109.0" y="704.6666666666666" type="curve" smooth="yes"/>
      <point x="52.0" y="302.6666666666667"/>
      <point x="318.6666666666667" y="-26.0"/>
    </contour>
    <contour>
      <point x="703.6666666666666" y="64.0" type="curve" smooth="yes"/>
      <point x="375.0" y="64.0"/>
      <point x="148.33333333333334" y="347.6666666666667"/>
      <point x="197.66666666666666" y="695.3333333333334" type="curve" smooth="yes"/>
      <point x="245.66666666666666" y="1041.6666666666665"/>
      <point x="554.9999999999999" y="1336.0"/>
      <point x="892.6666666666666" y="1336.0" type="curve" smooth="yes"/>
      <point x="1221.0" y="1336.0"/>
      <point x="1447.6666666666667" y="1050.6666666666667"/>
      <point x="1399.0" y="704.6666666666666" type="curve" smooth="yes"/>
      <point x="1350.3333333333333" y="358.6666666666667"/>
      <point x="1041.0" y="64.0"/>
    </contour>
  </outline>
</glyph>
<glyph name="P" format="2">
  <advance width="1017.5"/>
  <unicode hex="0050"/>
  <outline>
    <contour>
      <point x="50.0" y="0.0" type="line"/>
      <point x="140.0" y="0.0" type="line"/>
      <point x="223.0" y="593.0" type="line"/>
      <point x="559.0" y="593.0" type="line" smooth="yes"/>
      <point x="774.0" y="593.0"/>
      <point x="974.6666666666666" y="763.0"/>
      <point x="1006.6666666666666" y="991.6666666666666" type="curve" smooth="yes"/>
      <point x="1038.9999999999998" y="1222.3333333333333"/>
      <point x="888.3333333333334" y="1400.0"/>
      <point x="667.0" y="1400.0" type="curve" smooth="yes"/>
      <point x="246.0" y="1400.0" type="line"/>
    </contour>
    <contour>
      <point x="235.33333333333334" y="683.0" type="line"/>
      <point x="324.6666666666667" y="1315.6666666666667" type="line"/>
      <point x="656.0" y="1315.6666666666667" type="line" smooth="yes"/>
      <point x="825.3333333333334" y="1315.6666666666667"/>
      <point x="943.6666666666666" y="1183.6666666666667"/>
      <point x="918.6666666666666" y="1004.0" type="curve" smooth="yes"/>
      <point x="892.6666666666666" y="820.3333333333333"/>
      <point x="731.3333333333334" y="683.0"/>
      <point x="562.0" y="683.0" type="curve" smooth="yes"/>
    </contour>
  </outline>
</glyph>
<glyph name="Q" format="2">
  <advance width="1543.75"/>
  <unicode hex="0051"/>
  <outline>
    <contour>
      <point x="1326.6666666666667" y="-15.333333333333334" type="line"/>
      <point x="1396.6666666666665" y="48.0" type="line"/>
      <point x="1246.0" y="219.66666666666669" type="line"/>
      <point x="1373.3333333333335" y="347.66666666666663"/>
      <point x="1460.0" y="513.6666666666666"/>
      <point x="1486.0" y="696.3333333333334" type="curve" smooth="yes"/>
      <point x="1542.3333333333333" y="1098.3333333333333"/>
      <point x="1277.3333333333333" y="1427.0"/>
      <point x="895.6666666666666" y="1427.0" type="curve" smooth="yes"/>
      <point x="515.6666666666666" y="1427.0"/>
      <point x="165.33333333333334" y="1103.6666666666667"/>
      <point x="109.33333333333333" y="705.6666666666666" type="curve" smooth="yes"/>
      <point x="52.333333333333336" y="303.6666666666667"/>
      <point x="317.3333333333333" y="-25.0"/>
      <point x="701.0" y="-25.0" type="curve" smooth="yes"/>
      <point x="872.0" y="-25.0"/>
      <point x="1039.6666666666667" y="41.66666666666667"/>
      <point x="1177.6666666666665" y="155.66666666666669" type="curve"/>
    </contour>
    <contour>
      <point x="703.6666666666666" y="65.0" type="curve" smooth="yes"/>
      <point x="377.0" y="65.0"/>
      <point x="148.33333333333334" y="348.66666666666663"/>
      <point x="198.0" y="696.3333333333334" type="curve" smooth="yes"/>
      <point x="246.0" y="1040.6666666666667"/>
      <point x="554.9999999999999" y="1337.0"/>
      <point x="892.6666666666666" y="1337.0" type="curve" smooth="yes"/>
      <point x="1217.6666666666667" y="1337.0"/>
      <point x="1446.0" y="1053.3333333333335"/>
      <point x="1397.6666666666665" y="705.6666666666666" type="curve" smooth="yes"/>
      <point x="1375.3333333333333" y="552.6666666666666"/>
      <point x="1301.6666666666667" y="404.6666666666667"/>
      <point x="1189.3333333333335" y="289.6666666666667" type="curve"/>
      <point x="979.6666666666666" y="531.6666666666666" type="line"/>
      <point x="909.0" y="466.6666666666667" type="line"/>
      <point x="1119.0" y="222.66666666666666" type="line"/>
      <point x="1000.9999999999999" y="123.66666666666667"/>
      <point x="848.0" y="65.0"/>
    </contour>
  </outline>
</glyph>
<glyph name="R" format="2">
  <advance width="1094.5"/>
  <unicode hex="0052"/>
  <outline>
    <contour>
      <point x="76.33333333333334" y="0.0" type="line"/>
      <point x="166.33333333333334" y="0.0" type="line"/>
      <point x="249.33333333333334" y="593.0" type="line"/>
      <point x="554.0" y="593.0" type="line"/>
      <point x="814.0" y="0.0" type="line"/>
      <point x="917.0" y="0.0" type="line"/>
      <point x="657.0" y="597.6666666666667" type="line"/>
      <point x="853.3333333333334" y="620.6666666666667"/>
      <point x="1025.3333333333335" y="780.6666666666667"/>
      <point x="1055.6666666666667" y="991.6666666666666" type="curve" smooth="yes"/>
      <point x="1087.6666666666667" y="1222.6666666666665"/>
      <point x="937.3333333333334" y="1400.0"/>
      <point x="716.0" y="1400.0" type="curve" smooth="yes"/>
      <point x="272.33333333333337" y="1400.0" type="line"/>
    </contour>
    <contour>
      <point x="261.6666666666667" y="683.0" type="line"/>
      <point x="351.00000000000006" y="1315.6666666666667" type="line"/>
      <point x="705.0" y="1315.6666666666667" type="line" smooth="yes"/>
      <point x="874.0" y="1315.6666666666667"/>
      <point x="992.3333333333334" y="1183.6666666666667"/>
      <point x="967.3333333333334" y="1004.0" type="curve" smooth="yes"/>
      <point x="941.3333333333334" y="820.3333333333333"/>
      <point x="780.0" y="683.0"/>
      <point x="611.0" y="683.0" type="curve" smooth="yes"/>
    </contour>
  </outline>
</glyph>
<glyph name="S" format="2">
  <advance width="1206.25"/>
  <unicode hex="0053"/>
  <outline>
    <contour>
      <point x="533.0" y="-26.0" type="curve" smooth="yes"/>
      <point x="794.3333333333333" y="-26.0"/>
      <point x="1044.0" y="121.0"/>
      <point x="1076.3333333333335" y="353.0" type="curve" smooth="yes"/>
      <point x="1109.0" y="585.0"/>
      <point x="889.3333333333334" y="697.6666666666666"/>
      <point x="631.6666666666667" y="743.6666666666666" type="curve" smooth="yes"/>
      <point x="409.0" y="787.3333333333333"/>
      <point x="245.66666666666669" y="830.0"/>
      <point x="273.6666666666667" y="1030.6666666666665" type="curve" smooth="yes"/>
      <point x="298.6666666666667" y="1208.6666666666665"/>
      <point x="507.0" y="1329.0"/>
      <point x="723.6666666666667" y="1328.6666666666667" type="curve" smooth="yes"/>
      <point x="896.6666666666666" y="1328.6666666666667"/>
      <point x="1075.3333333333333" y="1252.6666666666667"/>
      <point x="1106.6666666666667" y="1107.0" type="curve"/>
      <point x="1194.6666666666665" y="1131.6666666666667" type="line"/>
      <point x="1149.6666666666665" y="1315.6666666666667"/>
      <point x="940.0" y="1419.0"/>
      <point x="726.6666666666667" y="1419.0" type="curve" smooth="yes"/>
      <point x="467.66666666666663" y="1419.0"/>
      <point x="217.66666666666669" y="1272.0"/>
      <point x="185.00000000000003" y="1040.0" type="curve" smooth="yes"/>
      <point x="148.66666666666669" y="783.3333333333333"/>
      <point x="351.6666666666667" y="702.6666666666666"/>
      <point x="629.0" y="652.6666666666666" type="curve" smooth="yes"/>
      <point x="823.6666666666667" y="614.6666666666666"/>
      <point x="1013.6666666666666" y="542.6666666666666"/>
      <point x="988.0" y="362.6666666666667" type="curve" smooth="yes"/>
      <point x="962.6666666666666" y="182.33333333333334"/>
      <point x="751.3333333333334" y="64.0"/>
      <point x="535.6666666666667" y="64.0" type="curve" smooth="yes"/>
      <point x="363.0" y="64.0"/>
      <point x="184.33333333333334" y="140.66666666666669"/>
      <point x="153.0" y="286.0" type="curve"/>
      <point x="67.0" y="259.33333333333337" type="line"/>
      <point x="103.33333333333333" y="82.66666666666667"/>
      <point x="310.6666666666667" y="-26.0"/>
    </contour>
  </outline>
</glyph>
<glyph name="T" format="2">
  <advance width="1258.25"/>
  <unicode hex="0054"/>
  <outline>
    <contour>
      <point x="1304.3333333333333" y="1400.0" type="line"/>
      <point x="206.0" y="1400.0" type="line"/>
      <point x="193.66666666666666" y="1310.0" type="line"/>
      <point x="697.0" y="1310.0" type="line"/>
      <point x="513.3333333333334" y="0.0" type="line"/>
      <point x="603.3333333333334" y="0.0" type="line"/>
      <point x="787.0" y="1310.0" type="line"/>
      <point x="1292.0" y="1310.0" type="line"/>
    </contour>
  </outline>
</glyph>
<glyph name="U" format="2">
  <advance width="1309.75"/>
  <unicode hex="0055"/>
  <outline>
    <contour>
      <point x="585.6666666666666" y="-26.0" type="curve" smooth="yes"/>
      <point x="919.6666666666666" y="-26.0"/>
      <point x="1153.6666666666667" y="243.33333333333334"/>
      <point x="1201.6666666666667" y="581.3333333333334" type="curve" smooth="yes"/>
      <point x="1315.6666666666667" y="1400.0" type="line"/>
      <point x="1225.6666666666667" y="1400.0" type="line"/>
      <point x="1112.0" y="586.6666666666666" type="line" smooth="yes"/>
      <point x="1072.0" y="306.33333333333337"/>
      <point x="882.3333333333334" y="64.0"/>
      <point x="588.6666666666666" y="64.0" type="curve" smooth="yes"/>
      <point x="304.0" y="64.0"/>
      <point x="181.33333333333334" y="297.66666666666663"/>
      <point x="222.0" y="581.3333333333334" type="curve" smooth="yes"/>
      <point x="336.0" y="1400.0" type="line"/>
      <point x="246.0" y="1400.0" type="line"/>
      <point x="132.0" y="586.6666666666666" type="line" smooth="yes"/>
      <point x="85.0" y="248.66666666666666"/>
      <point x="247.66666666666666" y="-26.0"/>
    </contour>
  </outline>
</glyph>
<glyph name="V" format="2">
  <advance width="1158.75"/>
  <unicode hex="0056"/>
  <outline>
    <contour>
      <point x="458.3333333333333" y="0.0" type="line"/>
      <point x="559.3333333333334" y="0.0" type="line"/>
      <point x="1266.0" y="1400.0" type="line"/>
      <point x="1168.6666666666667" y="1400.0" type="line"/>
      <point x="524.3333333333333" y="123.66666666666667" type="line"/>
      <point x="241.66666666666669" y="1400.0" type="line"/>
      <point x="147.33333333333334" y="1400.0" type="line"/>
    </contour>
  </outline>
</glyph>
<glyph name="W" format="2">
  <advance width="1743.0"/>
  <unicode hex="0057"/>
  <outline>
    <contour>
      <point x="388.3333333333333" y="0.0" type="line"/>
      <point x="498.66666666666663" y="0.0" type="line"/>
      <point x="968.6666666666666" y="1184.6666666666667" type="line"/>
      <point x="1105.0" y="0.0" type="line"/>
      <point x="1217.3333333333333" y="0.0" type="line"/>
      <point x="1770.0" y="1400.0" type="line"/>
      <point x="1676.0" y="1400.0" type="line"/>
      <point x="1179.6666666666667" y="144.33333333333334" type="line"/>
      <point x="1035.6666666666665" y="1400.0" type="line"/>
      <point x="959.0" y="1400.0" type="line"/>
      <point x="462.6666666666667" y="144.33333333333334" type="line"/>
      <point x="319.0" y="1400.0" type="line"/>
      <point x="227.0" y="1400.0" type="line"/>
    </contour>
  </outline>
</glyph>
<glyph name="X" format="2">
  <advance width="1257.0"/>
  <unicode hex="0058"/>
  <outline>
    <contour>
      <point x="-11.333333333333334" y="0.0" type="line"/>
      <point x="103.33333333333333" y="0.0" type="line"/>
      <point x="648.6666666666666" y="626.6666666666666" type="line"/>
      <point x="1016.0000000000001" y="0.0" type="line"/>
      <point x="1125.6666666666667" y="0.0" type="line"/>
      <point x="714.0" y="704.0" type="line"/>
      <point x="1320.3333333333333" y="1402.0" type="line"/>
      <point x="1207.6666666666667" y="1402.0" type="line"/>
      <point x="665.6666666666666" y="779.6666666666666" type="line"/>
      <point x="300.6666666666667" y="1402.0" type="line"/>
      <point x="191.33333333333334" y="1402.0" type="line"/>
      <point x="602.6666666666666" y="704.0" type="line"/>
    </contour>
  </outline>
</glyph>
<glyph name="Y" format="2">
  <advance width="1143.5"/>
  <unicode hex="0059"/>
  <outline>
    <contour>
      <point x="1103.6666666666667" y="1400.0" type="line"/>
      <point x="602.6666666666666" y="733.6666666666666" type="line"/>
      <point x="291.0" y="1400.0" type="line"/>
      <point x="187.33333333333334" y="1400.0" type="line"/>
      <point x="547.0" y="635.3333333333334" type="line"/>
      <point x="456.66666666666663" y="0.0" type="line"/>
      <point x="546.6666666666666" y="0.0" type="line"/>
      <point x="637.0" y="635.3333333333334" type="line"/>
      <point x="1211.0" y="1400.0" type="line"/>
    </contour>
  </outline>
</glyph>
<glyph name="Z" format="2">
  <advance width="1372.0"/>
  <unicode hex="005A"/>
  <outline>
    <contour>
      <point x="50.0" y="0.0" type="line"/>
      <point x="1182.0" y="0.0" type="line"/>
      <point x="1194.3333333333333" y="90.0" type="line"/>
      <point x="182.66666666666666" y="90.0" type="line"/>
      <point x="1367.0" y="1310.0" type="line"/>
      <point x="1378.0" y="1400.0" type="line"/>
      <point x="246.0" y="1400.0" type="line"/>
      <point x="233.66666666666666" y="1310.0" type="line"/>
      <point x="1245.6666666666667" y="1310.0" type="line"/>
      <point x="62.0" y="90.0" type="line"/>
    </contour>
  </outline>
</glyph>
<glyph name="bracketleft" format="2">
  <advance width="489.5"/>
  <unicode hex="005B"/>
  <outline>
    <contour>
      <point x="315.6666666666667" y="-22.0" type="line"/>
      <point x="136.33333333333334" y="-22.0" type="line"/>
      <point x="323.6666666666667" y="1310.0" type="line"/>
      <point x="503.33333333333337" y="1310.0" type="line"/>
      <point x="515.6666666666667" y="1400.0" type="line"/>
      <point x="246.0" y="1400.0" type="line"/>
      <point x="34.0" y="-112.0" type="line"/>
      <point x="303.6666666666667" y="-112.0" type="line"/>
    </contour>
  </outline>
</glyph>
<glyph name="backslash" format="2">
  <advance width="655.75"/>
  <unicode hex="005C"/>
  <outline>
    <contour>
      <point x="400.0" y="-112.0" type="line"/>
      <point x="489.66666666666663" y="-112.0" type="line"/>
      <point x="295.6666666666667" y="1400.0" type="line"/>
      <point x="207.33333333333334" y="1400.0" type="line"/>
    </contour>
  </outline>
</glyph>
<glyph name="bracketright" format="2">
  <advance width="489.75"/>
  <unicode hex="005D"/>
  <outline>
    <contour>
      <point x="14.0" y="-112.0" type="line"/>
      <point x="283.6666666666667" y="-112.0" type="line"/>
      <point x="495.6666666666667" y="1400.0" type="line"/>
      <point x="226.0" y="1400.0" type="line"/>
      <point x="213.66666666666666" y="1310.0" type="line"/>
      <point x="393.6666666666667" y="1310.0" type="line"/>
      <point x="206.00000000000003" y="-22.0" type="line"/>
      <point x="26.333333333333336" y="-22.0" type="line"/>
    </contour>
  </outline>
</glyph>
<glyph name="asciicircum" format="2">
  <advance width="702.0"/>
  <unicode hex="005E"/>
  <outline>
    <contour>
      <point x="149.66666666666666" y="1000.0" type="line"/>
      <point x="245.66666666666669" y="1000.0" type="line"/>
      <point x="490.6666666666667" y="1482.6666666666667" type="line"/>
      <point x="597.3333333333334" y="1000.0" type="line"/>
      <point x="691.6666666666666" y="1000.0" type="line"/>
      <point x="546.6666666666666" y="1650.0" type="line"/>
      <point x="476.6666666666667" y="1650.0" type="line"/>
    </contour>
  </outline>
</glyph>
<glyph name="underscore" format="2">
  <advance width="1240.0"/>
  <unicode hex="005F"/>
  <outline>
    <contour>
      <point x="46.333333333333336" y="-22.0" type="line"/>
      <point x="34.0" y="-112.0" type="line"/>
      <point x="1034.0" y="-112.0" type="line"/>
      <point x="1046.3333333333333" y="-22.0" type="line"/>
    </contour>
  </outline>
</glyph>
<glyph name="a" format="2">
  <advance width="1194.75"/>
  <unicode hex="0061"/>
  <outline>
    <contour>
      <point x="1054.6666666666665" y="1000.0" type="line"/>
      <point x="1023.6666666666666" y="783.0" type="line"/>
      <point x="973.3333333333334" y="928.3333333333334"/>
      <point x="851.3333333333334" y="1028.0"/>
      <point x="665.3333333333334" y="1028.0" type="curve"/>
      <point x="378.0" y="1028.0"/>
      <point x="111.0" y="794.6666666666666"/>
      <point x="70.33333333333333" y="504.6666666666667" type="curve"/>
      <point x="29.0" y="212.66666666666666"/>
      <point x="234.66666666666669" y="-26.0"/>
      <point x="526.6666666666666" y="-26.0" type="curve"/>
      <point x="708.0" y="-26.0"/>
      <point x="854.6666666666666" y="68.66666666666667"/>
      <point x="946.0" y="214.0" type="curve"/>
      <point x="914.6666666666666" y="0.0" type="line"/>
      <point x="1004.6666666666667" y="0.0" type="line"/>
      <point x="1144.6666666666667" y="1000.0" type="line"/>
    </contour>
    <contour>
      <point x="530.0" y="62.66666666666667" type="curve"/>
      <point x="298.6666666666667" y="62.66666666666667"/>
      <point x="126.33333333333334" y="251.66666666666666"/>
      <point x="160.66666666666669" y="495.3333333333333" type="curve"/>
      <point x="194.66666666666669" y="739.6666666666666"/>
      <point x="419.3333333333333" y="939.3333333333334"/>
      <point x="663.0" y="939.3333333333334" type="curve"/>
      <point x="898.0" y="939.3333333333334"/>
      <point x="1013.0" y="748.6666666666666"/>
      <point x="978.3333333333334" y="504.6666666666667" type="curve"/>
      <point x="944.3333333333334" y="262.6666666666667"/>
      <point x="774.0" y="62.66666666666667"/>
    </contour>
  </outline>
</glyph>
<glyph name="b" format="2">
  <advance width="1184.75"/>
  <unicode hex="0062"/>
  <outline>
    <contour>
      <point x="667.6666666666666" y="1028.0" type="curve"/>
      <point x="487.6666666666667" y="1028.0"/>
      <point x="340.33333333333337" y="933.3333333333333"/>
      <point x="249.0" y="788.0" type="curve"/>
      <point x="351.0" y="1500.0" type="line"/>
      <point x="261.0" y="1500.0" type="line"/>
      <point x="50.0" y="0.0" type="line"/>
      <point x="140.0" y="0.0" type="line"/>
      <point x="172.0" y="219.0" type="line"/>
      <point x="222.66666666666669" y="73.66666666666666"/>
      <point x="344.33333333333337" y="-26.0"/>
      <point x="529.3333333333333" y="-26.0" type="curve"/>
      <point x="817.6666666666666" y="-26.0"/>
      <point x="1083.6666666666667" y="207.33333333333334"/>
      <point x="1124.6666666666667" y="495.66666666666663" type="curve"/>
      <point x="1165.6666666666667" y="789.3333333333334"/>
      <point x="961.0" y="1028.0"/>
    </contour>
    <contour>
      <point x="531.3333333333334" y="62.66666666666667" type="curve"/>
      <point x="296.6666666666667" y="62.66666666666667"/>
      <point x="182.00000000000003" y="253.66666666666666"/>
      <point x="216.66666666666669" y="495.66666666666663" type="curve"/>
      <point x="250.33333333333334" y="737.6666666666666"/>
      <point x="421.0" y="939.6666666666666"/>
      <point x="664.6666666666666" y="939.6666666666666" type="curve"/>
      <point x="896.0" y="939.6666666666666"/>
      <point x="1068.6666666666667" y="750.3333333333333"/>
      <point x="1034.0" y="505.0" type="curve"/>
      <point x="1000.0000000000001" y="262.6666666666667"/>
      <point x="775.3333333333334" y="62.66666666666667"/>
    </contour>
  </outline>
</glyph>
<glyph name="c" format="2">
  <advance width="1018.25"/>
  <unicode hex="0063"/>
  <outline>
    <contour>
      <point x="838.3333333333334" y="228.0" type="line"/>
      <point x="753.0" y="133.0"/>
      <point x="625.0" y="64.0"/>
      <point x="493.6666666666667" y="64.0" type="curve"/>
      <point x="270.3333333333333" y="64.0"/>
      <point x="116.33333333333333" y="256.6666666666667"/>
      <point x="149.66666666666666" y="495.3333333333333" type="curve"/>
      <point x="182.66666666666666" y="734.6666666666667"/>
      <point x="392.33333333333337" y="938.0"/>
      <point x="626.6666666666666" y="938.0" type="curve"/>
      <point x="741.6666666666666" y="938.0"/>
      <point x="854.6666666666667" y="881.0"/>
      <point x="919.6666666666666" y="777.0" type="curve"/>
      <point x="1001.6666666666667" y="816.3333333333334" type="line"/>
      <point x="929.3333333333334" y="944.3333333333334"/>
      <point x="794.3333333333334" y="1028.0"/>
      <point x="629.3333333333334" y="1028.0" type="curve"/>
      <point x="356.0" y="1028.0"/>
      <point x="101.0" y="794.6666666666666"/>
      <point x="60.333333333333336" y="504.6666666666667" type="curve"/>
      <point x="19.0" y="212.66666666666666"/>
      <point x="212.66666666666666" y="-26.0"/>
      <point x="490.6666666666667" y="-26.0" type="curve"/>
      <point x="651.0" y="-26.0"/>
      <point x="806.6666666666666" y="54.333333333333336"/>
      <point x="914.6666666666667" y="182.0" type="curve"/>
    </contour>
  </outline>
</glyph>
<glyph name="d" format="2">
  <advance width="1208.5"/>
  <unicode hex="0064"/>
  <outline>
    <contour>
      <point x="1115.6666666666665" y="1500.0" type="line"/>
      <point x="1013.6666666666666" y="783.0" type="line"/>
      <point x="963.3333333333334" y="928.3333333333333"/>
      <point x="841.3333333333334" y="1027.6666666666667"/>
      <point x="655.3333333333334" y="1027.6666666666667" type="curve"/>
      <point x="368.0" y="1027.6666666666667"/>
      <point x="101.0" y="794.6666666666666"/>
      <point x="60.333333333333336" y="504.6666666666667" type="curve"/>
      <point x="19.0" y="212.66666666666666"/>
      <point x="224.66666666666666" y="-26.0"/>
      <point x="516.6666666666666" y="-26.0" type="curve"/>
      <point x="698.0" y="-26.0"/>
      <point x="844.6666666666666" y="68.66666666666667"/>
      <point x="935.6666666666666" y="213.66666666666666" type="curve"/>
      <point x="904.6666666666666" y="0.0" type="line"/>
      <point x="994.6666666666667" y="0.0" type="line"/>
      <point x="1205.6666666666667" y="1500.0" type="line"/>
    </contour>
    <contour>
      <point x="520.0" y="62.66666666666667" type="curve"/>
      <point x="288.6666666666667" y="62.66666666666667"/>
      <point x="116.0" y="251.66666666666669"/>
      <point x="150.66666666666666" y="495.3333333333333" type="curve"/>
      <point x="184.66666666666666" y="739.6666666666667"/>
      <point x="411.0" y="939.3333333333334"/>
      <point x="653.0" y="939.3333333333334" type="curve"/>
      <point x="888.0" y="939.3333333333334"/>
      <point x="1003.0" y="748.6666666666666"/>
      <point x="968.3333333333334" y="504.6666666666667" type="curve"/>
      <point x="934.3333333333334" y="262.33333333333337"/>
      <point x="764.0" y="62.66666666666667"/>
    </contour>
  </outline>
</glyph>
<glyph name="e" format="2">
  <advance width="1118.25"/>
  <unicode hex="0065"/>
  <outline>
    <contour>
      <point x="490.6666666666667" y="-26.0" type="curve" smooth="yes"/>
      <point x="688.6666666666666" y="-26.0"/>
      <point x="876.3333333333334" y="95.33333333333333"/>
      <point x="981.3333333333334" y="273.3333333333333" type="curve"/>
      <point x="892.0" y="298.6666666666667" type="line"/>
      <point x="796.3333333333333" y="153.00000000000003"/>
      <point x="652.3333333333334" y="64.0"/>
      <point x="493.6666666666667" y="64.0" type="curve" smooth="yes"/>
      <point x="283.6666666666667" y="64.33333333333334"/>
      <point x="135.66666666666666" y="231.0"/>
      <point x="146.33333333333334" y="458.66666666666663" type="curve"/>
      <point x="1052.0" y="458.66666666666663" type="line"/>
      <point x="1100.0" y="790.6666666666667"/>
      <point x="922.3333333333334" y="1028.0"/>
      <point x="629.3333333333334" y="1028.0" type="curve" smooth="yes"/>
      <point x="356.0" y="1028.0"/>
      <point x="101.0" y="794.6666666666666"/>
      <point x="60.333333333333336" y="505.0" type="curve" smooth="yes"/>
      <point x="19.0" y="212.66666666666666"/>
      <point x="212.66666666666666" y="-26.0"/>
    </contour>
    <contour>
      <point x="157.66666666666669" y="538.6666666666667" type="line"/>
      <point x="206.33333333333334" y="761.0"/>
      <point x="405.6666666666667" y="943.0"/>
      <point x="627.0" y="943.0" type="curve" smooth="yes"/>
      <point x="841.6666666666667" y="943.0"/>
      <point x="992.6666666666666" y="759.6666666666666"/>
      <point x="973.6666666666666" y="544.0" type="curve"/>
    </contour>
  </outline>
</glyph>
<glyph name="f" format="2">
  <advance width="637.75"/>
  <unicode hex="0066"/>
  <outline>
    <contour>
      <point x="400.6666666666667" y="1284.3333333333333" type="line"/>
      <point x="412.6666666666667" y="1366.0"/>
      <point x="490.0" y="1434.0"/>
      <point x="573.0" y="1434.0" type="curve"/>
      <point x="612.3333333333334" y="1434.0"/>
      <point x="648.0" y="1418.0"/>
      <point x="671.3333333333333" y="1389.3333333333333" type="curve"/>
      <point x="743.0" y="1450.6666666666667" type="line"/>
      <point x="703.6666666666666" y="1497.6666666666665"/>
      <point x="646.0" y="1524.0"/>
      <point x="581.0" y="1524.0" type="curve"/>
      <point x="449.6666666666667" y="1524.0"/>
      <point x="329.0" y="1418.3333333333333"/>
      <point x="311.0" y="1286.3333333333333" type="curve"/>
      <point x="271.0" y="1000.0" type="line"/>
      <point x="121.0" y="1000.0" type="line"/>
      <point x="107.66666666666667" y="910.0" type="line"/>
      <point x="257.6666666666667" y="910.0" type="line"/>
      <point x="130.0" y="0.0" type="line"/>
      <point x="220.0" y="0.0" type="line"/>
      <point x="347.6666666666667" y="910.0" type="line"/>
      <point x="661.6666666666666" y="910.0" type="line"/>
      <point x="675.0" y="1000.0" type="line"/>
      <point x="361.0" y="1000.0" type="line"/>
    </contour>
  </outline>
</glyph>
<glyph name="g" format="2">
  <advance width="1150.75"/>
  <unicode hex="0067"/>
  <outline>
    <contour>
      <point x="1010.6666666666666" y="1000.0" type="line"/>
      <point x="979.6666666666666" y="785.3333333333333" type="line"/>
      <point x="927.6666666666666" y="928.6666666666666"/>
      <point x="808.0" y="1027.6666666666667"/>
      <point x="632.6666666666667" y="1027.6666666666667" type="curve" smooth="yes"/>
      <point x="357.6666666666667" y="1027.6666666666667"/>
      <point x="101.0" y="794.6666666666666"/>
      <point x="60.333333333333336" y="504.6666666666667" type="curve" smooth="yes"/>
      <point x="19.0" y="212.66666666666666"/>
      <point x="214.33333333333334" y="-26.0"/>
      <point x="494.00000000000006" y="-26.0" type="curve" smooth="yes"/>
      <point x="664.6666666666666" y="-26.0"/>
      <point x="809.0" y="68.33333333333334"/>
      <point x="901.6666666666666" y="211.66666666666666" type="curve"/>
      <point x="864.6666666666666" y="-42.333333333333336" type="line" smooth="yes"/>
      <point x="837.6666666666666" y="-233.66666666666669"/>
      <point x="617.3333333333333" y="-409.6666666666667"/>
      <point x="417.6666666666667" y="-409.6666666666667" type="curve" smooth="yes"/>
      <point x="252.33333333333334" y="-409.6666666666667"/>
      <point x="96.00000000000001" y="-274.6666666666667"/>
      <point x="85.00000000000001" y="-106.0" type="curve"/>
      <point x="-1.9999999999999953" y="-138.66666666666666" type="line"/>
      <point x="22.666666666666657" y="-332.3333333333333"/>
      <point x="203.66666666666669" y="-500.0"/>
      <point x="415.00000000000006" y="-500.0" type="curve" smooth="yes"/>
      <point x="656.6666666666666" y="-500.0"/>
      <point x="920.0000000000001" y="-288.6666666666667"/>
      <point x="953.3333333333334" y="-47.666666666666664" type="curve" smooth="yes"/>
      <point x="1100.6666666666667" y="1000.0" type="line"/>
    </contour>
    <contour>
      <point x="496.99999999999994" y="62.66666666666667" type="curve" smooth="yes"/>
      <point x="274.6666666666667" y="62.66666666666667"/>
      <point x="116.0" y="253.33333333333334"/>
      <point x="150.66666666666666" y="495.3333333333333" type="curve" smooth="yes"/>
      <point x="184.66666666666666" y="739.6666666666667"/>
      <point x="397.0" y="939.3333333333334"/>
      <point x="630.3333333333333" y="939.3333333333334" type="curve" smooth="yes"/>
      <point x="856.6666666666666" y="939.3333333333334"/>
      <point x="970.6666666666666" y="741.6666666666666"/>
      <point x="936.6666666666666" y="504.6666666666667" type="curve" smooth="yes"/>
      <point x="903.6666666666666" y="269.33333333333337"/>
      <point x="732.3333333333334" y="62.66666666666667"/>
    </contour>
  </outline>
</glyph>
<glyph name="h" format="2">
  <advance width="1055.5"/>
  <unicode hex="0068"/>
  <outline>
    <contour>
      <point x="981.6666666666666" y="545.0" type="line"/>
      <point x="1014.0" y="801.6666666666667"/>
      <point x="868.0" y="1027.6666666666667"/>
      <point x="619.0" y="1027.6666666666667" type="curve"/>
      <point x="480.0" y="1027.6666666666667"/>
      <point x="349.6666666666667" y="953.6666666666666"/>
      <point x="253.33333333333334" y="815.6666666666666" type="curve"/>
      <point x="351.0" y="1500.0" type="line"/>
      <point x="261.0" y="1500.0" type="line"/>
      <point x="50.0" y="0.0" type="line"/>
      <point x="140.33333333333334" y="0.0" type="line"/>
      <point x="216.33333333333334" y="541.0" type="line"/>
      <point x="246.66666666666669" y="758.6666666666666"/>
      <point x="421.6666666666667" y="939.3333333333334"/>
      <point x="612.3333333333333" y="939.3333333333334" type="curve"/>
      <point x="796.6666666666666" y="939.3333333333334"/>
      <point x="923.0" y="764.3333333333333"/>
      <point x="891.6666666666666" y="546.6666666666666" type="curve"/>
      <point x="815.6666666666666" y="0.0" type="line"/>
      <point x="905.6666666666666" y="0.0" type="line"/>
    </contour>
  </outline>
</glyph>
<glyph name="i" format="2">
  <advance width="356.5"/>
  <unicode hex="0069"/>
  <outline>
    <contour>
      <point x="195.66666666666669" y="1000.0" type="line"/>
      <point x="55.66666666666667" y="0.0" type="line"/>
      <point x="145.66666666666669" y="0.0" type="line"/>
      <point x="285.6666666666667" y="1000.0" type="line"/>
    </contour>
    <contour>
      <point x="279.00000000000006" y="1187.6666666666667" type="curve"/>
      <point x="308.0" y="1187.6666666666667"/>
      <point x="337.00000000000006" y="1214.0"/>
      <point x="340.00000000000006" y="1240.0" type="curve"/>
      <point x="345.33333333333337" y="1273.3333333333333"/>
      <point x="319.0" y="1303.6666666666667"/>
      <point x="285.6666666666667" y="1303.6666666666667" type="curve"/>
      <point x="256.0" y="1303.6666666666667"/>
      <point x="229.33333333333334" y="1278.6666666666667"/>
      <point x="225.33333333333334" y="1249.6666666666667" type="curve"/>
      <point x="221.0" y="1219.6666666666667"/>
      <point x="245.0" y="1187.6666666666667"/>
    </contour>
  </outline>
</glyph>
<glyph name="j" format="2">
  <advance width="463.25"/>
  <unicode hex="006A"/>
  <outline>
    <contour>
      <point x="-221.0" y="-500.0" type="curve"/>
      <point x="9.547918011776346e-15" y="-500.0"/>
      <point x="180.99999999999997" y="-339.6666666666667"/>
      <point x="210.33333333333331" y="-135.66666666666666" type="curve"/>
      <point x="369.3333333333333" y="1000.0" type="line"/>
      <point x="279.3333333333333" y="1000.0" type="line"/>
      <point x="120.66666666666664" y="-130.33333333333334" type="line"/>
      <point x="98.66666666666664" y="-287.66666666666663"/>
      <point x="-45.00000000000001" y="-410.0"/>
      <point x="-207.66666666666666" y="-410.0" type="curve"/>
      <point x="-205.0" y="-410.0"/>
      <point x="-223.0" y="-500.0"/>
    </contour>
    <contour>
      <point x="356.00000000000006" y="1187.6666666666667" type="curve"/>
      <point x="384.6666666666667" y="1187.6666666666667"/>
      <point x="413.3333333333333" y="1210.6666666666667"/>
      <point x="417.0" y="1240.0" type="curve"/>
      <point x="422.3333333333333" y="1273.6666666666665"/>
      <point x="395.6666666666667" y="1303.6666666666667"/>
      <point x="362.6666666666667" y="1303.6666666666667" type="curve"/>
      <point x="332.99999999999994" y="1303.6666666666667"/>
      <point x="306.3333333333333" y="1279.0"/>
      <point x="302.3333333333333" y="1249.6666666666667" type="curve"/>
      <point x="297.3333333333333" y="1216.3333333333335"/>
      <point x="321.99999999999994" y="1187.6666666666667"/>
    </contour>
  </outline>
</glyph>
<glyph name="k" format="2">
  <advance width="965.75"/>
  <unicode hex="006B"/>
  <outline>
    <contour>
      <point x="801.6666666666666" y="0.0" type="line"/>
      <point x="539.6666666666666" y="600.3333333333334" type="line"/>
      <point x="934.0" y="1000.0" type="line"/>
      <point x="815.0" y="1000.0" type="line"/>
      <point x="220.66666666666669" y="393.33333333333337" type="line"/>
      <point x="377.33333333333337" y="1500.0" type="line"/>
      <point x="287.33333333333337" y="1500.0" type="line"/>
      <point x="76.33333333333334" y="0.0" type="line"/>
      <point x="166.33333333333334" y="0.0" type="line"/>
      <point x="202.66666666666669" y="252.66666666666666" type="line"/>
      <point x="471.0" y="526.0" type="line"/>
      <point x="700.3333333333334" y="0.0" type="line"/>
    </contour>
  </outline>
</glyph>
<glyph name="l" format="2">
  <advance width="382.5"/>
  <unicode hex="006C"/>
  <outline>
    <contour>
      <point x="76.33333333333334" y="1.6666666666666665" type="line"/>
      <point x="166.33333333333334" y="1.6666666666666665" type="line"/>
      <point x="377.33333333333337" y="1500.0" type="line"/>
      <point x="287.33333333333337" y="1500.0" type="line"/>
    </contour>
  </outline>
</glyph>
<glyph name="m" format="2">
  <advance width="1698.75"/>
  <unicode hex="006D"/>
  <outline>
    <contour>
      <point x="27.66666666666667" y="0.0" type="line"/>
      <point x="117.66666666666669" y="0.0" type="line"/>
      <point x="191.33333333333334" y="527.6666666666667" type="line" smooth="yes"/>
      <point x="221.00000000000003" y="740.6666666666667"/>
      <point x="372.3333333333333" y="935.0"/>
      <point x="553.3333333333333" y="935.0" type="curve" smooth="yes"/>
      <point x="744.3333333333334" y="935.0"/>
      <point x="841.6666666666667" y="763.6666666666666"/>
      <point x="811.3333333333334" y="550.6666666666666" type="curve" smooth="yes"/>
      <point x="734.3333333333334" y="0.0" type="line"/>
      <point x="824.3333333333334" y="0.0" type="line"/>
      <point x="901.0" y="545.0" type="line" smooth="yes"/>
      <point x="930.6666666666667" y="758.0"/>
      <point x="1080.9999999999998" y="935.0"/>
      <point x="1277.6666666666667" y="935.0" type="curve" smooth="yes"/>
      <point x="1468.6666666666665" y="935.0"/>
      <point x="1548.6666666666665" y="763.6666666666666"/>
      <point x="1518.0" y="550.6666666666666" type="curve" smooth="yes"/>
      <point x="1441.3333333333333" y="0.0" type="line"/>
      <point x="1531.3333333333333" y="0.0" type="line"/>
      <point x="1607.6666666666665" y="545.0" type="line" smooth="yes"/>
      <point x="1644.0" y="801.6666666666667"/>
      <point x="1532.6666666666667" y="1025.0"/>
      <point x="1280.3333333333335" y="1025.0" type="curve" smooth="yes"/>
      <point x="1107.0" y="1025.0"/>
      <point x="973.6666666666666" y="927.3333333333334"/>
      <point x="883.3333333333334" y="760.6666666666666" type="curve"/>
      <point x="842.3333333333334" y="919.0"/>
      <point x="740.0" y="1025.0"/>
      <point x="555.9999999999999" y="1025.0" type="curve" smooth="yes"/>
      <point x="411.33333333333337" y="1025.0"/>
      <point x="321.0" y="942.6666666666667"/>
      <point x="229.66666666666669" y="813.3333333333334" type="curve"/>
      <point x="257.6666666666667" y="1000.0" type="line"/>
      <point x="167.66666666666669" y="1000.0" type="line"/>
    </contour>
  </outline>
</glyph>
<glyph name="n" format="2">
  <advance width="1060.25"/>
  <unicode hex="006E"/>
  <outline>
    <contour>
      <point x="966.3333333333334" y="545.3333333333334" type="line"/>
      <point x="999.0" y="801.6666666666666"/>
      <point x="853.0" y="1028.0"/>
      <point x="604.0" y="1028.0" type="curve"/>
      <point x="464.0" y="1028.0"/>
      <point x="331.6666666666667" y="948.3333333333333"/>
      <point x="232.66666666666666" y="811.6666666666666" type="curve"/>
      <point x="260.0" y="1000.0" type="line"/>
      <point x="170.0" y="1000.0" type="line"/>
      <point x="30.0" y="0.0" type="line"/>
      <point x="120.0" y="0.0" type="line"/>
      <point x="196.0" y="541.3333333333334" type="line"/>
      <point x="226.33333333333334" y="758.6666666666666"/>
      <point x="404.0" y="939.6666666666666"/>
      <point x="594.6666666666666" y="939.6666666666666" type="curve"/>
      <point x="781.6666666666666" y="939.6666666666666"/>
      <point x="907.6666666666667" y="764.3333333333333"/>
      <point x="876.6666666666667" y="546.6666666666666" type="curve"/>
      <point x="800.3333333333334" y="0.0" type="line"/>
      <point x="890.3333333333334" y="0.0" type="line"/>
    </contour>
  </outline>
</glyph>
<glyph name="o" format="2">
  <advance width="1120.0"/>
  <unicode hex="006F"/>
  <outline>
    <contour>
      <point x="490.6666666666667" y="-26.0" type="curve" smooth="yes"/>
      <point x="764.6666666666666" y="-26.0"/>
      <point x="1019.0" y="207.33333333333334"/>
      <point x="1059.6666666666667" y="495.3333333333333" type="curve" smooth="yes"/>
      <point x="1101.0" y="789.3333333333334"/>
      <point x="908.0" y="1028.0"/>
      <point x="629.3333333333334" y="1028.0" type="curve" smooth="yes"/>
      <point x="356.0" y="1028.0"/>
      <point x="101.0" y="794.6666666666666"/>
      <point x="60.333333333333336" y="504.6666666666667" type="curve" smooth="yes"/>
      <point x="19.0" y="212.66666666666666"/>
      <point x="212.66666666666666" y="-26.0"/>
    </contour>
    <contour>
      <point x="493.6666666666667" y="64.0" type="curve" smooth="yes"/>
      <point x="273.0" y="64.0"/>
      <point x="115.33333333333333" y="253.66666666666669"/>
      <point x="149.66666666666666" y="495.3333333333333" type="curve" smooth="yes"/>
      <point x="182.66666666666666" y="733.0"/>
      <point x="391.0" y="938.0"/>
      <point x="626.6666666666666" y="938.0" type="curve" smooth="yes"/>
      <point x="854.0" y="938.0"/>
      <point x="1004.0" y="739.0"/>
      <point x="970.3333333333334" y="504.6666666666667" type="curve" smooth="yes"/>
      <point x="937.3333333333334" y="268.6666666666667"/>
      <point x="727.6666666666667" y="64.0"/>
    </contour>
  </outline>
</glyph>
<glyph name="p" format="2">
  <advance width="1204.5"/>
  <unicode hex="0070"/>
  <outline>
    <contour>
      <point x="69.0" y="-500.0" type="line"/>
      <point x="171.33333333333334" y="217.0" type="line"/>
      <point x="221.66666666666669" y="71.66666666666666"/>
      <point x="343.0" y="-28.0"/>
      <point x="529.3333333333333" y="-28.0" type="curve"/>
      <point x="816.6666666666666" y="-28.0"/>
      <point x="1083.3333333333335" y="205.33333333333334"/>
      <point x="1124.3333333333335" y="495.3333333333333" type="curve"/>
      <point x="1165.3333333333335" y="787.3333333333334"/>
      <point x="960.0" y="1026.0"/>
      <point x="667.6666666666666" y="1026.0" type="curve"/>
      <point x="486.66666666666663" y="1026.0"/>
      <point x="340.0" y="931.3333333333333"/>
      <point x="249.0" y="786.0" type="curve"/>
      <point x="280.0" y="1000.0" type="line"/>
      <point x="190.0" y="1000.0" type="line"/>
      <point x="-21.0" y="-500.0" type="line"/>
    </contour>
    <contour>
      <point x="664.6666666666666" y="937.6666666666666" type="curve"/>
      <point x="903.0" y="937.6666666666666"/>
      <point x="1067.6666666666667" y="743.0"/>
      <point x="1034.0" y="504.6666666666667" type="curve"/>
      <point x="999.3333333333334" y="255.33333333333334"/>
      <point x="768.3333333333334" y="60.66666666666667"/>
      <point x="531.3333333333334" y="60.66666666666667" type="curve"/>
      <point x="293.0" y="60.66666666666667"/>
      <point x="182.66666666666669" y="256.6666666666667"/>
      <point x="216.66666666666669" y="495.3333333333333" type="curve"/>
      <point x="250.33333333333334" y="741.0"/>
      <point x="424.33333333333337" y="937.6666666666666"/>
    </contour>
  </outline>
</glyph>
<glyph name="q" format="2">
  <advance width="1204.5"/>
  <unicode hex="0071"/>
  <outline>
    <contour>
      <point x="536.6666666666666" y="-28.0" type="curve"/>
      <point x="717.0" y="-28.0"/>
      <point x="864.3333333333333" y="66.66666666666666"/>
      <point x="955.6666666666666" y="212.0" type="curve"/>
      <point x="853.6666666666666" y="-500.0" type="line"/>
      <point x="943.6666666666667" y="-500.0" type="line"/>
      <point x="1154.6666666666667" y="1000.0" type="line"/>
      <point x="1064.6666666666665" y="1000.0" type="line"/>
      <point x="1032.3333333333333" y="781.0" type="line"/>
      <point x="982.0" y="926.3333333333333"/>
      <point x="860.6666666666667" y="1026.0"/>
      <point x="675.3333333333334" y="1026.0" type="curve"/>
      <point x="387.3333333333333" y="1026.0"/>
      <point x="121.0" y="792.6666666666666"/>
      <point x="80.33333333333333" y="504.6666666666667" type="curve"/>
      <point x="39.0" y="210.66666666666666"/>
      <point x="244.0" y="-28.0"/>
    </contour>
    <contour>
      <point x="673.0" y="937.6666666666666" type="curve"/>
      <point x="908.0" y="937.6666666666666"/>
      <point x="1022.6666666666666" y="746.6666666666666"/>
      <point x="988.0" y="504.6666666666667" type="curve"/>
      <point x="954.0" y="262.33333333333337"/>
      <point x="784.0" y="60.66666666666667"/>
      <point x="540.0" y="60.66666666666667" type="curve"/>
      <point x="308.3333333333333" y="60.66666666666667"/>
      <point x="136.0" y="249.66666666666669"/>
      <point x="170.66666666666666" y="495.3333333333333" type="curve"/>
      <point x="204.66666666666666" y="737.6666666666667"/>
      <point x="429.0" y="937.6666666666666"/>
    </contour>
  </outline>
</glyph>
<glyph name="r" format="2">
  <advance width="700.75"/>
  <unicode hex="0072"/>
  <outline>
    <contour>
      <point x="717.0" y="919.3333333333333" type="curve"/>
      <point x="740.0" y="1009.3333333333333" type="line"/>
      <point x="707.3333333333334" y="1021.3333333333333"/>
      <point x="669.3333333333334" y="1027.6666666666667"/>
      <point x="625.6666666666666" y="1027.6666666666667" type="curve" smooth="yes"/>
      <point x="485.6666666666667" y="1027.6666666666667"/>
      <point x="351.6666666666667" y="948.0"/>
      <point x="252.66666666666666" y="811.6666666666666" type="curve"/>
      <point x="280.0" y="999.6666666666666" type="line"/>
      <point x="190.0" y="999.6666666666666" type="line"/>
      <point x="50.0" y="0.0" type="line"/>
      <point x="140.33333333333334" y="0.0" type="line"/>
      <point x="216.33333333333334" y="541.0" type="line" smooth="yes"/>
      <point x="246.66666666666669" y="758.6666666666666"/>
      <point x="424.0" y="939.3333333333334"/>
      <point x="616.3333333333333" y="939.3333333333334" type="curve" smooth="yes"/>
      <point x="652.0" y="939.3333333333334"/>
      <point x="687.0" y="933.3333333333333"/>
    </contour>
  </outline>
</glyph>
<glyph name="s" format="2">
  <advance width="874.75"/>
  <unicode hex="0073"/>
  <outline>
    <contour>
      <point x="377.6666666666667" y="-19.666666666666668" type="curve" smooth="yes"/>
      <point x="564.6666666666667" y="-22.000000000000004"/>
      <point x="753.3333333333334" y="87.0"/>
      <point x="777.6666666666667" y="258.6666666666667" type="curve" smooth="yes"/>
      <point x="801.6666666666666" y="427.66666666666663"/>
      <point x="639.0" y="489.33333333333337"/>
      <point x="459.0" y="548.3333333333334" type="curve" smooth="yes"/>
      <point x="297.3333333333333" y="603.0"/>
      <point x="192.66666666666666" y="619.3333333333334"/>
      <point x="211.0" y="745.3333333333334" type="curve" smooth="yes"/>
      <point x="228.66666666666666" y="872.3333333333334"/>
      <point x="372.33333333333337" y="950.6666666666666"/>
      <point x="522.0000000000001" y="950.0" type="curve" smooth="yes"/>
      <point x="636.0" y="949.0"/>
      <point x="756.6666666666666" y="893.0"/>
      <point x="782.6666666666666" y="796.3333333333333" type="curve"/>
      <point x="861.6666666666666" y="835.0" type="line"/>
      <point x="824.6666666666666" y="951.3333333333334"/>
      <point x="687.6666666666667" y="1034.0"/>
      <point x="520.6666666666667" y="1034.0" type="curve" smooth="yes"/>
      <point x="333.66666666666663" y="1034.0"/>
      <point x="148.33333333333334" y="926.3333333333333"/>
      <point x="123.66666666666667" y="753.6666666666666" type="curve" smooth="yes"/>
      <point x="100.33333333333334" y="583.6666666666666"/>
      <point x="231.66666666666666" y="532.3333333333334"/>
      <point x="448.0" y="466.0" type="curve" smooth="yes"/>
      <point x="575.3333333333333" y="424.6666666666667"/>
      <point x="708.6666666666667" y="391.6666666666667"/>
      <point x="691.3333333333334" y="267.6666666666667" type="curve" smooth="yes"/>
      <point x="674.6666666666667" y="145.66666666666666"/>
      <point x="529.6666666666667" y="64.33333333333334"/>
      <point x="384.0" y="64.33333333333334" type="curve" smooth="yes"/>
      <point x="266.66666666666663" y="64.33333333333334"/>
      <point x="123.66666666666667" y="130.66666666666669"/>
      <point x="101.33333333333336" y="228.0" type="curve"/>
      <point x="18.333333333333332" y="198.66666666666666" type="line"/>
      <point x="46.00000000000001" y="77.33333333333334"/>
      <point x="206.66666666666669" y="-18.0"/>
    </contour>
  </outline>
</glyph>
<glyph name="t" format="2">
  <advance width="677.5"/>
  <unicode hex="0074"/>
  <outline>
    <contour>
      <point x="678.0" y="910.0" type="line"/>
      <point x="690.0" y="1000.0" type="line"/>
      <point x="429.0" y="1000.0" type="line"/>
      <point x="480.0" y="1375.3333333333333" type="line"/>
      <point x="390.0" y="1375.3333333333333" type="line"/>
      <point x="339.0" y="1000.0" type="line"/>
      <point x="142.66666666666669" y="1000.0" type="line"/>
      <point x="130.33333333333334" y="910.0" type="line"/>
      <point x="327.0" y="910.0" type="line"/>
      <point x="196.66666666666669" y="0.0" type="line"/>
      <point x="286.6666666666667" y="0.0" type="line"/>
      <point x="417.0" y="910.0" type="line"/>
    </contour>
  </outline>
</glyph>
<glyph name="u" format="2">
  <advance width="1100.25"/>
  <unicode hex="0075"/>
  <outline>
    <contour>
      <point x="114.0" y="456.6666666666667" type="line"/>
      <point x="82.0" y="200.0"/>
      <point x="228.33333333333334" y="-26.333333333333332"/>
      <point x="476.3333333333333" y="-26.333333333333332" type="curve"/>
      <point x="617.3333333333333" y="-26.333333333333332"/>
      <point x="749.6666666666666" y="53.666666666666664"/>
      <point x="847.6666666666667" y="190.0" type="curve"/>
      <point x="820.0" y="0.0" type="line"/>
      <point x="910.3333333333334" y="0.0" type="line"/>
      <point x="1050.3333333333335" y="1000.0" type="line"/>
      <point x="960.3333333333334" y="1000.0" type="line"/>
      <point x="884.3333333333334" y="460.6666666666667" type="line"/>
      <point x="854.0" y="243.0"/>
      <point x="676.0" y="62.66666666666667"/>
      <point x="485.6666666666667" y="62.66666666666667" type="curve"/>
      <point x="298.6666666666667" y="62.66666666666667"/>
      <point x="173.33333333333334" y="237.66666666666669"/>
      <point x="203.66666666666666" y="455.3333333333333" type="curve"/>
      <point x="280.0" y="1000.0" type="line"/>
      <point x="190.0" y="1000.0" type="line"/>
    </contour>
  </outline>
</glyph>
<glyph name="v" format="2">
  <advance width="963.0"/>
  <unicode hex="0076"/>
  <outline>
    <contour>
      <point x="467.6666666666667" y="0.0" type="line"/>
      <point x="974.3333333333334" y="1003.6666666666666" type="line"/>
      <point x="876.6666666666666" y="1003.6666666666666" type="line"/>
      <point x="424.6666666666667" y="107.66666666666667" type="line"/>
      <point x="225.66666666666666" y="1003.6666666666666" type="line"/>
      <point x="131.33333333333334" y="1003.6666666666666" type="line"/>
      <point x="356.0" y="0.0" type="line"/>
    </contour>
  </outline>
</glyph>
<glyph name="w" format="2">
  <advance width="1587.0"/>
  <unicode hex="0077"/>
  <outline>
    <contour>
      <point x="422.3333333333333" y="0.0" type="line"/>
      <point x="848.6666666666666" y="892.6666666666666" type="line"/>
      <point x="1023.6666666666666" y="0.0" type="line"/>
      <point x="1121.6666666666665" y="0.0" type="line"/>
      <point x="1598.3333333333333" y="1001.6666666666666" type="line"/>
      <point x="1507.6666666666667" y="1001.6666666666666" type="line"/>
      <point x="1086.3333333333333" y="117.66666666666667" type="line"/>
      <point x="914.6666666666666" y="1001.6666666666666" type="line"/>
      <point x="811.6666666666666" y="1001.6666666666666" type="line"/>
      <point x="390.6666666666667" y="117.66666666666667" type="line"/>
      <point x="217.33333333333334" y="1001.6666666666666" type="line"/>
      <point x="131.33333333333334" y="1001.6666666666666" type="line"/>
      <point x="326.0" y="0.0" type="line"/>
    </contour>
  </outline>
</glyph>
<glyph name="x" format="2">
  <advance width="1003.0"/>
  <unicode hex="0078"/>
  <outline>
    <contour>
      <point x="8.666666666666666" y="0.0" type="line"/>
      <point x="121.33333333333333" y="0.0" type="line"/>
      <point x="494.3333333333333" y="426.6666666666667" type="line"/>
      <point x="742.3333333333334" y="0.0" type="line"/>
      <point x="851.6666666666666" y="0.0" type="line"/>
      <point x="557.0" y="502.0" type="line"/>
      <point x="993.6666666666666" y="1003.6666666666666" type="line"/>
      <point x="881.0" y="1003.6666666666666" type="line"/>
      <point x="511.33333333333326" y="579.6666666666666" type="line"/>
      <point x="261.0" y="1003.6666666666666" type="line"/>
      <point x="151.66666666666669" y="1003.6666666666666" type="line"/>
      <point x="446.0" y="502.0" type="line"/>
    </contour>
  </outline>
</glyph>
<glyph name="y" format="2">
  <advance width="978.5"/>
  <unicode hex="0079"/>
  <outline>
    <contour>
      <point x="874.0" y="1000.0" type="line"/>
      <point x="429.66666666666663" y="124.66666666666667" type="line"/>
      <point x="248.66666666666669" y="1000.0" type="line"/>
      <point x="151.33333333333334" y="1000.0" type="line"/>
      <point x="368.3333333333333" y="1.6666666666666665" type="line"/>
      <point x="115.33333333333336" y="-500.0" type="line"/>
      <point x="212.6666666666667" y="-500.0" type="line"/>
      <point x="969.6666666666666" y="1000.0" type="line"/>
    </contour>
  </outline>
</glyph>
<glyph name="z" format="2">
  <advance width="1059.0"/>
  <unicode hex="007A"/>
  <outline>
    <contour>
      <point x="1014.6666666666666" y="910.0" type="line"/>
      <point x="1026.6666666666665" y="1000.0" type="line"/>
      <point x="172.66666666666669" y="1000.0" type="line"/>
      <point x="160.33333333333334" y="910.0" type="line"/>
      <point x="888.6666666666667" y="910.0" type="line"/>
      <point x="44.333333333333336" y="90.0" type="line"/>
      <point x="32.66666666666667" y="0.0" type="line"/>
      <point x="886.6666666666666" y="0.0" type="line"/>
      <point x="898.6666666666666" y="90.0" type="line"/>
      <point x="170.33333333333334" y="90.0" type="line"/>
    </contour>
  </outline>
</glyph>
<glyph name="braceleft" format="2">
  <advance width="795.0"/>
  <unicode hex="007B"/>
  <outline>
    <contour>
      <point x="553.0" y="-113.66666666666667" type="curve" smooth="yes"/>
      <point x="609.0" y="-113.66666666666667" type="line"/>
      <point x="621.3333333333334" y="-23.666666666666664" type="line"/>
      <point x="560.6666666666667" y="-23.666666666666664" type="line" smooth="yes"/>
      <point x="417.33333333333337" y="-23.666666666666664"/>
      <point x="319.66666666666663" y="90.0"/>
      <point x="340.0" y="233.66666666666669" type="curve" smooth="yes"/>
      <point x="374.3333333333333" y="482.66666666666663" type="line" smooth="yes"/>
      <point x="382.66666666666663" y="565.6666666666666"/>
      <point x="355.3333333333333" y="573.3333333333334"/>
      <point x="264.33333333333337" y="638.3333333333334" type="curve" smooth="yes"/>
      <point x="373.0" y="705.0"/>
      <point x="403.66666666666663" y="715.3333333333334"/>
      <point x="419.0" y="798.3333333333334" type="curve" smooth="yes"/>
      <point x="454.0" y="1047.3333333333333" type="line" smooth="yes"/>
      <point x="474.66666666666663" y="1190.6666666666667"/>
      <point x="612.0000000000001" y="1310.0"/>
      <point x="754.0" y="1310.0" type="curve" smooth="yes"/>
      <point x="808.6666666666666" y="1310.0" type="line"/>
      <point x="821.0" y="1400.0" type="line"/>
      <point x="761.3333333333334" y="1400.0" type="line" smooth="yes"/>
      <point x="567.3333333333333" y="1400.0"/>
      <point x="392.3333333333333" y="1244.6666666666667"/>
      <point x="365.3333333333333" y="1052.6666666666667" type="curve" smooth="yes"/>
      <point x="330.3333333333333" y="806.6666666666666" type="line" smooth="yes"/>
      <point x="312.0" y="712.6666666666666"/>
      <point x="153.0" y="735.0"/>
      <point x="140.33333333333334" y="647.0" type="curve" smooth="yes"/>
      <point x="128.33333333333334" y="561.0"/>
      <point x="293.6666666666667" y="580.3333333333333"/>
      <point x="285.3333333333333" y="484.6666666666667" type="curve" smooth="yes"/>
      <point x="250.33333333333331" y="239.0" type="line" smooth="yes"/>
      <point x="223.33333333333331" y="46.666666666666664"/>
      <point x="359.0" y="-113.66666666666667"/>
    </contour>
  </outline>
</glyph>
<glyph name="braceright" format="2">
  <advance width="795.0"/>
  <unicode hex="007D"/>
  <outline>
    <contour>
      <point x="14.0" y="-113.66666666666667" type="line"/>
      <point x="73.66666666666666" y="-113.66666666666667" type="line" smooth="yes"/>
      <point x="267.6666666666667" y="-113.66666666666667"/>
      <point x="443.6666666666667" y="41.333333333333336"/>
      <point x="470.6666666666667" y="233.66666666666669" type="curve" smooth="yes"/>
      <point x="504.6666666666667" y="479.3333333333333" type="line" smooth="yes"/>
      <point x="523.3333333333334" y="574.6666666666666"/>
      <point x="683.0" y="555.6666666666667"/>
      <point x="694.0" y="637.6666666666667" type="curve" smooth="yes"/>
      <point x="707.6666666666666" y="729.6666666666667"/>
      <point x="541.6666666666666" y="707.0"/>
      <point x="549.6666666666667" y="801.3333333333334" type="curve" smooth="yes"/>
      <point x="584.6666666666667" y="1047.3333333333333" type="line" smooth="yes"/>
      <point x="611.6666666666667" y="1239.3333333333333"/>
      <point x="476.0" y="1400.0"/>
      <point x="281.99999999999994" y="1400.0" type="curve" smooth="yes"/>
      <point x="226.0" y="1400.0" type="line"/>
      <point x="213.66666666666666" y="1310.0" type="line"/>
      <point x="274.3333333333333" y="1310.0" type="line" smooth="yes"/>
      <point x="416.0" y="1310.0"/>
      <point x="515.6666666666667" y="1196.3333333333335"/>
      <point x="495.6666666666667" y="1052.6666666666667" type="curve" smooth="yes"/>
      <point x="460.6666666666667" y="803.6666666666666" type="line"/>
      <point x="453.0" y="720.6666666666666"/>
      <point x="483.33333333333337" y="708.6666666666666"/>
      <point x="571.0" y="646.0" type="curve" smooth="yes"/>
      <point x="458.6666666666667" y="577.0"/>
      <point x="431.6666666666667" y="571.3333333333333"/>
      <point x="416.0" y="488.0" type="curve"/>
      <point x="381.0" y="239.0" type="line" smooth="yes"/>
      <point x="361.0" y="95.66666666666667"/>
      <point x="224.66666666666666" y="-23.666666666666664"/>
      <point x="81.33333333333333" y="-23.666666666666664" type="curve" smooth="yes"/>
      <point x="26.333333333333336" y="-23.666666666666664" type="line"/>
    </contour>
  </outline>
</glyph>
<glyph name="asciitilde" format="2">
  <advance width="1184.5"/>
  <unicode hex="007E"/>
  <outline>
    <contour>
      <point x="861.3333333333333" y="435.6666666666667" type="curve" smooth="yes"/>
      <point x="1011.0" y="435.6666666666667"/>
      <point x="1149.0" y="574.3333333333334"/>
      <point x="1127.3333333333333" y="729.0" type="curve"/>
      <point x="1039.6666666666667" y="720.0" type="line"/>
      <point x="1051.6666666666667" y="621.0"/>
      <point x="960.0" y="524.0"/>
      <point x="854.6666666666666" y="524.0" type="curve" smooth="yes"/>
      <point x="707.0" y="524.0"/>
      <point x="513.6666666666666" y="764.3333333333334"/>
      <point x="354.66666666666663" y="764.3333333333334" type="curve" smooth="yes"/>
      <point x="198.0" y="764.3333333333334"/>
      <point x="64.33333333333334" y="613.0"/>
      <point x="84.0" y="468.6666666666667" type="curve"/>
      <point x="172.00000000000003" y="474.3333333333333" type="line"/>
      <point x="161.33333333333334" y="577.6666666666667"/>
      <point x="251.0" y="677.0"/>
      <point x="354.6666666666667" y="675.0" type="curve" smooth="yes"/>
      <point x="484.6666666666667" y="677.0"/>
      <point x="693.6666666666666" y="435.6666666666667"/>
    </contour>
  </outline>
</glyph>
<glyph name="exclamdown" format="2">
  <advance width="281.0"/>
  <unicode hex="00A1"/>
  <outline>
    <contour>
      <point x="206.33333333333334" y="1026.0" type="curve"/>
      <point x="177.00000000000003" y="1026.0"/>
      <point x="150.33333333333334" y="1003.0"/>
      <point x="146.33333333333334" y="971.6666666666666" type="curve"/>
      <point x="141.33333333333334" y="938.3333333333333"/>
      <point x="166.00000000000003" y="909.6666666666666"/>
      <point x="200.0" y="909.6666666666666" type="curve"/>
      <point x="230.33333333333334" y="909.6666666666666"/>
      <point x="257.0" y="932.6666666666666"/>
      <point x="261.0" y="962.0" type="curve"/>
      <point x="266.0" y="997.6666666666667"/>
      <point x="241.66666666666669" y="1026.0"/>
    </contour>
    <contour>
      <point x="190.0" y="580.0" type="line"/>
      <point x="106.33333333333333" y="580.0" type="line"/>
      <point x="-30.66666666666667" y="-400.0" type="line"/>
      <point x="53.0" y="-400.0" type="line"/>
    </contour>
  </outline>
</glyph>
<glyph name="cent" format="2">
  <advance width="1092.0"/>
  <unicode hex="00A2"/>
  <outline>
    <contour>
      <point x="469.66666666666663" y="0.0" type="line"/>
      <point x="547.3333333333334" y="0.0" type="line"/>
      <point x="578.0" y="200.66666666666666" type="line"/>
      <point x="745.6666666666666" y="211.33333333333331"/>
      <point x="903.0" y="302.6666666666667"/>
      <point x="1004.3333333333334" y="438.3333333333333" type="curve"/>
      <point x="930.6666666666666" y="486.6666666666667" type="line"/>
      <point x="841.0" y="367.6666666666667"/>
      <point x="689.0" y="288.0"/>
      <point x="547.6666666666666" y="288.0" type="curve" smooth="yes"/>
      <point x="327.3333333333333" y="288.0"/>
      <point x="165.33333333333334" y="466.66666666666663"/>
      <point x="197.66666666666666" y="697.3333333333334" type="curve" smooth="yes"/>
      <point x="229.66666666666666" y="926.6666666666667"/>
      <point x="445.0" y="1114.0"/>
      <point x="673.6666666666666" y="1114.0" type="curve" smooth="yes"/>
      <point x="810.3333333333333" y="1114.0"/>
      <point x="938.0" y="1037.6666666666667"/>
      <point x="994.6666666666666" y="918.6666666666666" type="curve"/>
      <point x="1075.6666666666667" y="960.3333333333334" type="line"/>
      <point x="1011.6666666666666" y="1095.6666666666667"/>
      <point x="878.0" y="1190.3333333333335"/>
      <point x="713.3333333333334" y="1200.6666666666667" type="curve"/>
      <point x="744.3333333333334" y="1400.0" type="line"/>
      <point x="665.6666666666666" y="1400.0" type="line"/>
      <point x="636.0" y="1201.3333333333333" type="line"/>
      <point x="374.6666666666667" y="1179.6666666666667"/>
      <point x="145.66666666666666" y="967.6666666666666"/>
      <point x="109.33333333333333" y="706.6666666666666" type="curve" smooth="yes"/>
      <point x="71.66666666666667" y="441.6666666666667"/>
      <point x="245.66666666666666" y="223.0"/>
      <point x="500.66666666666663" y="201.33333333333334" type="curve"/>
    </contour>
  </outline>
</glyph>
<glyph name="sterling" format="2">
  <advance width="1144.0"/>
  <unicode hex="00A3"/>
  <outline>
    <contour>
      <point x="34.0" y="0.0" type="line"/>
      <point x="990.6666666666667" y="0.0" type="line"/>
      <point x="1003.0000000000001" y="90.0" type="line"/>
      <point x="282.33333333333337" y="88.0" type="line"/>
      <point x="364.0" y="121.0"/>
      <point x="455.6666666666667" y="208.66666666666669"/>
      <point x="469.0" y="304.6666666666667" type="curve" smooth="yes"/>
      <point x="521.0" y="668.6666666666666"/>
      <point x="179.33333333333334" y="567.6666666666666"/>
      <point x="230.0" y="930.3333333333334" type="curve" smooth="yes"/>
      <point x="261.3333333333333" y="1152.6666666666665"/>
      <point x="470.33333333333337" y="1336.0"/>
      <point x="693.6666666666666" y="1336.0" type="curve" smooth="yes"/>
      <point x="913.0" y="1336.0"/>
      <point x="1066.6666666666667" y="1158.0"/>
      <point x="1035.3333333333333" y="937.6666666666666" type="curve"/>
      <point x="1125.0" y="932.3333333333334" type="line"/>
      <point x="1162.6666666666667" y="1203.0"/>
      <point x="970.6666666666666" y="1426.0"/>
      <point x="696.3333333333334" y="1426.0" type="curve" smooth="yes"/>
      <point x="427.6666666666667" y="1426.0"/>
      <point x="179.66666666666666" y="1208.3333333333335"/>
      <point x="141.66666666666666" y="939.6666666666666" type="curve" smooth="yes"/>
      <point x="90.33333333333333" y="573.0"/>
      <point x="416.6666666666667" y="628.0"/>
      <point x="381.66666666666663" y="326.0" type="curve" smooth="yes"/>
      <point x="369.6666666666667" y="184.66666666666666"/>
      <point x="206.33333333333334" y="90.0"/>
      <point x="43.666666666666664" y="90.0" type="curve"/>
    </contour>
    <contour>
      <point x="97.0" y="451.0" type="line"/>
      <point x="838.3333333333333" y="451.0" type="line"/>
      <point x="849.6666666666666" y="528.6666666666666" type="line"/>
      <point x="108.33333333333333" y="528.6666666666666" type="line"/>
    </contour>
  </outline>
</glyph>
<glyph name="currency" format="2">
  <advance width="962.5"/>
  <unicode hex="00A4"/>
  <outline>
    <contour>
      <point x="107.99999999999999" y="298.0" type="line"/>
      <point x="248.0" y="422.3333333333333" type="line"/>
      <point x="364.6666666666667" y="313.0"/>
      <point x="549.3333333333334" y="308.6666666666667"/>
      <point x="697.3333333333334" y="417.6666666666667" type="curve"/>
      <point x="802.0" y="298.0" type="line"/>
      <point x="861.6666666666666" y="352.3333333333333" type="line"/>
      <point x="760.3333333333334" y="471.66666666666663" type="line"/>
      <point x="884.6666666666666" y="602.3333333333334"/>
      <point x="908.6666666666666" y="792.3333333333334"/>
      <point x="819.0" y="923.0" type="curve"/>
      <point x="959.6666666666666" y="1048.0" type="line"/>
      <point x="911.6666666666667" y="1102.0" type="line"/>
      <point x="769.6666666666666" y="977.6666666666666" type="line"/>
      <point x="658.0" y="1081.0"/>
      <point x="466.3333333333333" y="1082.0"/>
      <point x="324.6666666666667" y="978.6666666666666" type="curve"/>
      <point x="217.66666666666666" y="1102.0" type="line"/>
      <point x="157.0" y="1048.0" type="line"/>
      <point x="262.66666666666663" y="924.3333333333333" type="line"/>
      <point x="138.0" y="794.0"/>
      <point x="115.0" y="608.0"/>
      <point x="200.0" y="477.33333333333337" type="curve"/>
      <point x="59.0" y="352.3333333333333" type="line"/>
    </contour>
    <contour>
      <point x="465.33333333333337" y="415.6666666666667" type="curve" smooth="yes"/>
      <point x="319.0" y="415.3333333333333"/>
      <point x="207.00000000000003" y="535.6666666666667"/>
      <point x="228.66666666666669" y="693.3333333333334" type="curve" smooth="yes"/>
      <point x="251.00000000000003" y="850.6666666666667"/>
      <point x="395.0" y="979.0"/>
      <point x="554.6666666666667" y="978.6666666666666" type="curve" smooth="yes"/>
      <point x="709.0" y="978.3333333333334"/>
      <point x="814.6666666666666" y="858.0"/>
      <point x="793.0" y="703.0" type="curve" smooth="yes"/>
      <point x="771.0" y="544.3333333333333"/>
      <point x="622.6666666666666" y="416.0"/>
    </contour>
  </outline>
</glyph>
<glyph name="yen" format="2">
  <advance width="1178.5"/>
  <unicode hex="00A5"/>
  <outline>
    <contour>
      <point x="474.33333333333337" y="0.0" type="line"/>
      <point x="564.3333333333334" y="0.0" type="line"/>
      <point x="594.3333333333334" y="214.0" type="line"/>
      <point x="913.3333333333334" y="214.0" type="line"/>
      <point x="924.0" y="291.6666666666667" type="line"/>
      <point x="605.0" y="291.6666666666667" type="line"/>
      <point x="631.6666666666667" y="480.0" type="line"/>
      <point x="950.6666666666667" y="480.0" type="line"/>
      <point x="961.0" y="557.6666666666666" type="line"/>
      <point x="642.0" y="557.6666666666666" type="line"/>
      <point x="654.3333333333334" y="635.3333333333334" type="line"/>
      <point x="1228.3333333333333" y="1400.0" type="line"/>
      <point x="1120.9999999999998" y="1400.0" type="line"/>
      <point x="620.0" y="733.6666666666666" type="line"/>
      <point x="308.6666666666667" y="1400.0" type="line"/>
      <point x="205.00000000000003" y="1400.0" type="line"/>
      <point x="564.3333333333334" y="635.3333333333334" type="line"/>
      <point x="552.0" y="557.6666666666666" type="line"/>
      <point x="233.0" y="557.6666666666666" type="line"/>
      <point x="222.66666666666669" y="480.0" type="line"/>
      <point x="541.6666666666667" y="480.0" type="line"/>
      <point x="515.0" y="291.6666666666667" type="line"/>
      <point x="196.0" y="291.6666666666667" type="line"/>
      <point x="185.33333333333334" y="214.0" type="line"/>
      <point x="504.33333333333337" y="214.0" type="line"/>
    </contour>
  </outline>
</glyph>
<glyph name="section" format="2">
  <advance width="1063.5"/>
  <unicode hex="00A7"/>
  <outline>
    <contour>
      <point x="421.3333333333333" y="-415.6666666666667" type="curve" smooth="yes"/>
      <point x="608.6666666666666" y="-415.6666666666667"/>
      <point x="794.0" y="-307.6666666666667"/>
      <point x="818.3333333333333" y="-135.33333333333331" type="curve" smooth="yes"/>
      <point x="838.0" y="5.000000000000001"/>
      <point x="762.0" y="86.33333333333333"/>
      <point x="587.6666666666666" y="113.66666666666667" type="curve"/>
      <point x="770.0" y="159.0"/>
      <point x="918.3333333333333" y="317.66666666666663"/>
      <point x="942.3333333333333" y="493.66666666666663" type="curve" smooth="yes"/>
      <point x="978.0" y="747.0"/>
      <point x="830.6666666666666" y="874.0"/>
      <point x="579.6666666666666" y="930.6666666666666" type="curve" smooth="yes"/>
      <point x="412.0" y="971.0"/>
      <point x="313.6666666666667" y="1001.0"/>
      <point x="331.33333333333337" y="1126.6666666666667" type="curve" smooth="yes"/>
      <point x="349.0" y="1253.6666666666667"/>
      <point x="493.66666666666663" y="1332.0"/>
      <point x="643.3333333333334" y="1331.6666666666665" type="curve" smooth="yes"/>
      <point x="757.0" y="1330.6666666666667"/>
      <point x="878.0" y="1274.3333333333335"/>
      <point x="904.0" y="1178.0" type="curve"/>
      <point x="982.6666666666667" y="1216.3333333333333" type="line"/>
      <point x="945.0" y="1333.0"/>
      <point x="808.6666666666666" y="1415.6666666666667"/>
      <point x="642.0" y="1415.6666666666667" type="curve" smooth="yes"/>
      <point x="454.6666666666667" y="1415.6666666666667"/>
      <point x="269.6666666666667" y="1307.6666666666667"/>
      <point x="245.0" y="1135.3333333333335" type="curve" smooth="yes"/>
      <point x="225.33333333333334" y="993.3333333333333"/>
      <point x="299.99999999999994" y="912.0"/>
      <point x="475.6666666666667" y="885.0" type="curve"/>
      <point x="289.33333333333337" y="837.6666666666666"/>
      <point x="145.33333333333334" y="679.0"/>
      <point x="120.33333333333333" y="503.0" type="curve" smooth="yes"/>
      <point x="85.66666666666667" y="259.33333333333337"/>
      <point x="236.99999999999997" y="122.0"/>
      <point x="483.3333333333333" y="69.66666666666667" type="curve" smooth="yes"/>
      <point x="649.6666666666666" y="31.333333333333332"/>
      <point x="749.6666666666666" y="-0.6666666666666654"/>
      <point x="732.3333333333334" y="-126.66666666666666" type="curve" smooth="yes"/>
      <point x="714.3333333333334" y="-253.66666666666669"/>
      <point x="570.0" y="-332.0"/>
      <point x="420.00000000000006" y="-331.66666666666663" type="curve" smooth="yes"/>
      <point x="306.33333333333337" y="-330.66666666666663"/>
      <point x="185.66666666666666" y="-274.33333333333337"/>
      <point x="159.66666666666666" y="-177.99999999999997" type="curve"/>
      <point x="80.66666666666667" y="-216.33333333333334" type="line"/>
      <point x="118.66666666666667" y="-333.0"/>
      <point x="254.66666666666669" y="-415.6666666666667"/>
    </contour>
    <contour>
      <point x="482.3333333333333" y="174.33333333333334" type="curve" smooth="yes"/>
      <point x="318.33333333333337" y="174.33333333333334"/>
      <point x="178.66666666666669" y="312.0"/>
      <point x="204.0" y="493.66666666666663" type="curve" smooth="yes"/>
      <point x="230.33333333333334" y="680.3333333333334"/>
      <point x="399.6666666666667" y="825.6666666666666"/>
      <point x="580.0" y="825.6666666666666" type="curve" smooth="yes"/>
      <point x="741.6666666666667" y="825.6666666666666"/>
      <point x="886.6666666666667" y="704.6666666666666"/>
      <point x="857.6666666666667" y="497.6666666666667" type="curve" smooth="yes"/>
      <point x="833.0" y="322.6666666666667"/>
      <point x="664.0" y="174.33333333333334"/>
    </contour>
  </outline>
</glyph>
<glyph name="copyright" format="2">
  <advance width="1753.75"/>
  <unicode hex="00A9"/>
  <outline>
    <contour>
      <point x="788.3333333333333" y="-167.66666666666669" type="curve" smooth="yes"/>
      <point x="1225.6666666666667" y="-167.66666666666669"/>
      <point x="1629.3333333333335" y="186.33333333333334"/>
      <point x="1691.3333333333335" y="624.6666666666667" type="curve" smooth="yes"/>
      <point x="1753.6666666666667" y="1067.0"/>
      <point x="1444.3333333333333" y="1426.0"/>
      <point x="1002.0" y="1426.0" type="curve" smooth="yes"/>
      <point x="563.6666666666667" y="1426.0"/>
      <point x="160.33333333333334" y="1072.3333333333335"/>
      <point x="99.0" y="634.0" type="curve" smooth="yes"/>
      <point x="37.0" y="191.66666666666666"/>
      <point x="345.33333333333337" y="-167.66666666666669"/>
    </contour>
    <contour>
      <point x="790.3333333333333" y="-77.66666666666667" type="curve" smooth="yes"/>
      <point x="409.66666666666663" y="-77.66666666666667"/>
      <point x="132.0" y="228.66666666666666"/>
      <point x="187.66666666666666" y="624.6666666666667" type="curve" smooth="yes"/>
      <point x="242.66666666666666" y="1013.6666666666667"/>
      <point x="605.6666666666666" y="1332.6666666666667"/>
      <point x="999.3333333333333" y="1336.0" type="curve" smooth="yes"/>
      <point x="1382.3333333333335" y="1339.6666666666667"/>
      <point x="1657.6666666666667" y="1024.6666666666667"/>
      <point x="1603.0" y="634.0" type="curve" smooth="yes"/>
      <point x="1548.0" y="248.66666666666666"/>
      <point x="1189.0" y="-77.66666666666667"/>
    </contour>
    <component base="c" xOffset="345.3333333333333" yOffset="129.33333333333334"/>
  </outline>
</glyph>
<glyph name="logicalnot" format="2">
  <advance width="948.5"/>
  <unicode hex="00AC"/>
  <outline>
    <contour>
      <point x="754.3333333333333" y="327.6666666666667" type="line"/>
      <point x="844.3333333333333" y="327.6666666666667" type="line"/>
      <point x="920.6666666666666" y="872.6666666666666" type="line"/>
      <point x="132.0" y="872.6666666666666" type="line"/>
      <point x="120.0" y="782.6666666666666" type="line"/>
      <point x="818.3333333333333" y="782.6666666666666" type="line"/>
    </contour>
  </outline>
</glyph>
<glyph name="registered" format="2">
  <advance width="933.25"/>
  <unicode hex="00AE"/>
  <outline>
    <contour>
      <point x="470.6666666666667" y="493.6666666666667" type="curve" smooth="yes"/>
      <point x="694.0" y="495.3333333333333"/>
      <point x="898.6666666666667" y="677.6666666666666"/>
      <point x="929.0" y="895.6666666666667" type="curve" smooth="yes"/>
      <point x="959.6666666666667" y="1112.3333333333333"/>
      <point x="807.6666666666666" y="1306.6666666666667"/>
      <point x="574.6666666666667" y="1306.6666666666667" type="curve" smooth="yes"/>
      <point x="351.3333333333333" y="1306.6666666666667"/>
      <point x="147.66666666666666" y="1123.6666666666667"/>
      <point x="117.33333333333333" y="905.0" type="curve" smooth="yes"/>
      <point x="85.66666666666667" y="683.6666666666666"/>
      <point x="241.0" y="495.3333333333333"/>
    </contour>
    <contour>
      <point x="472.0" y="572.3333333333334" type="curve" smooth="yes"/>
      <point x="293.6666666666667" y="572.3333333333334"/>
      <point x="169.66666666666669" y="717.3333333333334"/>
      <point x="194.66666666666669" y="895.6666666666667" type="curve" smooth="yes"/>
      <point x="219.66666666666669" y="1077.6666666666665"/>
      <point x="391.33333333333337" y="1228.0"/>
      <point x="574.0000000000001" y="1228.0" type="curve" smooth="yes"/>
      <point x="751.6666666666666" y="1228.0"/>
      <point x="876.6666666666666" y="1083.0"/>
      <point x="851.6666666666666" y="905.0" type="curve" smooth="yes"/>
      <point x="825.6666666666666" y="722.6666666666666"/>
      <point x="654.0" y="572.3333333333334"/>
    </contour>
    <contour>
      <point x="381.6666666666667" y="712.0" type="line"/>
      <point x="448.0" y="712.0" type="line"/>
      <point x="471.0" y="873.3333333333334" type="line"/>
      <point x="501.6666666666667" y="873.3333333333334" type="line"/>
      <point x="573.3333333333334" y="712.0" type="line"/>
      <point x="647.6666666666667" y="712.0" type="line"/>
      <point x="576.6666666666666" y="877.0" type="line"/>
      <point x="626.3333333333333" y="888.6666666666667"/>
      <point x="662.6666666666666" y="930.6666666666666"/>
      <point x="670.3333333333333" y="980.6666666666666" type="curve" smooth="yes"/>
      <point x="679.0" y="1046.6666666666667"/>
      <point x="636.6666666666666" y="1099.6666666666667"/>
      <point x="576.3333333333334" y="1099.6666666666667" type="curve" smooth="yes"/>
      <point x="436.0" y="1099.6666666666667" type="line"/>
    </contour>
    <contour>
      <point x="479.66666666666663" y="939.6666666666666" type="line"/>
      <point x="493.0" y="1033.3333333333333" type="line"/>
      <point x="572.3333333333334" y="1033.3333333333333" type="line" smooth="yes"/>
      <point x="595.0" y="1033.3333333333333"/>
      <point x="608.3333333333334" y="1015.0"/>
      <point x="604.6666666666667" y="990.3333333333333" type="curve" smooth="yes"/>
      <point x="601.6666666666667" y="963.3333333333333"/>
      <point x="577.0" y="939.6666666666666"/>
      <point x="554.0000000000001" y="939.6666666666666" type="curve" smooth="yes"/>
    </contour>
  </outline>
</glyph>
<glyph name="macron" format="2">
  <advance width="1200.0"/>
  <unicode hex="00AF"/>
  <outline>
    <contour>
      <point x="380.0" y="1337.0" type="line"/>
      <point x="367.0" y="1247.0" type="line"/>
      <point x="1043.0" y="1247.0" type="line"/>
      <point x="1056.0" y="1337.0" type="line"/>
    </contour>
  </outline>
</glyph>
<glyph name="degree" format="2">
  <advance width="604.25"/>
  <unicode hex="00B0"/>
  <outline>
    <contour>
      <point x="357.66666666666663" y="858.0" type="curve" smooth="yes"/>
      <point x="476.6666666666667" y="858.0"/>
      <point x="587.6666666666667" y="953.6666666666667"/>
      <point x="605.0" y="1075.3333333333333" type="curve" smooth="yes"/>
      <point x="622.3333333333334" y="1198.6666666666665"/>
      <point x="536.3333333333334" y="1302.0"/>
      <point x="409.66666666666663" y="1302.0" type="curve" smooth="yes"/>
      <point x="289.6666666666667" y="1302.0"/>
      <point x="179.33333333333334" y="1204.6666666666667"/>
      <point x="162.33333333333334" y="1084.6666666666667" type="curve" smooth="yes"/>
      <point x="145.0" y="961.6666666666666"/>
      <point x="231.33333333333331" y="858.0"/>
    </contour>
    <contour>
      <point x="360.66666666666663" y="948.0" type="curve" smooth="yes"/>
      <point x="288.6666666666667" y="948.0"/>
      <point x="241.0" y="1003.3333333333334"/>
      <point x="250.66666666666666" y="1075.3333333333333" type="curve" smooth="yes"/>
      <point x="262.0" y="1151.3333333333333"/>
      <point x="331.00000000000006" y="1212.0"/>
      <point x="407.0" y="1212.0" type="curve" smooth="yes"/>
      <point x="478.6666666666667" y="1212.0"/>
      <point x="526.3333333333333" y="1156.6666666666667"/>
      <point x="516.6666666666666" y="1084.6666666666667" type="curve" smooth="yes"/>
      <point x="505.3333333333333" y="1008.6666666666666"/>
      <point x="436.3333333333333" y="948.0"/>
    </contour>
  </outline>
</glyph>
<glyph name="plusminus" format="2">
  <advance width="1160.0"/>
  <unicode hex="00B1"/>
  <outline>
    <contour>
      <point x="508.6666666666667" y="312.6666666666667" type="line"/>
      <point x="598.6666666666666" y="312.6666666666667" type="line"/>
      <point x="662.6666666666666" y="767.6666666666666" type="line"/>
      <point x="1117.6666666666667" y="767.6666666666666" type="line"/>
      <point x="1130.0" y="857.6666666666666" type="line"/>
      <point x="675.0" y="857.6666666666666" type="line"/>
      <point x="738.6666666666666" y="1312.6666666666667" type="line"/>
      <point x="648.6666666666666" y="1312.6666666666667" type="line"/>
      <point x="585.0" y="857.6666666666666" type="line"/>
      <point x="130.0" y="857.6666666666666" type="line"/>
      <point x="117.66666666666667" y="767.6666666666666" type="line"/>
      <point x="572.6666666666666" y="767.6666666666666" type="line"/>
    </contour>
    <contour>
      <point x="10.0" y="1.6666666666666665" type="line"/>
      <point x="1010.0" y="1.6666666666666665" type="line"/>
      <point x="1022.3333333333334" y="91.66666666666667" type="line"/>
      <point x="22.333333333333336" y="91.66666666666667" type="line"/>
    </contour>
  </outline>
</glyph>
<glyph name="twosuperior" format="2">
  <advance width="677.125"/>
  <unicode hex="00B2"/>
  <outline>
    <contour>
      <point x="141.0" y="818.0" type="line"/>
      <point x="576.6666666666666" y="818.0" type="line"/>
      <point x="588.3333333333333" y="902.0" type="line"/>
      <point x="299.3333333333333" y="900.3333333333334" type="line"/>
      <point x="429.6666666666667" y="983.3333333333334"/>
      <point x="623.0" y="1139.6666666666667"/>
      <point x="639.3333333333334" y="1255.6666666666665" type="curve"/>
      <point x="656.6666666666666" y="1377.6666666666667"/>
      <point x="569.0000000000001" y="1468.0"/>
      <point x="447.0" y="1468.0" type="curve"/>
      <point x="326.99999999999994" y="1468.0"/>
      <point x="220.0" y="1383.3333333333335"/>
      <point x="203.66666666666666" y="1263.0" type="curve"/>
      <point x="286.3333333333333" y="1257.6666666666665" type="line"/>
      <point x="296.6666666666667" y="1332.0"/>
      <point x="368.3333333333333" y="1385.6666666666667"/>
      <point x="445.0" y="1385.6666666666667" type="curve"/>
      <point x="517.0" y="1385.6666666666667"/>
      <point x="567.0" y="1337.6666666666667"/>
      <point x="556.3333333333334" y="1265.0" type="curve"/>
      <point x="530.0" y="1145.3333333333335"/>
      <point x="260.0" y="969.3333333333333"/>
      <point x="150.66666666666666" y="902.6666666666666" type="curve"/>
    </contour>
  </outline>
</glyph>
<glyph name="threesuperior" format="2">
  <advance width="546.0"/>
  <unicode hex="00B3"/>
  <outline>
    <contour>
      <point x="320.6666666666667" y="798.0" type="curve" smooth="yes"/>
      <point x="428.33333333333337" y="798.0"/>
      <point x="526.0" y="873.6666666666666"/>
      <point x="542.0" y="984.3333333333334" type="curve" smooth="yes"/>
      <point x="553.0" y="1063.3333333333333"/>
      <point x="528.3333333333334" y="1105.3333333333333"/>
      <point x="478.6666666666667" y="1147.6666666666667" type="curve"/>
      <point x="520.6666666666666" y="1170.3333333333333"/>
      <point x="557.9999999999999" y="1229.6666666666665"/>
      <point x="565.6666666666666" y="1287.3333333333333" type="curve" smooth="yes"/>
      <point x="580.9999999999999" y="1392.0"/>
      <point x="505.0" y="1466.3333333333333"/>
      <point x="399.3333333333333" y="1466.3333333333333" type="curve" smooth="yes"/>
      <point x="300.3333333333333" y="1466.3333333333333"/>
      <point x="209.66666666666669" y="1397.6666666666667"/>
      <point x="195.66666666666669" y="1294.6666666666667" type="curve"/>
      <point x="278.3333333333333" y="1289.3333333333333" type="line"/>
      <point x="286.66666666666663" y="1344.6666666666665"/>
      <point x="340.3333333333333" y="1383.6666666666667"/>
      <point x="398.3333333333333" y="1383.6666666666667" type="curve" smooth="yes"/>
      <point x="450.66666666666663" y="1383.6666666666667"/>
      <point x="490.3333333333333" y="1350.0"/>
      <point x="483.0" y="1296.6666666666667" type="curve" smooth="yes"/>
      <point x="473.66666666666663" y="1228.0"/>
      <point x="417.0" y="1186.6666666666667"/>
      <point x="327.99999999999994" y="1186.6666666666667" type="curve"/>
      <point x="321.99999999999994" y="1110.6666666666667" type="line"/>
      <point x="421.6666666666667" y="1110.6666666666667"/>
      <point x="469.6666666666667" y="1065.6666666666667"/>
      <point x="459.6666666666667" y="993.6666666666666" type="curve" smooth="yes"/>
      <point x="450.0" y="926.6666666666666"/>
      <point x="389.6666666666667" y="880.6666666666666"/>
      <point x="322.6666666666667" y="880.6666666666666" type="curve" smooth="yes"/>
      <point x="257.6666666666667" y="880.6666666666666"/>
      <point x="215.0" y="921.0"/>
      <point x="224.33333333333334" y="986.3333333333334" type="curve"/>
      <point x="141.66666666666666" y="991.6666666666666" type="line"/>
      <point x="125.33333333333333" y="879.3333333333333"/>
      <point x="207.33333333333331" y="798.0"/>
    </contour>
  </outline>
</glyph>
<glyph name="paragraph" format="2">
  <advance width="760.0"/>
  <unicode hex="00B6"/>
  <outline>
    <contour>
      <point x="307.0" y="-302.0" type="line"/>
      <point x="397.0" y="-302.0" type="line"/>
      <point x="636.0" y="1400.0" type="line"/>
      <point x="544.0" y="1400.0" type="line" smooth="yes"/>
      <point x="356.0" y="1400.0"/>
      <point x="185.0" y="1249.0"/>
      <point x="159.33333333333334" y="1063.0" type="curve" smooth="yes"/>
      <point x="132.0" y="872.6666666666666"/>
      <point x="265.0" y="718.0"/>
      <point x="453.0" y="718.0" type="curve"/>
    </contour>
    <contour>
      <point x="477.0" y="-302.0" type="line"/>
      <point x="567.0" y="-302.0" type="line"/>
      <point x="806.0" y="1400.0" type="line"/>
      <point x="716.0" y="1400.0" type="line"/>
    </contour>
  </outline>
</glyph>
<glyph name="periodcentered" format="2">
  <advance width="276.25"/>
  <unicode hex="00B7"/>
  <outline>
    <contour>
      <point x="148.0" y="542.0" type="curve" smooth="yes"/>
      <point x="178.33333333333334" y="542.0"/>
      <point x="205.0" y="565.0"/>
      <point x="210.0" y="596.0" type="curve" smooth="yes"/>
      <point x="214.0" y="629.3333333333334"/>
      <point x="190.33333333333334" y="658.0"/>
      <point x="154.33333333333334" y="658.0" type="curve" smooth="yes"/>
      <point x="125.66666666666667" y="658.0"/>
      <point x="99.0" y="635.0"/>
      <point x="95.0" y="605.6666666666666" type="curve" smooth="yes"/>
      <point x="90.0" y="570.3333333333333"/>
      <point x="113.66666666666667" y="542.0"/>
    </contour>
  </outline>
</glyph>
<glyph name="onesuperior" format="2">
  <advance width="409.125"/>
  <unicode hex="00B9"/>
  <outline>
    <contour>
      <point x="226.0" y="818.0" type="line"/>
      <point x="310.0" y="818.0" type="line"/>
      <point x="398.0" y="1449.0" type="line"/>
      <point x="240.66666666666669" y="1449.0" type="line"/>
      <point x="217.33333333333334" y="1365.0" type="line"/>
      <point x="302.6666666666667" y="1365.0" type="line"/>
    </contour>
  </outline>
</glyph>
<glyph name="questiondown" format="2">
  <advance width="919.0"/>
  <unicode hex="00BF"/>
  <outline>
    <contour>
      <point x="331.6666666666667" y="-427.6666666666667" type="curve" smooth="yes"/>
      <point x="537.0" y="-427.6666666666667"/>
      <point x="727.0" y="-261.6666666666667"/>
      <point x="756.0" y="-53.666666666666664" type="curve"/>
      <point x="667.0" y="-48.333333333333336" type="line"/>
      <point x="644.3333333333334" y="-206.0"/>
      <point x="494.3333333333333" y="-337.6666666666667"/>
      <point x="334.6666666666667" y="-337.6666666666667" type="curve" smooth="yes"/>
      <point x="178.66666666666666" y="-337.6666666666667"/>
      <point x="70.0" y="-211.66666666666666"/>
      <point x="92.0" y="-55.666666666666664" type="curve" smooth="yes"/>
      <point x="107.33333333333333" y="55.00000000000001"/>
      <point x="178.33333333333334" y="153.33333333333331"/>
      <point x="277.0" y="201.33333333333334" type="curve" smooth="yes"/>
      <point x="392.3333333333333" y="263.0"/>
      <point x="470.0" y="371.66666666666663"/>
      <point x="487.0" y="492.3333333333333" type="curve"/>
      <point x="397.3333333333333" y="497.6666666666667" type="line"/>
      <point x="385.0" y="407.33333333333337"/>
      <point x="323.0" y="326.0"/>
      <point x="237.66666666666666" y="285.33333333333337" type="curve" smooth="yes"/>
      <point x="112.0" y="221.00000000000003"/>
      <point x="23.0" y="93.66666666666667"/>
      <point x="3.333333333333334" y="-46.333333333333336" type="curve" smooth="yes"/>
      <point x="-26.0" y="-256.3333333333333"/>
      <point x="120.66666666666666" y="-427.6666666666667"/>
    </contour>
    <contour>
      <point x="516.3333333333333" y="909.6666666666666" type="curve" smooth="yes"/>
      <point x="545.0000000000001" y="909.6666666666666"/>
      <point x="571.6666666666667" y="932.6666666666666"/>
      <point x="575.3333333333334" y="962.0" type="curve" smooth="yes"/>
      <point x="580.6666666666667" y="997.6666666666667"/>
      <point x="556.0000000000001" y="1026.0"/>
      <point x="522.6666666666666" y="1026.0" type="curve" smooth="yes"/>
      <point x="491.66666666666663" y="1026.0"/>
      <point x="465.0" y="1003.0"/>
      <point x="461.0" y="971.6666666666666" type="curve" smooth="yes"/>
      <point x="455.6666666666667" y="938.3333333333333"/>
      <point x="480.3333333333333" y="909.6666666666666"/>
    </contour>
  </outline>
</glyph>
<glyph name="AE" format="2">
  <advance width="1590.6666666666667"/>
  <unicode hex="00C6"/>
  <outline>
    <contour>
      <point x="8.666666666666666" y="0.0" type="line"/>
      <point x="106.00000000000001" y="0.0" type="line"/>
      <point x="270.3333333333333" y="325.0" type="line"/>
      <point x="767.3333333333333" y="325.0" type="line"/>
      <point x="721.6666666666666" y="0.0" type="line"/>
      <point x="1421.0" y="0.0" type="line"/>
      <point x="1433.3333333333333" y="90.0" type="line"/>
      <point x="823.6666666666666" y="90.0" type="line"/>
      <point x="903.3333333333333" y="655.0" type="line"/>
      <point x="1417.0" y="655.0" type="line"/>
      <point x="1429.0" y="745.0" type="line"/>
      <point x="915.6666666666666" y="745.0" type="line"/>
      <point x="995.3333333333333" y="1310.0" type="line"/>
      <point x="1604.6666666666667" y="1310.0" type="line"/>
      <point x="1617.0" y="1400.0" type="line"/>
      <point x="715.6666666666666" y="1400.0" type="line"/>
    </contour>
    <contour>
      <point x="315.6666666666667" y="415.0" type="line"/>
      <point x="769.6666666666666" y="1310.0" type="line"/>
      <point x="905.3333333333333" y="1310.0" type="line"/>
      <point x="779.6666666666666" y="415.0" type="line"/>
    </contour>
  </outline>
</glyph>
<glyph name="Eth" format="2">
  <advance width="1453.6666666666667"/>
  <unicode hex="00D0"/>
  <outline>
    <contour>
      <point x="160.0" y="0.0" type="line"/>
      <point x="625.3333333333334" y="0.0" type="line" smooth="yes"/>
      <point x="1011.3333333333333" y="0.0"/>
      <point x="1367.3333333333333" y="311.3333333333333"/>
      <point x="1421.3333333333333" y="695.3333333333334" type="curve" smooth="yes"/>
      <point x="1475.3333333333333" y="1083.3333333333333"/>
      <point x="1203.6666666666665" y="1400.0"/>
      <point x="817.6666666666667" y="1400.0" type="curve" smooth="yes"/>
      <point x="355.99999999999994" y="1400.0" type="line"/>
      <point x="270.99999999999994" y="795.0" type="line"/>
      <point x="141.33333333333334" y="795.0" type="line"/>
      <point x="129.33333333333334" y="705.0" type="line"/>
      <point x="258.66666666666663" y="705.0" type="line"/>
    </contour>
    <contour>
      <point x="262.0" y="90.0" type="line"/>
      <point x="348.6666666666667" y="705.0" type="line"/>
      <point x="726.6666666666666" y="705.0" type="line"/>
      <point x="739.0" y="795.0" type="line"/>
      <point x="361.0" y="795.0" type="line"/>
      <point x="433.6666666666667" y="1310.0" type="line"/>
      <point x="810.3333333333334" y="1310.0" type="line" smooth="yes"/>
      <point x="1138.6666666666665" y="1310.0"/>
      <point x="1380.3333333333333" y="1045.3333333333335"/>
      <point x="1332.6666666666665" y="704.6666666666666" type="curve" smooth="yes"/>
      <point x="1286.0" y="372.6666666666667"/>
      <point x="975.6666666666667" y="90.0"/>
      <point x="633.0" y="90.0" type="curve" smooth="yes"/>
    </contour>
  </outline>
</glyph>
<glyph name="Oslash" format="2">
  <advance width="1540.0"/>
  <unicode hex="00D8"/>
  <outline>
    <contour>
      <point x="300.6666666666667" y="-69.66666666666667" type="line"/>
      <point x="393.0" y="59.0" type="line"/>
      <point x="480.6666666666667" y="6.666666666666666"/>
      <point x="584.0" y="-26.0"/>
      <point x="700.6666666666666" y="-26.0" type="curve" smooth="yes"/>
      <point x="1078.6666666666667" y="-26.0"/>
      <point x="1432.0" y="297.3333333333333"/>
      <point x="1487.6666666666667" y="695.3333333333334" type="curve" smooth="yes"/>
      <point x="1522.0" y="943.6666666666667"/>
      <point x="1434.0" y="1162.0"/>
      <point x="1274.6666666666667" y="1292.6666666666665" type="curve"/>
      <point x="1371.0" y="1424.6666666666667" type="line"/>
      <point x="1297.6666666666667" y="1469.6666666666667" type="line"/>
      <point x="1205.0" y="1341.3333333333335" type="line"/>
      <point x="1117.6666666666667" y="1395.0"/>
      <point x="1014.0" y="1426.0"/>
      <point x="895.3333333333334" y="1426.0" type="curve" smooth="yes"/>
      <point x="517.3333333333334" y="1426.0"/>
      <point x="165.0" y="1102.6666666666667"/>
      <point x="109.0" y="704.6666666666666" type="curve" smooth="yes"/>
      <point x="74.0" y="458.33333333333337"/>
      <point x="164.0" y="239.66666666666666"/>
      <point x="323.3333333333333" y="107.66666666666667" type="curve"/>
      <point x="227.0" y="-24.666666666666664" type="line"/>
    </contour>
    <contour>
      <point x="376.0" y="186.00000000000003" type="line"/>
      <point x="239.66666666666669" y="299.6666666666667"/>
      <point x="168.33333333333334" y="486.3333333333333"/>
      <point x="197.66666666666666" y="695.3333333333334" type="curve" smooth="yes"/>
      <point x="245.66666666666666" y="1041.6666666666665"/>
      <point x="554.9999999999999" y="1336.0"/>
      <point x="892.6666666666666" y="1336.0" type="curve" smooth="yes"/>
      <point x="989.0" y="1336.0"/>
      <point x="1079.3333333333335" y="1310.6666666666667"/>
      <point x="1154.6666666666667" y="1264.6666666666667" type="curve"/>
    </contour>
    <contour>
      <point x="703.6666666666666" y="64.0" type="curve" smooth="yes"/>
      <point x="609.0" y="64.0"/>
      <point x="518.6666666666666" y="89.33333333333334"/>
      <point x="443.3333333333333" y="135.66666666666669" type="curve"/>
      <point x="1223.0" y="1215.6666666666667" type="line"/>
      <point x="1356.6666666666667" y="1100.3333333333335"/>
      <point x="1427.6666666666667" y="913.6666666666666"/>
      <point x="1399.0" y="704.6666666666666" type="curve" smooth="yes"/>
      <point x="1350.3333333333333" y="358.6666666666667"/>
      <point x="1041.0" y="64.0"/>
    </contour>
  </outline>
</glyph>
<glyph name="Thorn" format="2">
  <advance width="1017.5"/>
  <unicode hex="00DE"/>
  <outline>
    <contour>
      <point x="50.0" y="0.0" type="line"/>
      <point x="140.0" y="0.0" type="line"/>
      <point x="181.66666666666666" y="296.6666666666667" type="line"/>
      <point x="517.3333333333334" y="296.6666666666667" type="line" smooth="yes"/>
      <point x="732.3333333333334" y="296.6666666666667"/>
      <point x="933.3333333333333" y="466.66666666666663"/>
      <point x="965.3333333333333" y="695.3333333333334" type="curve" smooth="yes"/>
      <point x="997.6666666666666" y="925.6666666666666"/>
      <point x="847.0" y="1103.6666666666667"/>
      <point x="625.6666666666666" y="1103.6666666666667" type="curve" smooth="yes"/>
      <point x="294.6666666666667" y="1103.6666666666667" type="line"/>
      <point x="336.0" y="1400.0" type="line"/>
      <point x="246.0" y="1400.0" type="line"/>
    </contour>
    <contour>
      <point x="193.66666666666666" y="386.6666666666667" type="line"/>
      <point x="283.0" y="1019.0" type="line"/>
      <point x="614.6666666666666" y="1019.0" type="line" smooth="yes"/>
      <point x="784.0" y="1019.0"/>
      <point x="902.0" y="887.3333333333333"/>
      <point x="877.0" y="707.6666666666666" type="curve" smooth="yes"/>
      <point x="851.0" y="523.6666666666666"/>
      <point x="690.0" y="386.6666666666667"/>
      <point x="520.6666666666666" y="386.6666666666667" type="curve" smooth="yes"/>
    </contour>
  </outline>
</glyph>
<glyph name="germandbls" format="2">
  <advance width="1032.0"/>
  <unicode hex="00DF"/>
  <outline>
    <contour>
      <point x="50.0" y="0.0" type="line"/>
      <point x="140.0" y="0.0" type="line"/>
      <point x="278.0" y="985.6666666666666" type="line" smooth="yes"/>
      <point x="303.6666666666667" y="1165.6666666666665"/>
      <point x="472.0" y="1313.6666666666667"/>
      <point x="654.6666666666667" y="1313.6666666666667" type="curve" smooth="yes"/>
      <point x="800.0" y="1313.6666666666667"/>
      <point x="902.3333333333333" y="1187.3333333333335"/>
      <point x="880.0" y="1030.3333333333335" type="curve" smooth="yes"/>
      <point x="857.6666666666666" y="869.3333333333333"/>
      <point x="715.0" y="739.0"/>
      <point x="566.6666666666667" y="737.3333333333334" type="curve" smooth="yes"/>
      <point x="540.6666666666667" y="736.6666666666666" type="line"/>
      <point x="529.6666666666667" y="654.0" type="line"/>
      <point x="624.0" y="653.6666666666666" type="line" smooth="yes"/>
      <point x="782.0" y="652.6666666666666"/>
      <point x="890.0" y="529.3333333333333"/>
      <point x="868.6666666666667" y="374.6666666666667" type="curve" smooth="yes"/>
      <point x="846.6666666666667" y="215.66666666666666"/>
      <point x="697.0" y="84.33333333333334"/>
      <point x="539.0" y="84.33333333333334" type="curve" smooth="yes"/>
      <point x="450.33333333333337" y="84.33333333333334" type="line"/>
      <point x="460.33333333333337" y="0.0" type="line"/>
      <point x="536.0" y="0.0" type="line" smooth="yes"/>
      <point x="738.3333333333333" y="0.0"/>
      <point x="924.0" y="160.33333333333334"/>
      <point x="952.6666666666666" y="362.3333333333333" type="curve" smooth="yes"/>
      <point x="975.0" y="523.3333333333334"/>
      <point x="896.3333333333334" y="669.6666666666666"/>
      <point x="751.0" y="710.0" type="curve"/>
      <point x="867.6666666666666" y="770.3333333333333"/>
      <point x="950.6666666666666" y="891.0"/>
      <point x="968.6666666666666" y="1020.6666666666667" type="curve" smooth="yes"/>
      <point x="998.3333333333333" y="1228.6666666666667"/>
      <point x="860.6666666666666" y="1398.3333333333333"/>
      <point x="661.0" y="1398.3333333333333" type="curve" smooth="yes"/>
      <point x="431.0" y="1398.3333333333333"/>
      <point x="220.0" y="1212.0"/>
      <point x="188.0" y="981.3333333333333" type="curve" smooth="yes"/>
    </contour>
  </outline>
</glyph>
<glyph name="ae" format="2">
  <advance width="1895.875"/>
  <unicode hex="00E6"/>
  <outline>
    <contour>
      <point x="397.0" y="-3.333333333333334" type="curve" smooth="yes"/>
      <point x="510.6666666666667" y="-3.333333333333334" type="line" smooth="yes"/>
      <point x="674.3333333333334" y="-3.333333333333334"/>
      <point x="821.3333333333333" y="105.99999999999999"/>
      <point x="876.3333333333334" y="261.3333333333333" type="curve"/>
      <point x="938.0" y="106.0"/>
      <point x="1082.6666666666665" y="-3.333333333333334"/>
      <point x="1271.0" y="-3.333333333333334" type="curve" smooth="yes"/>
      <point x="1468.0" y="-3.333333333333334"/>
      <point x="1656.6666666666667" y="118.0"/>
      <point x="1761.6666666666667" y="296.0" type="curve"/>
      <point x="1671.0" y="321.6666666666667" type="line"/>
      <point x="1576.6666666666667" y="176.0"/>
      <point x="1431.6666666666667" y="86.66666666666667"/>
      <point x="1273.6666666666667" y="86.66666666666667" type="curve" smooth="yes"/>
      <point x="1062.6666666666667" y="87.0"/>
      <point x="915.6666666666666" y="253.66666666666669"/>
      <point x="926.6666666666666" y="481.66666666666663" type="curve"/>
      <point x="1831.3333333333335" y="481.66666666666663" type="line"/>
      <point x="1880.3333333333333" y="813.6666666666666"/>
      <point x="1701.6666666666667" y="1050.6666666666667"/>
      <point x="1409.6666666666667" y="1050.6666666666667" type="curve" smooth="yes"/>
      <point x="1215.6666666666667" y="1050.6666666666667"/>
      <point x="1030.6666666666667" y="932.0"/>
      <point x="927.3333333333333" y="755.3333333333334" type="curve"/>
      <point x="915.0" y="921.0"/>
      <point x="844.6666666666666" y="1050.6666666666667"/>
      <point x="605.6666666666666" y="1050.6666666666667" type="curve" smooth="yes"/>
      <point x="467.6666666666667" y="1050.6666666666667"/>
      <point x="302.99999999999994" y="1014.6666666666666"/>
      <point x="207.66666666666666" y="883.6666666666666" type="curve"/>
      <point x="281.0" y="834.6666666666666" type="line"/>
      <point x="352.6666666666667" y="931.3333333333334"/>
      <point x="487.0" y="964.3333333333334"/>
      <point x="603.3333333333333" y="964.3333333333334" type="curve" smooth="yes"/>
      <point x="873.3333333333333" y="964.3333333333334"/>
      <point x="860.3333333333333" y="787.6666666666666"/>
      <point x="845.0" y="567.0" type="curve"/>
      <point x="424.0" y="564.3333333333334" type="line" smooth="yes"/>
      <point x="246.33333333333334" y="564.3333333333334"/>
      <point x="82.0" y="517.0"/>
      <point x="46.99999999999999" y="326.0" type="curve" smooth="yes"/>
      <point x="18.33333333333334" y="98.0"/>
      <point x="204.00000000000003" y="-3.333333333333334"/>
    </contour>
    <contour>
      <point x="457.0" y="71.66666666666667" type="curve" smooth="yes"/>
      <point x="264.6666666666667" y="71.66666666666667"/>
      <point x="110.33333333333336" y="122.0"/>
      <point x="133.66666666666666" y="312.3333333333333" type="curve" smooth="yes"/>
      <point x="158.0" y="447.0"/>
      <point x="274.3333333333333" y="484.3333333333333"/>
      <point x="439.3333333333333" y="484.3333333333333" type="curve" smooth="yes"/>
      <point x="833.3333333333334" y="484.3333333333333" type="line"/>
      <point x="819.3333333333334" y="381.6666666666667" type="line" smooth="yes"/>
      <point x="810.6666666666666" y="322.33333333333337"/>
      <point x="770.3333333333333" y="71.66666666666667"/>
    </contour>
    <contour>
      <point x="937.6666666666667" y="561.6666666666667" type="line"/>
      <point x="986.3333333333333" y="784.0"/>
      <point x="1185.6666666666667" y="965.6666666666666"/>
      <point x="1407.3333333333335" y="965.6666666666666" type="curve" smooth="yes"/>
      <point x="1622.0" y="965.6666666666666"/>
      <point x="1772.6666666666667" y="782.6666666666666"/>
      <point x="1753.0" y="567.0" type="curve"/>
    </contour>
  </outline>
</glyph>
<glyph name="igrave" format="2">
  <advance width="335.33333333333337"/>
  <unicode hex="00EC"/>
  <outline>
    <contour>
      <point x="194.99999999999997" y="1000.0" type="line"/>
      <point x="54.99999999999999" y="0.0" type="line"/>
      <point x="145.0" y="0.0" type="line"/>
      <point x="285.00000000000006" y="1000.0" type="line"/>
    </contour>
    <component base="grave" xOffset="-301.3333333333333"/>
  </outline>
</glyph>
<glyph name="icircumflex" format="2">
  <advance width="315.0"/>
  <unicode hex="00EE"/>
  <outline>
    <contour>
      <point x="182.66666666666666" y="1000.0" type="line"/>
      <point x="42.666666666666664" y="0.0" type="line"/>
      <point x="132.66666666666669" y="0.0" type="line"/>
      <point x="272.6666666666667" y="1000.0" type="line"/>
    </contour>
    <component base="circumflexcomb" xOffset="-378.6666666666667"/>
  </outline>
</glyph>
<glyph name="eth" format="2">
  <advance width="1124.25"/>
  <unicode hex="00F0"/>
  <outline>
    <contour>
      <point x="510.33333333333337" y="1063.6666666666667" type="line"/>
      <point x="1007.3333333333334" y="1493.6666666666667" type="line"/>
      <point x="958.3333333333334" y="1548.3333333333333" type="line"/>
      <point x="460.0" y="1119.6666666666667" type="line"/>
    </contour>
    <component base="partialdiff"/>
  </outline>
</glyph>
<glyph name="divide" format="2">
  <advance width="1160.0"/>
  <unicode hex="00F7"/>
  <outline>
    <contour>
      <point x="88.0" y="555.0" type="line"/>
      <point x="1088.0" y="555.0" type="line"/>
      <point x="1100.0" y="645.0" type="line"/>
      <point x="100.0" y="645.0" type="line"/>
    </contour>
    <contour>
      <point x="652.6666666666666" y="1052.3333333333333" type="curve"/>
      <point x="602.6666666666666" y="1052.3333333333333"/>
      <point x="562.9999999999999" y="1009.6666666666666"/>
      <point x="556.6666666666666" y="966.6666666666666" type="curve"/>
      <point x="549.6666666666666" y="915.6666666666666"/>
      <point x="582.0" y="873.0"/>
      <point x="637.3333333333334" y="873.0" type="curve"/>
      <point x="681.6666666666666" y="873.0"/>
      <point x="725.0" y="910.3333333333334"/>
      <point x="730.6666666666666" y="957.0" type="curve"/>
      <point x="737.6666666666666" y="1004.3333333333334"/>
      <point x="702.3333333333334" y="1052.3333333333333"/>
    </contour>
    <contour>
      <point x="550.6666666666666" y="325.3333333333333" type="curve"/>
      <point x="499.99999999999994" y="325.3333333333333"/>
      <point x="461.0" y="284.6666666666667"/>
      <point x="454.66666666666663" y="239.66666666666666" type="curve"/>
      <point x="447.66666666666663" y="188.66666666666666"/>
      <point x="480.3333333333333" y="147.66666666666666"/>
      <point x="535.6666666666666" y="147.66666666666666" type="curve"/>
      <point x="579.6666666666666" y="147.66666666666666"/>
      <point x="626.0" y="183.33333333333334"/>
      <point x="632.3333333333333" y="230.0" type="curve"/>
      <point x="639.3333333333333" y="279.0"/>
      <point x="599.6666666666666" y="325.3333333333333"/>
    </contour>
  </outline>
</glyph>
<glyph name="oslash" format="2">
  <advance width="1120.0"/>
  <unicode hex="00F8"/>
  <outline>
    <contour>
      <point x="216.66666666666669" y="-45.66666666666667" type="line"/>
      <point x="273.66666666666663" y="32.666666666666664" type="line"/>
      <point x="335.0" y="-2.6666666666666665"/>
      <point x="408.6666666666667" y="-26.0"/>
      <point x="490.6666666666667" y="-26.0" type="curve" smooth="yes"/>
      <point x="764.6666666666666" y="-26.0"/>
      <point x="1019.0" y="207.33333333333334"/>
      <point x="1059.6666666666667" y="495.3333333333333" type="curve" smooth="yes"/>
      <point x="1084.3333333333333" y="674.6666666666666"/>
      <point x="1023.6666666666666" y="830.6666666666667"/>
      <point x="912.6666666666666" y="926.6666666666667" type="curve"/>
      <point x="973.6666666666666" y="1008.3333333333334" type="line"/>
      <point x="905.3333333333334" y="1049.6666666666667" type="line"/>
      <point x="847.0" y="971.3333333333333" type="line"/>
      <point x="787.6666666666667" y="1006.6666666666666"/>
      <point x="714.0" y="1028.0"/>
      <point x="629.3333333333334" y="1028.0" type="curve" smooth="yes"/>
      <point x="356.0" y="1028.0"/>
      <point x="101.0" y="794.6666666666666"/>
      <point x="60.333333333333336" y="504.6666666666667" type="curve" smooth="yes"/>
      <point x="35.666666666666664" y="329.0"/>
      <point x="98.00000000000001" y="173.0"/>
      <point x="209.99999999999997" y="77.0" type="curve"/>
      <point x="149.0" y="-4.333333333333332" type="line"/>
    </contour>
    <contour>
      <point x="261.0" y="152.33333333333334" type="line"/>
      <point x="173.00000000000003" y="230.00000000000003"/>
      <point x="126.66666666666667" y="353.6666666666667"/>
      <point x="146.33333333333334" y="493.0" type="curve" smooth="yes"/>
      <point x="191.0" y="816.6666666666667"/>
      <point x="546.6666666666666" y="1041.0"/>
      <point x="798.6666666666666" y="898.0" type="curve"/>
    </contour>
    <contour>
      <point x="322.33333333333337" y="105.66666666666667" type="curve"/>
      <point x="861.6666666666666" y="851.3333333333333" type="line"/>
      <point x="948.6666666666666" y="772.0"/>
      <point x="993.3333333333334" y="646.3333333333333"/>
      <point x="973.6666666666666" y="507.0" type="curve" smooth="yes"/>
      <point x="929.6666666666666" y="190.66666666666669"/>
      <point x="584.6666666666666" y="-41.0"/>
    </contour>
  </outline>
</glyph>
<glyph name="thorn" format="2">
  <advance width="1204.5"/>
  <unicode hex="00FE"/>
  <outline>
    <contour>
      <point x="-21.0" y="-500.0" type="line"/>
      <point x="69.0" y="-500.0" type="line"/>
      <point x="171.33333333333334" y="217.0" type="line"/>
      <point x="221.66666666666669" y="71.66666666666666"/>
      <point x="343.0" y="-28.0"/>
      <point x="529.3333333333333" y="-28.0" type="curve" smooth="yes"/>
      <point x="816.6666666666666" y="-28.0"/>
      <point x="1083.3333333333335" y="205.33333333333334"/>
      <point x="1124.3333333333335" y="495.3333333333333" type="curve" smooth="yes"/>
      <point x="1165.3333333333335" y="787.3333333333334"/>
      <point x="960.0" y="1026.0"/>
      <point x="667.6666666666666" y="1026.0" type="curve" smooth="yes"/>
      <point x="486.66666666666663" y="1026.0"/>
      <point x="340.0" y="931.3333333333333"/>
      <point x="249.0" y="786.0" type="curve"/>
      <point x="336.0" y="1400.0" type="line"/>
      <point x="246.0" y="1400.0" type="line"/>
    </contour>
    <contour>
      <point x="531.3333333333334" y="60.66666666666667" type="curve" smooth="yes"/>
      <point x="293.0" y="60.66666666666667"/>
      <point x="182.66666666666669" y="256.6666666666667"/>
      <point x="216.66666666666669" y="495.3333333333333" type="curve" smooth="yes"/>
      <point x="250.33333333333334" y="741.0"/>
      <point x="424.33333333333337" y="937.6666666666666"/>
      <point x="664.6666666666666" y="937.6666666666666" type="curve" smooth="yes"/>
      <point x="903.0" y="937.6666666666666"/>
      <point x="1067.6666666666667" y="743.0"/>
      <point x="1034.0" y="504.6666666666667" type="curve" smooth="yes"/>
      <point x="999.3333333333334" y="255.33333333333334"/>
      <point x="768.3333333333334" y="60.66666666666667"/>
    </contour>
  </outline>
</glyph>
<glyph name="idotless" format="2">
  <advance width="330.3333333333333"/>
  <unicode hex="0131"/>
  <outline>
    <contour>
      <point x="190.0" y="1000.0" type="line"/>
      <point x="50.0" y="0.0" type="line"/>
      <point x="140.0" y="0.0" type="line"/>
      <point x="280.0" y="1000.0" type="line"/>
    </contour>
  </outline>
</glyph>
<glyph name="OE" format="2">
  <advance width="2192.25"/>
  <unicode hex="0152"/>
  <outline>
    <contour>
      <point x="700.6666666666666" y="-26.0" type="curve" smooth="yes"/>
      <point x="961.9999999999999" y="-26.0"/>
      <point x="1212.3333333333333" y="133.33333333333331"/>
      <point x="1353.0" y="363.99999999999994" type="curve"/>
      <point x="1300.3333333333335" y="0.0" type="line"/>
      <point x="2022.3333333333335" y="0.0" type="line"/>
      <point x="2034.6666666666667" y="90.0" type="line"/>
      <point x="1402.6666666666667" y="90.0" type="line"/>
      <point x="1482.3333333333335" y="655.0" type="line"/>
      <point x="2018.0" y="655.0" type="line"/>
      <point x="2030.3333333333333" y="745.0" type="line"/>
      <point x="1494.6666666666667" y="745.0" type="line"/>
      <point x="1574.3333333333335" y="1310.0" type="line"/>
      <point x="2206.0" y="1310.0" type="line"/>
      <point x="2218.3333333333335" y="1400.0" type="line"/>
      <point x="1496.6666666666667" y="1400.0" type="line"/>
      <point x="1444.0" y="1031.0" type="line"/>
      <point x="1367.6666666666667" y="1262.0"/>
      <point x="1160.6666666666665" y="1426.0"/>
      <point x="895.3333333333334" y="1426.0" type="curve" smooth="yes"/>
      <point x="517.3333333333334" y="1426.0"/>
      <point x="165.0" y="1102.6666666666667"/>
      <point x="109.0" y="704.6666666666666" type="curve" smooth="yes"/>
      <point x="52.0" y="302.6666666666667"/>
      <point x="318.6666666666667" y="-26.0"/>
    </contour>
    <contour>
      <point x="703.6666666666666" y="64.0" type="curve" smooth="yes"/>
      <point x="375.0" y="64.0"/>
      <point x="148.33333333333334" y="347.6666666666667"/>
      <point x="197.66666666666666" y="695.3333333333334" type="curve" smooth="yes"/>
      <point x="245.66666666666666" y="1041.6666666666665"/>
      <point x="554.9999999999999" y="1336.0"/>
      <point x="892.6666666666666" y="1336.0" type="curve" smooth="yes"/>
      <point x="1221.0" y="1336.0"/>
      <point x="1447.6666666666667" y="1050.6666666666667"/>
      <point x="1399.0" y="704.6666666666666" type="curve" smooth="yes"/>
      <point x="1350.3333333333333" y="358.6666666666667"/>
      <point x="1041.0" y="64.0"/>
    </contour>
  </outline>
</glyph>
<glyph name="oe" format="2">
  <advance width="2028.25"/>
  <unicode hex="0153"/>
  <outline>
    <contour>
      <point x="490.6666666666667" y="-26.0" type="curve" smooth="yes"/>
      <point x="694.6666666666666" y="-26.0"/>
      <point x="888.6666666666666" y="104.66666666666666"/>
      <point x="989.0" y="295.6666666666667" type="curve"/>
      <point x="1033.6666666666667" y="109.66666666666666"/>
      <point x="1192.6666666666667" y="-26.0"/>
      <point x="1400.6666666666667" y="-26.0" type="curve" smooth="yes"/>
      <point x="1598.6666666666667" y="-26.0"/>
      <point x="1786.3333333333333" y="95.33333333333333"/>
      <point x="1891.3333333333333" y="273.3333333333333" type="curve"/>
      <point x="1801.6666666666665" y="299.0" type="line"/>
      <point x="1706.3333333333335" y="153.33333333333334"/>
      <point x="1562.3333333333333" y="64.0"/>
      <point x="1403.6666666666667" y="64.0" type="curve" smooth="yes"/>
      <point x="1193.3333333333333" y="64.33333333333334"/>
      <point x="1045.6666666666667" y="231.0"/>
      <point x="1056.3333333333333" y="458.6666666666667" type="curve"/>
      <point x="1962.0" y="458.6666666666667" type="line"/>
      <point x="2010.0" y="791.0"/>
      <point x="1832.0" y="1028.0"/>
      <point x="1539.3333333333333" y="1028.0" type="curve" smooth="yes"/>
      <point x="1336.0" y="1028.0"/>
      <point x="1142.3333333333335" y="897.3333333333333"/>
      <point x="1041.0" y="704.6666666666666" type="curve"/>
      <point x="996.3333333333333" y="892.3333333333333"/>
      <point x="838.0" y="1028.0"/>
      <point x="629.3333333333334" y="1028.0" type="curve" smooth="yes"/>
      <point x="356.0" y="1028.0"/>
      <point x="101.0" y="794.6666666666666"/>
      <point x="60.333333333333336" y="504.6666666666667" type="curve" smooth="yes"/>
      <point x="19.0" y="212.66666666666666"/>
      <point x="212.66666666666666" y="-26.0"/>
    </contour>
    <contour>
      <point x="493.6666666666667" y="64.0" type="curve" smooth="yes"/>
      <point x="273.0" y="64.0"/>
      <point x="115.33333333333333" y="253.66666666666669"/>
      <point x="149.66666666666666" y="495.3333333333333" type="curve" smooth="yes"/>
      <point x="182.66666666666666" y="733.0"/>
      <point x="391.0" y="938.0"/>
      <point x="626.6666666666666" y="938.0" type="curve" smooth="yes"/>
      <point x="854.0" y="938.0"/>
      <point x="1004.0" y="739.0"/>
      <point x="970.3333333333334" y="504.6666666666667" type="curve" smooth="yes"/>
      <point x="937.3333333333334" y="268.6666666666667"/>
      <point x="727.6666666666667" y="64.0"/>
    </contour>
    <contour>
      <point x="1067.3333333333335" y="538.6666666666666" type="line"/>
      <point x="1116.0" y="761.3333333333334"/>
      <point x="1315.3333333333333" y="943.0"/>
      <point x="1537.0" y="943.0" type="curve" smooth="yes"/>
      <point x="1751.6666666666665" y="943.0"/>
      <point x="1902.6666666666667" y="759.6666666666666"/>
      <point x="1883.6666666666667" y="544.3333333333333" type="curve"/>
    </contour>
  </outline>
</glyph>
<glyph name="caron" format="2">
  <advance width="514.5"/>
  <unicode hex="02C7"/>
  <outline>
    <contour>
      <point x="315.99999999999994" y="1166.0" type="line"/>
      <point x="388.6666666666667" y="1166.0" type="line"/>
      <point x="521.6666666666667" y="1400.0" type="line"/>
      <point x="452.6666666666667" y="1400.0" type="line"/>
      <point x="360.0" y="1235.3333333333333" type="line"/>
      <point x="313.6666666666667" y="1400.0" type="line"/>
      <point x="247.33333333333334" y="1400.0" type="line"/>
    </contour>
  </outline>
</glyph>
<glyph name="breve" format="2">
  <advance width="1144.0"/>
  <unicode hex="02D8"/>
  <outline>
    <contour>
      <point x="665.6666666666666" y="1128.0" type="curve" smooth="yes"/>
      <point x="840.0" y="1128.0"/>
      <point x="1012.0" y="1269.6666666666667"/>
      <point x="1039.0" y="1457.3333333333333" type="curve"/>
      <point x="964.0" y="1462.6666666666667" type="line"/>
      <point x="944.3333333333334" y="1320.6666666666667"/>
      <point x="808.3333333333334" y="1203.0"/>
      <point x="665.6666666666666" y="1203.0" type="curve" smooth="yes"/>
      <point x="533.6666666666666" y="1203.0"/>
      <point x="428.3333333333333" y="1308.6666666666667"/>
      <point x="450.0" y="1457.3333333333333" type="curve"/>
      <point x="375.0" y="1462.6666666666667" type="line"/>
      <point x="350.0" y="1280.6666666666667"/>
      <point x="481.0" y="1128.0"/>
    </contour>
  </outline>
</glyph>
<glyph name="ogonek" format="2">
  <advance width="1081.0"/>
  <unicode hex="02DB"/>
  <outline>
    <contour>
      <point x="492.33333333333337" y="-363.6666666666667" type="curve" smooth="yes"/>
      <point x="531.3333333333334" y="-363.6666666666667" type="line"/>
      <point x="543.0" y="-284.0" type="line"/>
      <point x="497.99999999999994" y="-284.0" type="line" smooth="yes"/>
      <point x="351.66666666666663" y="-284.0"/>
      <point x="248.00000000000003" y="-164.33333333333331"/>
      <point x="268.6666666666667" y="-18.000000000000004" type="curve" smooth="yes"/>
      <point x="279.6666666666667" y="62.0" type="line"/>
      <point x="200.0" y="62.0" type="line"/>
      <point x="190.0" y="-12.000000000000002" type="line" smooth="yes"/>
      <point x="162.66666666666666" y="-204.66666666666666"/>
      <point x="299.3333333333333" y="-363.6666666666667"/>
    </contour>
  </outline>
</glyph>
<glyph name="gravecomb" format="2">
  <unicode hex="0300"/>
  <outline>
    <contour>
      <point x="451.3333333333333" y="1426.0" type="line"/>
      <point x="543.0000000000001" y="1138.0" type="line"/>
      <point x="579.0" y="1138.0" type="line"/>
      <point x="539.6666666666666" y="1426.0" type="line"/>
    </contour>
  </outline>
</glyph>
<glyph name="acutecomb" format="2">
  <unicode hex="0301"/>
  <outline>
    <contour>
      <point x="569.0" y="1138.0" type="line"/>
      <point x="608.0" y="1138.0" type="line"/>
      <point x="781.3333333333334" y="1426.0" type="line"/>
      <point x="689.6666666666666" y="1426.0" type="line"/>
    </contour>
  </outline>
</glyph>
<glyph name="circumflexcomb" format="2">
  <unicode hex="0302"/>
  <outline>
    <contour>
      <point x="627.6666666666667" y="1400.0" type="line"/>
      <point x="492.6666666666667" y="1166.0" type="line"/>
      <point x="562.0000000000001" y="1166.0" type="line"/>
      <point x="656.3333333333334" y="1330.6666666666667" type="line"/>
      <point x="701.0" y="1166.0" type="line"/>
      <point x="767.3333333333333" y="1166.0" type="line"/>
      <point x="700.3333333333333" y="1400.0" type="line"/>
    </contour>
  </outline>
</glyph>
<glyph name="tildecomb" format="2">
  <unicode hex="0303"/>
  <outline>
    <contour>
      <point x="880.3333333333333" y="1299.0" type="curve" smooth="yes"/>
      <point x="982.6666666666666" y="1299.0"/>
      <point x="1064.9999999999998" y="1398.6666666666665"/>
      <point x="1047.3333333333333" y="1497.3333333333333" type="curve"/>
      <point x="975.0" y="1480.0" type="line"/>
      <point x="983.0" y="1447.3333333333335"/>
      <point x="944.0" y="1374.6666666666667"/>
      <point x="894.6666666666666" y="1374.6666666666667" type="curve" smooth="yes"/>
      <point x="818.6666666666667" y="1374.6666666666667"/>
      <point x="693.0" y="1520.0"/>
      <point x="589.0000000000001" y="1520.0" type="curve" smooth="yes"/>
      <point x="487.3333333333333" y="1520.0"/>
      <point x="405.6666666666667" y="1418.3333333333335"/>
      <point x="425.0" y="1324.3333333333335" type="curve"/>
      <point x="496.6666666666667" y="1338.6666666666665" type="line"/>
      <point x="490.6666666666667" y="1392.6666666666665"/>
      <point x="534.6666666666666" y="1440.3333333333333"/>
      <point x="578.9999999999999" y="1442.3333333333333" type="curve" smooth="yes"/>
      <point x="661.0" y="1449.0"/>
      <point x="779.0" y="1299.0"/>
    </contour>
  </outline>
</glyph>
<glyph name="dotaccentcomb" format="2">
  <unicode hex="0307"/>
  <outline>
    <contour>
      <point x="564.9999999999999" y="1216.6666666666667" type="curve" smooth="yes"/>
      <point x="593.6666666666667" y="1216.6666666666667"/>
      <point x="620.3333333333333" y="1237.6666666666667"/>
      <point x="624.3333333333333" y="1269.3333333333333" type="curve" smooth="yes"/>
      <point x="629.3333333333333" y="1304.6666666666665"/>
      <point x="604.6666666666667" y="1331.3333333333333"/>
      <point x="571.3333333333333" y="1331.3333333333333" type="curve" smooth="yes"/>
      <point x="539.6666666666667" y="1331.3333333333333"/>
      <point x="514.0" y="1310.0"/>
      <point x="509.3333333333333" y="1278.6666666666667" type="curve" smooth="yes"/>
      <point x="504.0" y="1243.3333333333335"/>
      <point x="528.6666666666667" y="1216.6666666666667"/>
    </contour>
  </outline>
</glyph>
<glyph name="dieresiscomb" format="2">
  <unicode hex="0308"/>
  <outline>
    <contour>
      <point x="566.6666666666666" y="1216.6666666666667" type="curve" smooth="yes"/>
      <point x="595.6666666666667" y="1216.6666666666667"/>
      <point x="624.0" y="1237.6666666666667"/>
      <point x="627.6666666666666" y="1269.3333333333333" type="curve" smooth="yes"/>
      <point x="633.0" y="1302.6666666666667"/>
      <point x="607.3333333333334" y="1333.0"/>
      <point x="573.0" y="1333.0" type="curve" smooth="yes"/>
      <point x="542.3333333333334" y="1333.0"/>
      <point x="513.3333333333334" y="1308.3333333333335"/>
      <point x="509.3333333333333" y="1278.6666666666667" type="curve" smooth="yes"/>
      <point x="504.0" y="1243.3333333333335"/>
      <point x="530.6666666666667" y="1216.6666666666667"/>
    </contour>
    <contour>
      <point x="842.3333333333333" y="1216.6666666666667" type="curve" smooth="yes"/>
      <point x="871.0" y="1216.6666666666667"/>
      <point x="899.3333333333333" y="1237.6666666666667"/>
      <point x="903.3333333333333" y="1269.3333333333333" type="curve" smooth="yes"/>
      <point x="908.3333333333333" y="1302.6666666666667"/>
      <point x="883.0" y="1333.0"/>
      <point x="848.6666666666666" y="1333.0" type="curve" smooth="yes"/>
      <point x="818.0" y="1333.0"/>
      <point x="788.6666666666666" y="1308.3333333333335"/>
      <point x="784.6666666666666" y="1278.6666666666667" type="curve" smooth="yes"/>
      <point x="779.6666666666666" y="1243.3333333333335"/>
      <point x="806.0" y="1216.6666666666667"/>
    </contour>
  </outline>
</glyph>
<glyph name="ringcomb" format="2">
  <unicode hex="030A"/>
  <outline>
    <contour>
      <point x="640.3333333333333" y="1134.6666666666667" type="curve" smooth="yes"/>
      <point x="717.6666666666666" y="1134.6666666666667"/>
      <point x="789.6666666666666" y="1197.3333333333333"/>
      <point x="800.3333333333333" y="1277.6666666666665" type="curve" smooth="yes"/>
      <point x="812.0" y="1357.6666666666667"/>
      <point x="754.3333333333334" y="1427.6666666666667"/>
      <point x="671.0" y="1427.6666666666667" type="curve" smooth="yes"/>
      <point x="593.6666666666667" y="1427.6666666666667"/>
      <point x="521.6666666666666" y="1363.3333333333335"/>
      <point x="510.3333333333333" y="1287.0" type="curve" smooth="yes"/>
      <point x="498.6666666666667" y="1204.6666666666667"/>
      <point x="557.3333333333334" y="1134.6666666666667"/>
    </contour>
    <contour>
      <point x="638.0" y="1190.3333333333333" type="curve" smooth="yes"/>
      <point x="590.0000000000001" y="1190.3333333333333"/>
      <point x="557.6666666666667" y="1227.6666666666665"/>
      <point x="564.6666666666667" y="1277.6666666666665" type="curve" smooth="yes"/>
      <point x="571.6666666666667" y="1327.6666666666665"/>
      <point x="620.6666666666667" y="1370.3333333333333"/>
      <point x="673.3333333333333" y="1370.3333333333333" type="curve" smooth="yes"/>
      <point x="720.6666666666666" y="1370.3333333333333"/>
      <point x="753.0" y="1333.0"/>
      <point x="746.0" y="1287.0" type="curve" smooth="yes"/>
      <point x="739.0" y="1233.0"/>
      <point x="690.0" y="1190.3333333333333"/>
    </contour>
  </outline>
</glyph>
<glyph name="cedillacomb" format="2">
  <unicode hex="0327"/>
  <outline>
    <contour>
      <point x="287.0" y="-306.0" type="line"/>
      <point x="330.6666666666667" y="-306.0" type="line" smooth="yes"/>
      <point x="523.6666666666666" y="-306.0"/>
      <point x="699.3333333333334" y="-152.66666666666666"/>
      <point x="726.6666666666666" y="40.333333333333336" type="curve" smooth="yes"/>
      <point x="732.3333333333334" y="84.66666666666667" type="line"/>
      <point x="652.6666666666667" y="84.66666666666667" type="line"/>
      <point x="647.0" y="45.333333333333336" type="line" smooth="yes"/>
      <point x="626.3333333333334" y="-100.99999999999999"/>
      <point x="483.66666666666663" y="-226.33333333333331"/>
      <point x="337.3333333333333" y="-226.33333333333331" type="curve" smooth="yes"/>
      <point x="297.6666666666667" y="-226.33333333333331" type="line"/>
    </contour>
  </outline>
</glyph>
<glyph name="mu" format="2">
  <advance width="1020.25"/>
  <unicode hex="03BC"/>
  <outline>
    <contour>
      <point x="-51.0" y="-432.0" type="line"/>
      <point x="39.0" y="-432.0" type="line"/>
      <point x="127.33333333333333" y="183.33333333333334" type="line"/>
      <point x="179.66666666666669" y="60.333333333333336"/>
      <point x="288.6666666666667" y="-26.333333333333332"/>
      <point x="436.33333333333337" y="-26.333333333333332" type="curve" smooth="yes"/>
      <point x="577.3333333333333" y="-26.333333333333332"/>
      <point x="709.6666666666666" y="53.666666666666664"/>
      <point x="807.6666666666667" y="190.0" type="curve"/>
      <point x="780.0" y="0.0" type="line"/>
      <point x="870.3333333333334" y="0.0" type="line"/>
      <point x="1010.3333333333334" y="1000.0" type="line"/>
      <point x="920.3333333333334" y="1000.0" type="line"/>
      <point x="844.3333333333334" y="460.6666666666667" type="line" smooth="yes"/>
      <point x="814.0" y="243.0"/>
      <point x="636.0" y="62.66666666666667"/>
      <point x="445.6666666666667" y="62.66666666666667" type="curve" smooth="yes"/>
      <point x="258.6666666666667" y="62.66666666666667"/>
      <point x="133.33333333333334" y="237.66666666666669"/>
      <point x="163.66666666666666" y="455.3333333333333" type="curve" smooth="yes"/>
      <point x="240.0" y="1000.0" type="line"/>
      <point x="150.0" y="1000.0" type="line"/>
    </contour>
  </outline>
</glyph>
<glyph name="Germandbls" format="2">
  <advance width="1092.0"/>
  <unicode hex="1E9E"/>
  <outline>
    <contour>
      <point x="50.0" y="0.0" type="line"/>
      <point x="140.0" y="0.0" type="line"/>
      <point x="278.0" y="985.6666666666666" type="line" smooth="yes"/>
      <point x="303.6666666666667" y="1165.6666666666665"/>
      <point x="470.6666666666667" y="1313.6666666666667"/>
      <point x="650.3333333333334" y="1313.6666666666667" type="curve" smooth="yes"/>
      <point x="789.6666666666666" y="1313.6666666666667"/>
      <point x="906.0" y="1268.0"/>
      <point x="891.0" y="1147.0" type="curve" smooth="yes"/>
      <point x="877.0" y="1035.6666666666667"/>
      <point x="558.0" y="769.6666666666666"/>
      <point x="555.3333333333334" y="698.0" type="curve" smooth="yes"/>
      <point x="552.3333333333333" y="653.6666666666666" type="line"/>
      <point x="622.3333333333333" y="653.6666666666666" type="line" smooth="yes"/>
      <point x="780.6666666666666" y="653.6666666666666"/>
      <point x="956.0" y="569.3333333333333"/>
      <point x="928.6666666666667" y="376.33333333333337" type="curve" smooth="yes"/>
      <point x="900.6666666666667" y="175.66666666666666"/>
      <point x="697.0" y="84.33333333333334"/>
      <point x="539.0" y="84.33333333333334" type="curve" smooth="yes"/>
      <point x="450.33333333333337" y="84.33333333333334" type="line"/>
      <point x="462.99999999999994" y="0.0" type="line"/>
      <point x="536.0" y="0.0" type="line" smooth="yes"/>
      <point x="738.3333333333333" y="0.0"/>
      <point x="979.3333333333334" y="122.66666666666667"/>
      <point x="1013.0" y="364.6666666666667" type="curve" smooth="yes"/>
      <point x="1044.0" y="585.0"/>
      <point x="859.6666666666666" y="744.0"/>
      <point x="660.6666666666666" y="720.3333333333333" type="curve"/>
      <point x="890.6666666666666" y="979.6666666666667"/>
      <point x="977.0" y="1055.0"/>
      <point x="988.0" y="1136.6666666666667" type="curve" smooth="yes"/>
      <point x="1012.3333333333333" y="1308.3333333333333"/>
      <point x="858.0" y="1398.3333333333333"/>
      <point x="663.0" y="1398.3333333333333" type="curve" smooth="yes"/>
      <point x="433.0" y="1398.3333333333333"/>
      <point x="220.0" y="1212.0"/>
      <point x="187.0" y="979.6666666666666" type="curve" smooth="yes"/>
    </contour>
  </outline>
</glyph>
<glyph name="endash" format="2">
  <advance width="1240.0"/>
  <unicode hex="2013"/>
  <outline>
    <contour>
      <point x="140.0" y="645.0" type="line"/>
      <point x="128.0" y="555.0" type="line"/>
      <point x="1128.0" y="555.0" type="line"/>
      <point x="1140.0" y="645.0" type="line"/>
    </contour>
  </outline>
</glyph>
<glyph name="emdash" format="2">
  <advance width="2040.0"/>
  <unicode hex="2014"/>
  <outline>
    <contour>
      <point x="140.0" y="645.0" type="line"/>
      <point x="128.0" y="555.0" type="line"/>
      <point x="1928.0" y="555.0" type="line"/>
      <point x="1940.0" y="645.0" type="line"/>
    </contour>
  </outline>
</glyph>
<glyph name="quoteleft" format="2">
  <advance width="252.0"/>
  <unicode hex="2018"/>
  <unicode hex="02BB"/>
  <outline>
    <contour>
      <point x="112.66666666666667" y="878.0" type="line"/>
      <point x="203.0" y="878.0" type="line"/>
      <point x="339.0" y="1400.0" type="line"/>
      <point x="277.6666666666667" y="1400.0" type="line"/>
    </contour>
  </outline>
</glyph>
<glyph name="quoteright" format="2">
  <advance width="252.0"/>
  <unicode hex="2019"/>
  <unicode hex="2032"/>
  <outline>
    <contour>
      <point x="93.0" y="878.0" type="line"/>
      <point x="153.33333333333334" y="878.0" type="line"/>
      <point x="319.3333333333333" y="1400.0" type="line"/>
      <point x="228.0" y="1400.0" type="line"/>
    </contour>
  </outline>
</glyph>
<glyph name="dagger" format="2">
  <advance width="756.0"/>
  <unicode hex="2020"/>
  <outline>
    <contour>
      <point x="167.66666666666666" y="1122.6666666666667" type="line"/>
      <point x="420.6666666666667" y="1122.6666666666667" type="line"/>
      <point x="346.3333333333333" y="595.0" type="line"/>
      <point x="436.3333333333333" y="595.0" type="line"/>
      <point x="510.6666666666667" y="1122.6666666666667" type="line"/>
      <point x="763.6666666666666" y="1122.6666666666667" type="line"/>
      <point x="775.6666666666666" y="1212.6666666666667" type="line"/>
      <point x="522.6666666666666" y="1212.6666666666667" type="line"/>
      <point x="564.0" y="1500.0" type="line"/>
      <point x="474.0" y="1500.0" type="line"/>
      <point x="432.6666666666667" y="1212.6666666666667" type="line"/>
      <point x="179.66666666666666" y="1212.6666666666667" type="line"/>
    </contour>
  </outline>
</glyph>
<glyph name="daggerdbl" format="2">
  <advance width="756.0"/>
  <unicode hex="2021"/>
  <outline>
    <contour>
      <point x="123.0" y="807.0" type="line"/>
      <point x="376.0" y="807.0" type="line"/>
      <point x="341.0" y="560.0" type="line"/>
      <point x="431.0" y="560.0" type="line"/>
      <point x="466.0" y="807.0" type="line"/>
      <point x="719.0" y="807.0" type="line"/>
      <point x="731.0" y="895.0" type="line"/>
      <point x="478.0" y="895.0" type="line"/>
      <point x="512.3333333333334" y="1135.0" type="line"/>
      <point x="765.3333333333334" y="1135.0" type="line"/>
      <point x="777.6666666666666" y="1225.0" type="line"/>
      <point x="524.6666666666666" y="1225.0" type="line"/>
      <point x="564.0" y="1500.0" type="line"/>
      <point x="474.0" y="1500.0" type="line"/>
      <point x="434.6666666666667" y="1225.0" type="line"/>
      <point x="181.66666666666666" y="1225.0" type="line"/>
      <point x="169.33333333333334" y="1135.0" type="line"/>
      <point x="422.3333333333333" y="1135.0" type="line"/>
      <point x="388.0" y="895.0" type="line"/>
      <point x="135.0" y="895.0" type="line"/>
    </contour>
  </outline>
</glyph>
<glyph name="bullet" format="2">
  <advance width="315.0"/>
  <unicode hex="2022"/>
  <outline>
    <contour>
      <point x="164.00000000000003" y="522.6666666666666" type="curve" smooth="yes"/>
      <point x="206.33333333333334" y="522.6666666666666"/>
      <point x="242.66666666666666" y="553.6666666666667"/>
      <point x="248.66666666666666" y="597.0" type="curve" smooth="yes"/>
      <point x="255.0" y="640.6666666666666"/>
      <point x="223.66666666666666" y="677.6666666666666"/>
      <point x="175.66666666666669" y="677.6666666666666" type="curve" smooth="yes"/>
      <point x="136.33333333333334" y="677.6666666666666"/>
      <point x="100.66666666666667" y="646.3333333333333"/>
      <point x="95.0" y="606.6666666666666" type="curve" smooth="yes"/>
      <point x="88.66666666666667" y="559.0"/>
      <point x="119.0" y="522.6666666666666"/>
    </contour>
  </outline>
</glyph>
<glyph name="perthousand" format="2">
  <advance width="1622.0"/>
  <unicode hex="2030"/>
  <outline>
    <contour>
      <point x="58.33333333333332" y="0.0" type="line"/>
      <point x="164.33333333333334" y="0.0" type="line"/>
      <point x="1169.3333333333333" y="1400.0" type="line"/>
      <point x="1062.9999999999998" y="1400.0" type="line"/>
    </contour>
    <contour>
      <point x="349.0" y="882.6666666666666" type="curve"/>
      <point x="461.0" y="882.6666666666666"/>
      <point x="565.6666666666667" y="972.6666666666666"/>
      <point x="582.0" y="1087.3333333333333" type="curve"/>
      <point x="598.6666666666667" y="1205.0"/>
      <point x="515.6666666666666" y="1303.3333333333333"/>
      <point x="397.6666666666667" y="1303.3333333333333" type="curve"/>
      <point x="285.3333333333333" y="1303.3333333333333"/>
      <point x="179.66666666666666" y="1211.6666666666667"/>
      <point x="164.33333333333334" y="1096.6666666666667" type="curve"/>
      <point x="147.66666666666666" y="978.6666666666666"/>
      <point x="230.66666666666669" y="882.6666666666666"/>
    </contour>
    <contour>
      <point x="349.0" y="960.0" type="curve"/>
      <point x="278.0" y="960.0"/>
      <point x="230.33333333333334" y="1017.0"/>
      <point x="240.33333333333334" y="1087.3333333333333" type="curve"/>
      <point x="250.33333333333334" y="1163.3333333333333"/>
      <point x="320.6666666666667" y="1225.6666666666667"/>
      <point x="396.6666666666667" y="1225.6666666666667" type="curve"/>
      <point x="468.33333333333337" y="1225.6666666666667"/>
      <point x="516.0000000000001" y="1168.6666666666667"/>
      <point x="506.0" y="1096.6666666666667" type="curve"/>
      <point x="495.0" y="1022.6666666666665"/>
      <point x="425.6666666666667" y="960.0"/>
    </contour>
    <contour>
      <point x="779.3333333333334" y="96.66666666666666" type="curve"/>
      <point x="892.0000000000001" y="96.66666666666666"/>
      <point x="997.3333333333334" y="189.66666666666669"/>
      <point x="1013.3333333333334" y="303.0" type="curve"/>
      <point x="1029.6666666666667" y="419.6666666666667"/>
      <point x="947.3333333333334" y="517.6666666666666"/>
      <point x="828.6666666666666" y="517.6666666666666" type="curve"/>
      <point x="716.0" y="517.6666666666666"/>
      <point x="609.3333333333333" y="427.0"/>
      <point x="593.0" y="312.6666666666667" type="curve"/>
      <point x="576.6666666666666" y="196.0"/>
      <point x="660.3333333333334" y="96.66666666666666"/>
    </contour>
    <contour>
      <point x="780.3333333333334" y="174.0" type="curve"/>
      <point x="709.3333333333334" y="174.0"/>
      <point x="659.0" y="231.33333333333334"/>
      <point x="670.0" y="303.0" type="curve"/>
      <point x="680.0" y="377.3333333333333"/>
      <point x="751.0" y="440.0"/>
      <point x="827.6666666666666" y="440.0" type="curve"/>
      <point x="897.0" y="440.0"/>
      <point x="946.3333333333334" y="382.6666666666667"/>
      <point x="936.6666666666667" y="312.6666666666667" type="curve"/>
      <point x="926.3333333333334" y="236.66666666666666"/>
      <point x="855.3333333333334" y="174.0"/>
    </contour>
    <contour>
      <point x="1280.6666666666665" y="96.66666666666666" type="curve"/>
      <point x="1393.3333333333333" y="96.66666666666666"/>
      <point x="1498.6666666666667" y="189.66666666666669"/>
      <point x="1514.6666666666667" y="303.0" type="curve"/>
      <point x="1531.0" y="419.6666666666667"/>
      <point x="1448.6666666666667" y="517.6666666666666"/>
      <point x="1330.0" y="517.6666666666666" type="curve"/>
      <point x="1217.0" y="517.6666666666666"/>
      <point x="1110.6666666666667" y="427.0"/>
      <point x="1094.3333333333333" y="312.6666666666667" type="curve"/>
      <point x="1078.0" y="196.0"/>
      <point x="1161.6666666666665" y="96.66666666666666"/>
    </contour>
    <contour>
      <point x="1281.6666666666665" y="174.0" type="curve"/>
      <point x="1210.6666666666667" y="174.0"/>
      <point x="1160.3333333333335" y="231.33333333333334"/>
      <point x="1171.0" y="303.0" type="curve"/>
      <point x="1181.3333333333335" y="377.3333333333333"/>
      <point x="1252.3333333333335" y="440.0"/>
      <point x="1329.0" y="440.0" type="curve"/>
      <point x="1398.3333333333335" y="440.0"/>
      <point x="1447.6666666666667" y="382.6666666666667"/>
      <point x="1437.6666666666667" y="312.6666666666667" type="curve"/>
      <point x="1427.6666666666667" y="236.66666666666666"/>
      <point x="1356.6666666666667" y="174.0"/>
    </contour>
  </outline>
</glyph>
<glyph name="primeReversed" format="2">
  <advance width="392.0"/>
  <unicode hex="2035"/>
  <outline>
    <contour>
      <point x="265.3333333333333" y="878.0" type="line"/>
      <point x="325.0" y="878.0" type="line"/>
      <point x="336.0" y="1400.0" type="line"/>
      <point x="247.33333333333334" y="1400.0" type="line"/>
    </contour>
  </outline>
</glyph>
<glyph name="guilsinglleft" format="2">
  <advance width="627.5"/>
  <unicode hex="2039"/>
  <outline>
    <contour>
      <point x="387.3333333333333" y="261.0" type="line"/>
      <point x="492.99999999999994" y="261.0" type="line"/>
      <point x="241.66666666666669" y="601.0" type="line"/>
      <point x="590.0" y="939.0" type="line"/>
      <point x="480.6666666666667" y="939.0" type="line"/>
      <point x="134.0" y="601.0" type="line"/>
    </contour>
  </outline>
</glyph>
